/* XPM */
static char *a20iz_7qnoq[] = {
/* columns rows colors chars-per-pixel */
"80 80 244 2 ",
"   c #090018",
".  c #12011A",
"X  c #1A0219",
"o  c #160016",
"O  c #21051E",
"+  c #1C0329",
"@  c #1B0934",
"#  c #191231",
"$  c #230029",
"%  c #270428",
"&  c #350A2B",
"*  c #2A0934",
"=  c #330D3C",
"-  c #3A0A36",
";  c #261339",
":  c #381539",
">  c #24192D",
",  c #36263A",
"<  c #2C2438",
"1  c #47153C",
"2  c #561638",
"3  c #510D2E",
"4  c #6A163C",
"5  c #731538",
"6  c #4E243D",
"7  c #1F1F46",
"8  c #2A1B4A",
"9  c #381849",
"0  c #321F51",
"q  c #2D0E44",
"w  c #26234A",
"e  c #2C224B",
"r  c #262446",
"t  c #372549",
"y  c #353446",
"u  c #382857",
"i  c #393958",
"p  c #2E2A51",
"a  c #3D2F67",
"s  c #4A1B4B",
"d  c #481845",
"f  c #561B48",
"g  c #431E52",
"h  c #491E52",
"j  c #531E52",
"k  c #771B48",
"l  c #6C1C4D",
"z  c #552648",
"x  c #432354",
"c  c #4C245C",
"v  c #4B2A5D",
"b  c #492555",
"n  c #542255",
"m  c #5B275B",
"M  c #552A5B",
"N  c #582859",
"B  c #493858",
"V  c #543758",
"C  c #52304C",
"Z  c #68234A",
"A  c #79244A",
"S  c #672656",
"D  c #792857",
"F  c #673758",
"G  c #763958",
"H  c #6E324E",
"J  c #4B2B65",
"K  c #5B2B63",
"L  c #542B66",
"P  c #463668",
"I  c #5A316C",
"U  c #583469",
"Y  c #493673",
"T  c #543C76",
"R  c #593A76",
"E  c #5A3A78",
"W  c #662E66",
"Q  c #64336B",
"!  c #6B3667",
"~  c #763565",
"^  c #633673",
"/  c #6B3772",
"(  c #623B7B",
")  c #6D3D7C",
"_  c #6A3A75",
"`  c #723D7B",
"'  c #7A3C76",
"]  c #792C60",
"[  c #3B4556",
"{  c #454658",
"}  c #504555",
"|  c #5D466E",
" . c #484477",
".. c #554279",
"X. c #53507C",
"o. c #77446A",
"O. c #78437A",
"+. c #6A4D72",
"@. c #736D6D",
"#. c #861B4A",
"$. c #901D4F",
"%. c #862858",
"&. c #972758",
"*. c #85365C",
"=. c #8F2752",
"-. c #A92559",
";. c #B4265B",
":. c #A83756",
">. c #8C2F61",
",. c #982A61",
"<. c #873865",
"1. c #993565",
"2. c #883C79",
"3. c #963C78",
"4. c #A62B62",
"5. c #B82A63",
"6. c #A83766",
"7. c #B53567",
"8. c #AA3975",
"9. c #B73976",
"0. c #A11E54",
"q. c #ED1A5F",
"w. c #EF175E",
"e. c #F11B5F",
"r. c #F4175C",
"t. c #C8285D",
"y. c #E71E62",
"u. c #EA1E63",
"i. c #F21D64",
"p. c #F91E66",
"a. c #F51F68",
"s. c #CC2663",
"d. c #C52C64",
"f. c #CC2D64",
"g. c #C82C68",
"h. c #D42663",
"j. c #D22A66",
"k. c #D52C6A",
"l. c #DD2B6A",
"z. c #DC2865",
"x. c #CB336B",
"c. c #C53569",
"v. c #D4326D",
"b. c #D8346E",
"n. c #C33B7D",
"m. c #C93876",
"M. c #DB3373",
"N. c #DC3A74",
"B. c #D63778",
"V. c #D72E72",
"C. c #E42566",
"Z. c #EB2265",
"A. c #E52769",
"S. c #EB2669",
"D. c #E42A6B",
"F. c #EB2A6C",
"G. c #E82867",
"H. c #F32166",
"J. c #F42469",
"K. c #F8276B",
"L. c #E7326D",
"P. c #E22F71",
"I. c #E23373",
"U. c #FC2D71",
"Y. c #83475A",
"T. c #88486C",
"R. c #884D7E",
"E. c #964776",
"W. c #97476C",
"Q. c #B14374",
"!. c #8A7967",
"~. c #D7427D",
"^. c #5C3E84",
"/. c #643E81",
"(. c #6B3E80",
"). c #753C80",
"_. c #5B4383",
"`. c #554A88",
"'. c #54538A",
"]. c #5B4B93",
"[. c #5D5092",
"{. c #4E4B83",
"}. c #644385",
"|. c #6A4283",
" X c #6C458B",
".X c #634B8D",
"XX c #6B4A8C",
"oX c #664887",
"OX c #734383",
"+X c #744B8C",
"@X c #784789",
"#X c #665489",
"$X c #7A5589",
"%X c #684C93",
"&X c #744D93",
"*X c #7B4D93",
"=X c #754F9A",
"-X c #675499",
";X c #7C5493",
":X c #7C529C",
">X c #7C599B",
",X c #765699",
"<X c #766689",
"1X c #7957A2",
"2X c #6C59A4",
"3X c #7A65AA",
"4X c #736EAE",
"5X c #853F83",
"6X c #BE3D81",
"7X c #D43F82",
"8X c #884788",
"9X c #974788",
"0X c #844C93",
"qX c #83539A",
"wX c #885699",
"eX c #975699",
"rX c #90528E",
"tX c #A94586",
"yX c #B74888",
"uX c #A55599",
"iX c #B65798",
"pX c #B44D90",
"aX c #876192",
"sX c #A4629D",
"dX c #825BA4",
"fX c #875BA7",
"gX c #995BA2",
"hX c #8766A9",
"jX c #9568A7",
"kX c #886DB2",
"lX c #8876B6",
"zX c #927AB8",
"xX c #AC67A6",
"cX c #C84485",
"vX c #C14F92",
"bX c #8C84BE",
"nX c #9482BB",
"mX c #9C8E8B",
"MX c #CCB9A1",
"NX c #D4C5BD",
"BX c #8685C3",
"VX c #9789C2",
"CX c #9B97C9",
"ZX c #F1E0C3",
/* pixels */
"u.u.u.u.u.u.u.u.u.u.u.u.u.u.u.u.u.u.u.u.u.u.u.u.u.u.u.u.u.u.u.u.u.u.u.u.u.Z.q.M.iXsXpXD.u.u.u.u.u.u.u.u.u.u.u.u.u.u.u.u.u.u.u.u.u.u.u.u.u.u.u.u.u.u.u.u.u.u.u.u.",
"u.u.u.u.u.u.u.u.u.u.u.u.u.u.u.u.u.u.u.u.u.u.u.u.u.u.u.u.u.u.u.u.u.u.u.u.u.u.P.xXzXkX3XeXD.u.u.u.u.u.u.u.u.u.u.u.u.u.u.u.u.u.u.u.u.u.u.u.u.u.u.u.u.u.u.u.u.u.u.u.",
"u.u.u.u.u.u.u.u.u.u.u.u.u.u.u.u.u.u.u.u.u.u.u.u.u.u.u.u.u.u.u.u.u.u.u.u.u.Z.xXzXzXlXkX3XeXG.u.u.u.u.u.u.u.u.u.u.u.u.u.u.u.u.u.u.u.u.u.u.u.u.u.u.u.u.u.u.u.u.u.u.",
"u.u.u.u.u.u.u.u.u.u.u.u.u.u.u.u.u.u.u.u.u.u.u.u.u.u.u.u.u.u.u.u.u.u.u.Z.u.cXzXzXzXlXlXkX2XtXi.u.u.u.u.u.u.u.u.u.u.u.u.u.u.u.u.u.u.u.u.u.u.u.u.u.u.u.u.u.u.u.u.u.",
"u.u.u.u.u.u.u.u.u.u.u.u.u.u.u.u.u.u.u.u.u.u.u.u.u.u.u.u.u.u.u.u.u.u.u.u.A.jXzXnXzXlXlXkX3X%Xx.u.u.u.u.u.u.u.u.u.u.u.u.u.u.u.u.u.u.u.u.u.u.u.u.u.u.u.u.u.u.u.u.u.",
"u.u.u.u.u.u.u.u.u.u.u.u.u.u.u.u.u.u.u.u.u.u.u.u.u.u.u.u.u.u.u.u.u.u.u.q.cXkXnXlXlXlXkXlX3X].2.H.u.u.u.u.u.u.u.u.u.u.u.u.u.u.u.u.u.u.u.u.u.u.u.u.u.u.u.u.u.u.u.u.",
"u.u.u.u.u.u.u.u.u.u.u.u.u.u.u.u.u.u.u.u.u.u.u.u.u.u.u.u.u.u.u.u.u.u.u.u.uXlX>X#XbXVXlXVX3X].T j.u.u.u.u.u.u.u.u.u.u.u.u.u.u.u.u.u.u.u.u.u.u.u.u.u.u.u.u.u.u.u.u.",
"u.u.u.u.u.u.u.u.u.u.u.u.u.u.u.u.u.u.u.u.u.u.u.u.u.u.u.u.u.u.u.u.u.u.u.D.jXkX9 8 4XnXVX3XP ..a 4.i.u.u.u.u.u.u.u.u.u.u.u.u.u.u.u.u.u.u.u.u.u.u.u.u.u.u.u.u.u.u.u.",
"u.u.u.u.u.u.u.u.u.u.u.u.u.u.u.u.u.u.u.u.u.u.u.u.u.u.u.u.u.u.u.u.u.u.e.m.kXXXq I ,XBXnX;   u u D H.u.u.u.u.u.u.u.u.u.u.u.u.u.u.u.u.u.u.u.u.u.u.u.u.u.u.u.u.u.u.u.",
"u.u.u.u.u.u.u.u.u.u.u.u.u.u.u.u.u.u.u.u.u.u.u.u.u.u.u.u.u.u.u.u.u.u.i.6X3XJ a 9.m.BX<X!.+ ; p S H.u.u.u.u.u.u.u.u.u.u.u.u.u.u.u.u.u.u.u.u.u.u.u.u.u.u.u.u.u.u.u.",
"u.u.u.u.u.u.u.u.u.u.u.u.u.u.u.u.u.u.u.u.u.u.u.u.u.u.u.u.u.u.u.u.u.u.i.9.-X^.^.V.L.U mXZX9 q w l H.u.u.u.u.u.u.u.u.u.u.u.u.u.u.u.u.u.u.u.u.u.u.u.u.u.u.u.u.u.u.u.",
"u.u.u.u.u.u.u.u.u.u.u.u.u.u.u.u.u.u.u.u.u.u.u.u.u.u.u.u.u.u.u.u.u.u.i.g.R oX].n.:.V Y.MX0 0 ; #.H.y.u.u.u.u.u.u.u.u.u.u.u.u.u.u.u.u.u.u.u.u.u.u.u.u.u.u.u.u.u.u.",
"u.u.u.u.u.u.u.u.u.u.u.u.u.u.u.u.u.u.u.u.u.u.u.u.u.u.u.u.u.u.u.u.u.u.u.A.m J 2XuX:.+.! +.u e @ ;.i.y.u.u.u.u.u.u.u.u.u.u.u.u.u.u.u.u.u.u.u.u.u.u.u.u.u.u.u.u.u.u.",
"u.u.u.u.u.u.u.u.u.u.u.u.u.u.u.u.u.u.u.u.u.u.u.u.u.u.u.u.u.u.u.u.u.u.u.H.,.q .X3XhXlX-XP t @ : S.u.u.u.u.u.u.u.u.u.u.u.u.u.u.u.u.u.u.u.u.u.u.u.u.u.u.u.u.u.u.u.u.",
"u.u.u.u.u.u.u.u.u.u.u.u.u.u.u.u.u.u.u.u.u.u.u.u.u.u.u.u.u.u.u.u.u.u.u.u.A.1 u 3XbXCXBX{.;   -.H.u.u.u.u.u.u.u.u.u.u.u.u.u.u.u.u.u.u.u.u.u.u.u.u.u.u.u.u.u.u.u.u.",
"u.u.u.u.u.u.u.u.u.u.u.u.u.u.u.u.u.u.u.u.u.u.u.u.u.u.u.u.u.u.u.u.u.u.u.u.i.h.R lXCXBXX.'.7 A K.y.u.u.u.u.u.u.u.u.u.u.u.u.u.u.u.u.u.u.u.u.u.u.u.u.u.u.u.u.u.u.u.u.",
"u.u.u.u.u.u.u.u.u.u.u.u.u.u.u.u.u.u.u.u.u.u.u.u.u.u.u.u.u.u.u.u.u.u.u.u.D.cXrXbXBX<X!.{ v D v.u.u.u.u.u.u.u.u.u.u.u.u.u.u.u.u.u.u.u.u.u.u.u.u.u.u.u.u.u.u.u.u.u.",
"u.u.u.u.u.u.u.u.u.u.u.u.u.u.u.u.u.u.u.u.u.u.u.u.u.u.u.u.u.u.u.u.u.u.Z.q.~.Q.yXBX,XmXNX@.F 1.6.i.u.u.u.u.u.u.u.u.u.u.u.u.u.u.u.u.u.u.u.u.u.u.u.u.u.u.u.u.u.u.u.u.",
"u.u.u.u.u.u.u.u.u.u.u.u.u.u.u.u.u.u.u.u.u.u.u.u.u.u.u.u.u.u.u.u.u.u.u.u.D.F.uX4X<X$XoX@.B b.D.u.u.u.u.u.u.u.u.u.u.u.u.u.u.u.u.u.u.u.u.u.u.u.u.u.u.u.u.u.u.u.u.u.",
"u.u.u.u.u.u.u.u.u.u.u.u.u.u.u.u.u.u.u.u.u.u.u.u.u.u.u.u.u.u.u.u.u.u.u.u.u.Z.jX4X..u u B i 5.i.u.u.u.u.u.u.u.u.u.u.u.u.u.u.u.u.u.u.u.u.u.u.u.u.u.u.u.u.u.u.u.u.u.",
"u.u.u.u.u.u.u.u.u.u.u.u.u.u.u.u.u.u.u.u.u.u.u.u.u.u.u.u.u.u.u.u.u.u.u.u.u.D.hX-XP P P i e 6.i.y.u.u.u.u.u.u.u.u.u.u.u.u.u.u.u.u.u.u.u.u.u.u.u.u.u.u.u.u.u.u.u.u.",
"u.u.u.u.u.u.u.u.u.u.u.u.u.u.u.u.u.u.u.u.u.u.u.u.u.u.u.u.u.u.u.u.u.u.u.u.u.l.3X'. . .i i w >.i.y.u.u.u.u.u.u.u.u.u.u.u.u.u.u.u.u.u.u.u.u.u.u.u.u.u.u.u.u.u.u.u.u.",
"u.u.u.u.u.u.u.u.u.u.u.u.u.u.u.u.u.u.u.u.u.u.u.u.u.u.u.u.u.u.u.u.u.u.u.u.u.V.-X'.{. .i i r D H.y.u.u.u.u.u.u.u.u.u.u.u.u.u.u.u.u.u.u.u.u.u.u.u.u.u.u.u.u.u.u.u.u.",
"u.u.u.u.u.u.u.u.u.u.u.u.u.u.u.u.u.u.u.u.u.u.u.u.u.u.u.u.u.u.u.u.u.u.u.u.u.b.#X'.X.P u u r D H.u.u.u.u.u.u.u.u.u.u.u.u.u.u.u.u.u.u.u.u.u.u.u.u.u.u.u.u.u.u.u.u.u.",
"u.u.u.u.u.u.u.u.u.u.u.u.u.u.u.u.u.u.u.u.u.u.u.u.u.u.u.u.u.u.u.u.u.u.u.u.u.k.XX{...P u p r %.H.u.u.u.u.u.u.u.u.u.u.u.u.u.u.u.u.u.u.u.u.u.u.u.u.u.u.u.u.u.u.u.u.u.",
"u.u.u.u.u.u.u.u.u.u.u.u.u.u.u.u.u.u.u.u.u.u.u.u.u.u.u.u.u.u.u.u.u.u.u.u.u.l.+X ...P u e w &.H.y.u.u.u.u.u.u.u.u.u.u.u.u.u.u.u.u.u.u.u.u.u.u.u.u.u.u.u.u.u.u.u.u.",
"u.u.u.u.u.u.u.u.u.u.u.u.u.u.u.u.u.u.u.u.u.u.u.u.u.u.u.u.u.u.u.u.u.u.u.u.u.S.@X ...P u e w 5.i.y.u.u.u.u.u.u.u.u.u.u.u.u.u.u.u.u.u.u.u.u.u.u.u.u.u.u.u.u.u.u.u.u.",
"u.u.u.u.u.u.u.u.u.u.u.u.u.u.u.u.u.u.u.u.u.u.u.u.u.u.u.u.u.u.u.u.u.u.u.u.u.Z.8X{...P t e u f.u.u.u.u.u.u.u.u.u.u.u.u.u.u.u.u.u.u.u.u.u.u.u.u.u.u.u.u.u.u.u.u.u.u.",
"u.u.u.u.u.u.u.u.u.u.u.u.u.u.u.u.u.u.u.u.u.u.u.u.u.u.u.u.u.u.u.u.u.u.u.u.u.i.tX'...v t w M A.u.u.u.u.u.u.u.u.u.u.u.u.u.u.u.u.u.u.u.u.u.u.u.u.u.u.u.u.u.u.u.u.u.u.",
"u.u.u.u.u.u.u.u.u.u.u.u.u.u.u.u.u.u.u.u.u.u.u.u.u.u.u.u.u.u.u.u.u.u.u.u.u.e.n.[.T x t w S H.u.u.u.u.u.u.u.u.u.u.u.u.u.u.u.u.u.u.u.u.u.u.u.u.u.u.u.u.u.u.u.u.u.u.",
"u.u.u.u.u.u.u.u.u.u.u.u.u.u.u.u.u.u.u.u.u.u.u.u.u.u.u.u.u.u.u.u.u.u.u.u.u.u.B.%XT J u w %.H.u.u.u.u.u.u.u.u.u.u.u.u.u.u.u.u.u.u.u.u.u.u.u.u.u.u.u.u.u.u.u.u.u.u.",
"u.u.u.u.u.u.u.u.u.u.u.u.u.u.u.u.u.u.u.u.u.u.u.u.u.u.u.u.u.u.u.u.u.u.u.u.u.u.l.&XT v t w &.i.y.u.u.u.u.u.u.u.u.u.u.u.u.u.u.u.u.u.u.u.u.u.u.u.u.u.u.u.u.u.u.u.u.u.",
"u.u.u.u.u.u.u.u.u.u.u.u.u.u.u.u.u.u.u.u.u.u.u.u.u.u.u.u.u.u.u.u.u.u.u.u.u.u.A.*X_.U t e 4.i.y.u.u.u.u.u.u.u.u.u.u.u.u.u.u.u.u.u.u.u.u.u.u.u.u.u.u.u.u.u.u.u.u.u.",
"u.u.u.u.u.u.u.u.u.u.u.u.u.u.u.u.u.u.u.u.u.u.u.u.u.u.u.u.u.u.u.u.u.u.u.u.u.u.S.0X%X_.P e 5.i.u.u.u.u.u.u.u.u.u.u.u.u.u.u.u.u.u.u.u.u.u.u.u.u.u.u.u.u.u.u.u.u.u.u.",
"u.u.u.u.u.u.u.u.u.u.u.u.u.u.u.u.u.u.u.u.u.u.u.u.u.u.u.u.u.u.u.u.u.u.u.u.u.u.G.0X[._.P e 5.i.u.u.u.u.u.u.u.u.u.u.u.u.u.u.u.u.u.u.u.u.u.u.u.u.u.u.u.u.u.u.u.u.u.u.",
"u.u.u.u.u.u.u.u.u.u.u.u.u.u.u.u.u.u.u.u.u.u.u.u.u.u.u.u.u.u.u.u.u.u.u.u.u.u.S.0X[..XP 8 5.i.u.u.u.u.u.u.u.u.u.u.u.u.u.u.u.u.u.u.u.u.u.u.u.u.u.u.u.u.u.u.u.u.u.u.",
"u.u.u.u.u.u.u.u.u.u.u.u.u.u.u.u.u.u.u.u.u.u.u.u.u.u.u.u.u.u.u.u.u.u.u.u.u.u.S.0X-X.XP 8 5.i.u.u.u.u.u.u.u.u.u.u.u.u.u.u.u.u.u.u.u.u.u.u.u.u.u.u.u.u.u.u.u.u.u.u.",
"u.u.u.u.u.u.u.u.u.u.u.u.u.u.u.u.u.u.u.u.u.u.u.u.u.u.u.u.u.u.u.u.u.u.u.u.u.u.Z.0X-X.XY 8 5.i.u.u.u.u.u.u.u.u.u.u.u.u.u.u.u.u.u.u.u.u.u.u.u.u.u.u.u.u.u.u.u.u.u.u.",
"u.u.u.u.u.u.u.u.u.u.u.u.u.u.u.u.u.u.u.u.u.u.u.u.u.u.u.u.u.u.u.u.u.u.u.u.u.u.S.qX-X_.P 8 ;.i.u.u.u.u.u.u.u.u.u.u.Z.u.u.u.u.u.u.u.u.u.u.u.u.u.u.u.u.u.u.u.u.u.u.u.",
"u.u.u.u.u.u.u.u.u.u.u.u.u.u.u.u.u.u.u.u.u.u.u.u.u.u.u.u.u.u.u.u.u.u.u.u.u.u.D.:X%X_.Y 8 -.i.y.u.u.u.u.u.u.u.Z.cX9Xx.u.u.u.u.u.u.u.u.u.u.u.u.u.u.u.u.u.u.u.u.u.u.",
"u.u.u.u.u.u.u.u.u.u.u.u.u.u.u.u.u.u.u.u.u.u.u.u.u.u.u.u.u.u.u.u.u.u.u.u.u.u.V.:X%X_.Y 8 &.i.y.u.u.u.u.u.u.q.cX:Xh f A.u.u.u.u.u.u.u.u.u.u.u.u.u.u.u.u.u.u.u.u.u.",
"u.u.u.u.u.u.u.u.u.u.u.u.u.u.u.u.u.u.u.u.u.u.u.u.u.u.u.u.u.u.u.u.u.u.u.u.u.u.B.=X%X_.T 0 $.H.y.u.u.u.u.u.u.P.wXK & % ;.i.u.u.u.u.u.u.u.u.u.u.u.u.u.u.u.u.u.u.u.u.",
"u.u.u.u.u.u.u.u.u.u.u.u.u.u.u.u.u.u.u.u.S.D.u.u.u.u.u.u.u.Z.P.Z.u.u.u.u.u.e.n.-XoXE T u k J.y.u.u.u.u.u.u.pXE 1 6.< k J.y.Z.u.u.u.u.u.u.u.u.u.u.u.u.u.u.u.u.u.u.",
"u.u.u.u.u.u.u.u.u.u.u.u.u.u.u.u.u.u.u.i.4.~ k.u.u.u.u.u.u.cXdXyXu.u.u.u.u.e.yX-XoXE T u f J.u.u.u.u.u.u.P.wX9 #.U.H : C.u.v.Z.u.u.u.u.u.u.u.u.u.u.u.u.u.u.u.u.u.",
"u.u.u.u.u.u.u.u.u.u.u.u.u.u.u.u.u.u.u.Z.G <.%.Z.u.u.u.u.C.8X=X1Xn.q.u.u.u.Z.9X2XXXE ..u : C.u.u.u.u.u.q.pXE 1 h.i.c.< ;.p.m.C.u.u.u.u.u.u.u.u.u.u.u.u.u.u.u.u.u.",
"u.u.u.u.u.u.u.u.u.u.u.u.u.u.u.u.u.u.u.Z.W.m.S h.u.u.u.u.k.z OXfX8XC.u.u.u.A.0X-XL J oXJ * h.i.u.u.u.u.Z.eXJ #.J.y.J.G 2 F.9.Z.u.u.u.u.u.u.u.u.u.u.u.u.u.u.u.u.u.",
"u.u.u.u.u.u.u.u.u.u.u.u.u.u.u.u.u.u.Z.u.m.N.~ 5.i.y.y.i.g.t M dXoXg.i.u.u.M.=X%XR _.oXJ @ ;.i.y.u.u.u.A.wXu -.i.y.u.l.H %.g.u.u.u.u.u.u.u.u.u.u.u.u.u.u.u.u.u.u.",
"u.u.u.u.u.u.u.u.u.u.u.u.u.u.u.u.u.u.q.q.q.H.~ >.i.u.G.i.5.y B *X_.4.i.y.u.n.%X=X%XXXXXE @ %.J.y.u.u.u.A.@X0 0.H.u.u.u.G.z.e.u.u.u.u.u.u.u.u.u.u.u.u.u.u.u.u.u.u.",
"u.u.u.u.u.u.u.u.u.u.u.u.u.u.u.u.u.Z.M.B.B.J.3.] F.yXeXB.4.y G rXT %.H.y.Z.tX=X>XXX}. X}.; f J.u.u.u.u.S.@X0 0.H.y.u.G.B.7Xn.D.u.u.u.u.u.u.u.u.u.u.u.u.u.u.u.u.u.",
"u.u.u.u.u.u.u.u.u.u.u.u.u.u.u.u.P.pX0X@XOXtXE.~ 8.L %XeX,.i *.9XY D H.u.A.0X=XdX/.( &X Xx - z.u.u.u.u.Z.8X0 $.J.u.D.uX:X*X+X0Xn.u.u.u.u.u.u.u.u.u.u.u.u.u.u.u.u.",
"u.u.u.u.u.u.u.u.u.u.u.u.u.u.u.D.sXO.S n n U O.W 1 1 @XwX>.i T.3.P S H.q.m. XqXhX( ( +X&XL * ;.i.u.u.u.Z.8Xu k H.C.uX>X' / ! / |.c.u.u.u.u.u.u.u.u.u.u.u.u.u.u.u.",
"u.u.u.u.u.u.u.u.u.u.u.u.u.u.u.yXaXf 1 > & m ( K , Y.tX,XS [ 1.3.Y S Z.u.tX|.jXwXI I +X=X^ * k J.y.u.u.Z.8Xu k p.6X1XO.s : : j M <.Z.u.u.u.u.u.u.u.u.u.u.u.u.u.u.",
"u.u.u.u.u.u.u.u.u.u.u.u.u.u.G.9XN , *.6.C M OX^ i 6.9.,Xm { Q.3.Y S Z.C.8X(.jX;XL n ;X>X(.9 - z.u.u.u.Z.eXu #.F.wX$Xj z 1.6.C s N z.u.u.u.u.u.u.u.u.u.u.u.u.u.u.",
"u.u.u.u.u.u.u.u.u.u.u.u.u.u.D.~ 6 6.J.i.v.F ) /.| z.9.1Xm i 7.3.T S i.m.+X` jXOXc d OXdX Xg + &.H.y.u.S.wXa $.cX,X/ z v.p.p.7.V d s.i.u.u.u.u.u.u.u.u.u.u.u.u.u.",
"u.u.u.u.u.u.u.u.u.u.u.u.u.u.l.n y 7.i.y.i.>.! ) OXS.g.*XM [ f.3.`.W S.tX|.@XjX( 9 - / :X XL * d z.i.w.I.dXu ,.gX*Xn =.H.y.u.x.| d s.i.u.u.u.u.u.u.u.u.u.u.u.u.u.",
"u.u.u.u.u.u.u.u.u.u.u.u.u.u.A.f y W.i.y.u.j.! ` E 8.A.Q t { D.8.2XqX9XqX) wXwX( = f Q ;X+XR q 9 D N.cXeX/.= 2.>X_ 1 f.u.C.u.b.$Xd s.i.u.u.u.u.u.u.u.u.u.u.u.u.u.",
"u.Z.u.u.u.u.Z.u.u.Z.i.u.Z.u.S.l t o.i.u.u.Z.*._ (.) M.-.C 7.p.7.(.OX:X;X` jX&XL = d.2.XX+X^ = g 9 h R J = b >X@XM #.S.u.Z.q.N.$Xd s.i.u.u.q.u.u.u.u.u.u.u.u.u.u.",
"z.c.A.u.u.u.u.I.yXtXyXS.u.Z.H.,.8 o.Z.u.u.u.d.! ` ( @XN.L.S.F.n.@XqXhX_ *XhX( 0 1 J.<.}.(.( 9 9 I = % * c >X;X_ d h.u.u.Z.q.~.#Xd h.u.q.P.7XZ.u.u.u.u.u.u.Z.Z.u.",
";.t.S.u.Z.q.P.R.M N ^ 9XD.q.i.5.: F D.u.u.u.G.D Q ` /.@X9X9XwX=X&X;XOXW jX>XI ; k K.,.E |.( c * ( }.E |.>X;XO.b k J.u.u.u.u.L.o.s h.e.B.eX@X9.u.u.u.u.u.Z.N.c.C.",
"-.t.i.C.q.S.3.f -.;.Z U 9XD.r.k.s C l.u.u.u.u.g.N ! / R ^.^.}.}./.( n / >X}.J * ;.p.4.U |. X=Xc c (  X X|.O.W 1 j.u.u.u.u.u.F.o.s h.7XjXQ d m v.u.y.u.u.Z.Z.t.5.",
"s.&.S.q.H.9.z d.J.i.j.S I rXB.pXb H J.u.q.u.u.H.D s Q K L I I I L M / qXE U 9 1 S.u.h.M |.dX1XdXOXK K Q Q m * ;.p.G.S.u.u.u.G.o.h 8XgXI A f.f ] F.H.H.u.u.i.x.7.",
"H.&.1.I.Q.N ;.H.y.y.i.k.S K ;X+X9 :.i.u.P.pXtXM.A.%.d s h g g d K *X=XE v 9 + $.J.y.H.%.) *X:X1XdXwX) N d & =.H.B.iXuXcXZ.u.i.7.b ^ K Z z.p.5.s 2.tX9.n.n.m.8.k.",
"u.z.<.E.D -.H.y.u.u.u.i.x.S W N D F.q.D.gX|.v S l.K.=.% - 2 d ) :X/.J 9 = $ & C.u.u.i.5.K ).@X=X1XfXfXwXv *.K.cXwX*XqX1XtXu.u.S.%.d A l.u.y.G.%.S D D ~ <.*.x.i.",
"u.u.G.C.C.S.u.u.u.u.u.u.u.D.l.k.A.u.G.uXXXj - $ %.H.C.t.x.yXqX+XU x q * % . $.H.y.u.u.C.S M ` OX*X:XdXfXfXgXvX8X_ ' O.wX&Xm.u.u.G.k.A.u.u.u.u.S.D.A.A.C.C.A.Z.u.",
"u.u.u.u.u.u.u.u.u.u.u.u.u.u.u.u.u.u.cX3XM % $ X & j.F.cXeX XR v 9 = * $   2 F.u.u.u.u.u.5.Z n / O.OX=X:X1XfX@XW j f m rX>X8XG.u.u.u.u.u.u.u.u.u.u.u.u.u.u.u.u.u.",
"u.u.u.u.u.u.u.u.u.u.u.u.u.u.u.u.u.D.eXQ & Z z > o A uXXXR v 9 = * $ X X 6 j.u.u.u.u.u.y.p.g.d d b K _ OX@XOXW 1 : , Z ! aXXXm.i.Z.u.u.q.u.u.u.u.u.u.u.u.u.u.u.u.",
"u.u.u.u.u.u.u.u.u.u.u.u.u.u.u.u.u.yXoX= 4 U.<.y O % n v g = * $ . . A d.A.i.u.u.u.u.u.u.u.Z.D.5.A z d m Q W d : y *.F.D O.;X8XG.u.u.P.B.Z.u.u.u.u.u.u.u.u.u.u.u.",
"u.u.u.u.u.u.u.u.u.u.u.u.u.u.u.u.P.0Xh - f.i.c.{ < X * = * $ . & k &.S.i.u.u.u.u.u.u.u.u.u.u.u.Z.K.j.&.f d : > y G A.i.x.! 8XXXc.e.M.E.R.9.u.u.u.u.u.u.u.u.u.u.u.",
"u.u.u.u.u.u.u.u.u.u.u.u.u.u.u.i.pX( & -.J.q.A.F y % O + . & Z f.K.H.u.u.u.u.u.u.u.u.u.u.u.u.u.u.y.u.J.l.s.&.G Y.F.u.y.H.4.o.$X2.F.6.F ~ o.j.u.u.u.u.u.u.u.u.u.u.",
"u.u.u.u.u.u.u.u.u.u.u.u.u.u.q.M.$X9 4 F.u.u.u.b.V > X 1 A f.K.u.y.y.u.u.u.u.u.u.u.u.u.u.u.u.u.u.u.u.y.u.i.J.F.S.u.y.u.u.A.<.R.OX8.G } <.T.1.Z.u.u.u.u.u.u.u.u.u.",
"u.u.u.u.u.u.u.u.u.u.u.u.u.q.Z.9XU & s.i.u.u.u.u.c.:.;.A.K.u.u.u.u.u.u.u.u.u.u.u.u.u.u.u.u.u.u.u.u.u.u.u.u.u.u.u.u.u.u.u.i.j.! ' D +.+.l.c.o.g.u.u.u.u.u.u.u.u.u.",
"u.u.u.u.u.u.u.u.u.u.H.u.q.S.yXO.- &.H.u.u.u.u.u.u.i.i.u.y.u.u.u.u.u.u.u.u.u.u.u.u.u.u.u.u.u.u.u.u.u.u.u.u.u.u.u.u.u.u.u.u.H.4.z } { W.i.Z.E.>.Z.u.u.u.u.u.u.u.u.",
"u.u.u.u.u.u.u.u.u.v.7.c.N.tXQ - 4 J.u.u.u.u.u.u.u.y.u.u.u.u.u.u.u.u.u.u.u.u.u.u.u.u.u.u.u.u.u.u.u.u.u.u.u.u.u.u.u.u.u.u.u.u.S.6.T.T.l.u.u.b.o.s.i.u.u.u.u.u.u.u.",
"u.u.u.u.u.u.u.u.v.A 3 3 l 2 & 2 D.u.u.u.u.u.u.u.u.u.u.u.u.u.u.u.u.u.u.u.u.u.u.u.u.u.u.u.u.u.u.u.u.u.u.u.u.u.u.u.u.u.u.u.u.u.u.i.Z.S.u.u.u.Z.Q.<.k.H.u.u.u.u.u.u.",
"u.u.u.u.u.u.u.F.D #.f.A 3 5 -.l.u.u.u.u.u.u.u.u.u.u.u.u.u.u.u.u.u.u.u.u.u.u.u.u.u.u.u.u.u.u.u.u.u.u.u.u.u.u.u.u.u.u.u.u.u.u.u.u.u.u.u.u.u.u.S.6.<.7.k.Z.u.u.u.u.",
"u.u.u.u.u.u.K.&.4 A.i.D.l.F.H.u.u.u.u.u.u.u.u.u.u.u.u.u.u.u.u.u.u.u.u.u.u.u.u.u.u.u.u.u.u.u.u.u.u.u.u.u.u.u.u.u.u.u.u.u.u.u.u.u.u.u.u.u.u.u.u.G.x.7.6.c.C.u.u.u.",
"u.u.u.u.Z.D.-.5 s.u.y.u.u.u.y.u.u.u.u.u.u.u.u.u.u.u.u.u.u.u.u.u.u.u.u.u.u.u.u.u.u.u.u.u.u.u.u.u.u.u.u.u.u.u.u.u.u.u.u.u.u.u.u.u.u.u.u.u.u.u.u.u.u.H.Z.C.Z.u.u.u.",
"u.u.u.x.7.$.#.k.i.u.u.u.u.u.u.u.u.u.u.u.u.u.u.u.u.u.u.u.u.u.u.u.u.u.u.u.u.u.u.u.u.u.u.u.u.u.u.u.u.u.u.u.u.u.u.u.u.u.u.u.u.u.u.u.u.u.u.u.u.u.u.u.u.u.u.u.u.u.u.u.",
"u.u.u.l.j.h.F.u.u.u.u.u.u.u.u.u.u.u.u.u.u.u.u.u.u.u.u.u.u.u.u.u.u.u.u.u.u.u.u.u.u.u.u.u.u.u.u.u.u.u.u.u.u.u.u.u.u.u.u.u.u.u.u.u.u.u.u.u.u.u.u.u.u.u.u.u.u.u.u.u.",
"u.u.u.u.u.u.u.u.u.u.u.u.u.u.u.u.u.u.u.u.u.u.u.u.u.u.u.u.u.u.u.u.u.u.u.u.u.u.u.u.u.u.u.u.u.u.u.u.u.u.u.u.u.u.u.u.u.u.u.u.u.u.u.u.u.u.u.u.u.u.u.u.u.u.u.u.u.u.u.u."
};
