/* XPM */
static char *a1uim_bn6sq[] = {
/* columns rows colors chars-per-pixel */
"80 80 234 2 ",
"   c #141C1A",
".  c #1B1B1B",
"X  c #141617",
"o  c #0C1A16",
"O  c #3A1C1D",
"+  c #251A1B",
"@  c #16231E",
"#  c #1A211F",
"$  c #3E201C",
"%  c #291D23",
"&  c #221B21",
"*  c #331820",
"=  c #1C2421",
"-  c #1D2824",
";  c #242324",
":  c #2A2426",
">  c #222A27",
",  c #242D29",
"<  c #2B2A2A",
"1  c #2B2728",
"2  c #3A2129",
"3  c #362327",
"4  c #24302B",
"5  c #2C3732",
"6  c #393837",
"7  c #373032",
"8  c #46271E",
"9  c #542D1B",
"0  c #5E3319",
"q  c #4C331D",
"w  c #66361E",
"e  c #5E1F34",
"r  c #711A37",
"t  c #46252B",
"y  c #583824",
"u  c #4A2B34",
"i  c #4F2131",
"p  c #5B2336",
"a  c #552535",
"s  c #4B3338",
"d  c #513137",
"f  c #532C22",
"g  c #653B26",
"h  c #6D233C",
"j  c #642238",
"k  c #76213E",
"l  c #713631",
"z  c #3C413C",
"x  c #5A431C",
"c  c #7C471E",
"v  c #5C402F",
"b  c #6C4526",
"n  c #79472A",
"m  c #6F4C35",
"M  c #283F52",
"N  c #593941",
"B  c #7A2642",
"V  c #693342",
"C  c #732C44",
"Z  c #2A4152",
"A  c #5C5C5A",
"S  c #4B4B49",
"D  c #764855",
"F  c #6D514C",
"G  c #64605D",
"H  c #7D6359",
"J  c #6B6965",
"K  c #7A7B75",
"L  c #6E6D69",
"P  c #9C373A",
"I  c #8B3D34",
"U  c #A13D38",
"Y  c #88153E",
"T  c #924F1C",
"R  c #A85B1E",
"E  c #864929",
"W  c #964E2B",
"Q  c #875624",
"!  c #975928",
"~  c #8C5C38",
"^  c #AC4D37",
"/  c #B15633",
"(  c #936532",
")  c #A8632B",
"_  c #B76A31",
"`  c #CC7628",
"'  c #961C45",
"]  c #BE154E",
"[  c #B1184C",
"{  c #862545",
"}  c #97254B",
"|  c #942E4F",
" . c #A4244C",
".. c #B73446",
"X. c #A72550",
"o. c #B32152",
"O. c #BA2556",
"+. c #B1304E",
"@. c #BB3D65",
"#. c #C91754",
"$. c #DB1A5B",
"%. c #EC155E",
"&. c #EB185F",
"*. c #E2175C",
"=. c #CB215B",
"-. c #C52356",
";. c #D4225D",
":. c #DA215E",
">. c #D82D58",
",. c #CD3551",
"<. c #D13351",
"1. c #CC364F",
"2. c #E4245E",
"3. c #DD1F60",
"4. c #E71E62",
"5. c #EA1E63",
"6. c #EE1864",
"7. c #F31E66",
"8. c #F61E68",
"9. c #F91D68",
"0. c #DD2160",
"q. c #DF2B67",
"w. c #C83364",
"e. c #DA396E",
"r. c #E52162",
"t. c #EA2164",
"y. c #E22B68",
"u. c #F32067",
"i. c #F42068",
"p. c #F92169",
"a. c #E63570",
"s. c #875551",
"d. c #BD4743",
"f. c #8C6757",
"g. c #AE7A53",
"h. c #A45164",
"j. c #86726C",
"k. c #A46D66",
"l. c #D44774",
"z. c #CB557B",
"x. c #CF4F78",
"c. c #E24376",
"v. c #D38730",
"b. c #88847E",
"n. c #9A8375",
"m. c #B38D76",
"M. c #C2987B",
"N. c #707982",
"B. c #BB758A",
"V. c #D26A89",
"C. c #E85C87",
"Z. c #7F8B96",
"A. c #8E8A85",
"S. c #898584",
"D. c #918D8A",
"F. c #97928C",
"G. c #959291",
"H. c #9A9694",
"J. c #9D9A96",
"K. c #9E9B99",
"L. c #889090",
"P. c #B28A93",
"I. c #A29D9B",
"U. c #A99899",
"Y. c #AE908F",
"T. c #9CA39B",
"R. c #A5A19E",
"E. c #A9A39C",
"W. c #A6A4A0",
"Q. c #A9A5A2",
"!. c #A3AAA3",
"~. c #ADAAA5",
"^. c #A6ABA9",
"/. c #B1AEA9",
"(. c #B7ABA7",
"). c #ACB5A9",
"_. c #B3B2AC",
"`. c #B9B5AE",
"'. c #B6B9AE",
"]. c #BBB7B1",
"[. c #BDBAB3",
"{. c #B8B9B6",
"}. c #A3B2BB",
"|. c #939BA3",
" X c #C4948E",
".X c #CEAB91",
"XX c #C1B8AF",
"oX c #C2BDB5",
"OX c #C4BFB8",
"+X c #CABEB3",
"@X c #D0B3AB",
"#X c #E8BFA1",
"$X c #DD97A7",
"%X c #BCC2B7",
"&X c #C6C1BA",
"*X c #CBC4BB",
"=X c #CFC8BE",
"-X c #C6C2B8",
";X c #D0C9BF",
":X c #D0C7BC",
">X c #E9D2BB",
",X c #BAC7CE",
"<X c #C9CAC2",
"1X c #D3CCC2",
"2X c #D9CFC6",
"3X c #CCD3CA",
"4X c #D6D1C6",
"5X c #DAD2C7",
"6X c #DCD5C9",
"7X c #DED9CC",
"8X c #D5D9CC",
"9X c #D8D9D7",
"0X c #E2DACD",
"qX c #E3D7C9",
"wX c #E5DED1",
"eX c #F6C2CC",
"rX c #E4E0D2",
"tX c #EBE4D5",
"yX c #EEE6D9",
"uX c #EEE9D9",
"iX c #F0E7D6",
"pX c #F1E8D7",
"aX c #F4ECDB",
"sX c #F8EDDB",
"dX c #F7F0DE",
"fX c #F8F1DF",
"gX c #F6EFE1",
"hX c #FAF3E2",
"jX c #FFF9E6",
"kX c #FFFCEA",
"lX c #F7F2E6",
"zX c #FFFFF6",
"xX c #FFFFFD",
"cX c #ECF3E0",
/* pixels */
"5.5.5.5.5.5.5.5.5.5.5.5.5.5.5.5.5.5.5.5.5.5.5.5.5.5.5.5.5.5.5.5.5.5.5.5.5.5.5.5.5.5.5.5.5.5.5.5.5.5.5.5.5.7.X.:.5.5.5.5.5.5.5.5.5.5.5.5.5.5.5.5.5.5.5.5.5.5.5.5.",
"5.5.5.5.5.5.5.5.5.5.5.5.5.5.5.5.5.5.5.5.5.5.5.5.5.5.5.5.5.5.5.5.5.5.5.5.5.5.5.5.5.5.5.5.5.5.5.5.5.5.5.4.7.-.2 0.5.5.5.5.5.5.5.5.5.5.5.5.5.5.5.5.5.5.5.5.5.5.5.5.",
"5.5.5.5.5.5.5.5.5.5.5.5.5.5.5.5.5.5.5.5.5.5.5.5.5.5.5.5.5.5.5.5.5.5.5.5.5.5.5.5.5.5.5.5.5.5.5.5.5.5.5.5.5.a 1 0.5.5.5.5.5.5.5.5.5.5.5.5.5.5.5.5.5.5.5.5.5.5.5.5.",
"5.5.5.5.5.5.5.5.5.5.5.5.5.5.5.5.5.5.5.5.5.5.4.4.5.5.4.5.4.5.5.5.5.5.5.5.5.5.5.5.5.5.5.5.5.5.5.5.5.5.4.7.} 4 1 ;.5.5.5.5.5.5.5.5.5.5.5.5.5.5.5.5.5.5.5.5.5.5.5.5.",
"5.5.5.5.5.5.5.5.5.5.5.5.5.5.5.5.5.5.5.5.5.5.7.8.7.u.7.7.7.5.5.5.5.5.5.5.5.5.5.5.5.5.5.5.5.5.5.5.5.4.7.=.s , : ;.5.5.5.5.5.5.5.5.5.5.5.5.5.5.5.5.5.5.5.5.5.5.5.5.",
"5.5.5.5.5.5.5.5.5.5.5.5.5.5.5.5.5.5.5.5.5.t.O.} k h B { } ;.7.5.5.5.5.5.5.5.5.5.5.5.5.5.5.5.5.5.5.5.5.V 5 ; 3 :.5.5.5.5.5.5.5.5.5.5.5.5.5.5.5.5.5.5.5.5.5.5.5.5.",
"5.5.5.5.5.5.5.5.5.5.5.5.5.5.5.5.5.5.5.5.t.j = - - - - - - % O.i.4.5.5.5.5.5.5.5.5.5.5.5.5.5.5.5.4.7.} 5 : = 3 0.5.5.5.5.5.5.5.5.5.5.5.5.5.5.5.5.5.5.5.5.5.5.5.5.",
"5.5.5.5.5.5.5.5.5.5.5.5.5.5.5.5.5.5.4.i.B o < & ; < 1 1 & 4 t $.5.5.5.5.5.5.5.5.5.5.5.5.5.5.5.5.7.-.6 < ; = 2 r.5.5.5.5.5.5.5.5.5.5.5.5.5.5.5.5.5.5.5.5.5.5.5.5.",
"5.5.5.5.5.5.5.5.5.5.5.5.5.5.5.5.5.5.u.#.< R.wXI.7 . . X A 5X).} 7.5.5.5.5.5.5.5.5.5.5.5.5.5.5.5.4.N 5 ; ; = t 5.5.5.5.5.5.5.5.5.5.5.5.5.5.5.5.5.5.5.5.5.5.5.5.5.",
"5.5.5.5.5.5.5.5.5.5.5.5.5.5.5.5.5.5.i.e ).xXdXjX=Xb.F.F.4X6XwXY.$.t.5.5.5.5.5.5.5.5.5.5.5.5.5.7.{ 5 ; ; ; = a 7.5.5.5.5.5.5.5.5.5.5.5.5.5.5.5.5.5.5.5.5.5.5.5.5.",
"5.5.5.5.5.5.5.5.5.5.5.5.5.5.5.5.5.u.#.J xXsXaXyXyXyXtXtX=X=X5X_.w.7.5.5.5.5.5.5.5.5.5.5.5.5.7.o.5 1 ; ; ; @ k 8.5.5.5.5.5.5.5.5.5.5.5.5.5.5.5.5.5.5.5.5.5.5.5.5.",
"5.5.5.5.5.5.5.5.5.5.5.5.5.5.5.5.4.p.Y !.zXgXdXpX0X6X5X5X=X1X2X%Xh.%.t.5.5.5.5.5.5.5.5.5.5.5.3.s , ; ; ; ; #  .7.4.5.5.5.5.5.5.5.5.5.5.5.5.5.5.5.5.5.5.5.5.5.5.5.",
"5.5.5.5.5.5.5.5.5.5.5.5.5.5.5.5.5.7.p <XkXhXhX0X0XqX6X1XXX`.1X&Xj.*.5.5.5.5.5.5.5.5.5.5.5.7.h > ; ; ; ; ; : $.5.5.5.5.5.5.5.5.5.5.5.5.5.5.5.5.5.5.5.5.5.5.5.5.5.",
"5.5.5.5.5.5.5.5.5.5.5.5.5.5.5.5.5.*.u rXjXlX7X<XOX0XqX=XW.OXOX*XJ ] 7.5.5.5.5.5.5.5.5.4.7. .# ; ; ; ; ; - j 7.4.5.5.5.5.5.5.5.5.5.5.5.5.5.5.5.5.5.5.5.5.5.5.5.5.",
"5.5.5.5.5.5.5.5.5.5.5.5.5.5.5.5.7.=.. ].kXpX3X,X<X5X6XXX9X}.W.*XK ' 9.4.5.5.5.5.5.5.5.7.;.: = ; ; ; ; ; = o.7.4.5.5.5.5.5.5.5.5.5.5.5.5.5.5.5.5.5.5.5.5.5.5.5.5.",
"5.5.5.5.5.5.5.5.5.5.5.5.5.5.5.5.7.o.6 5XhXiX|.M {.qX X+X3XZ N.`.T.C 7.5.5.5.5.5.5.5.5.7.j @ ; ; ; ; ; - t t.5.5.5.5.5.5.5.5.5.5.5.5.5.5.5.5.5.5.5.5.5.5.5.5.5.5.",
"5.5.5.5.5.5.5.5.5.5.5.5.5.5.5.4.9.' A.zXaXaX^.Z._.>X/ .X&XL.L.F.A.F $.t.5.5.5.5.5.4.8.} @ ; ; ; ; ; ; #  .7.4.5.5.5.5.5.5.5.5.5.5.5.5.5.5.5.5.5.5.5.5.5.5.5.5.5.",
"5.5.5.5.5.5.5.5.5.5.5.5.5.5.5.5.i.{ ).pX>X>X.Xm.m._ _ _ g.g.f.b f.A [ i.5.5.5.5.5.7.;.: = ; ; ; ; ; - i t.5.5.5.5.5.5.5.5.5.5.5.5.5.5.5.5.5.5.5.5.5.5.5.5.5.5.5.",
"5.5.5.5.5.5.5.5.5.5.5.5.5.5.5.5.7.C 3X.XT ) _ ` ` ` v.v.E c g 0 j.L r p.4.5.5.5.5.7.e @ ; ; ; ; ; ; ; -.7.4.5.5.5.5.5.5.5.5.5.5.5.5.5.5.5.5.5.5.5.5.5.5.5.5.5.5.",
"5.5.5.5.5.5.5.5.5.5.5.5.5.5.5.5.7.j 8X>XT 8 8 0 n Q ~ ~ y t 8 0 j.S.* r.5.5.5.5.7. .@ ; ; ; ; ; ; @ { 7.4.5.5.5.5.5.5.5.5.5.5.5.5.5.5.5.5.5.5.5.5.5.5.5.5.5.5.5.",
"5.5.5.5.5.5.5.5.5.5.5.5.5.5.5.5.t.N 8XqX) w O + % % % & + O 8 b S.G.- r p.4.4.5.0.2 = ; ; ; ; : @ j u.5.5.5.5.5.5.5.5.5.5.5.5.5.5.5.5.5.5.5.5.5.5.5.5.5.5.5.5.5.",
"5.5.5.5.5.5.5.5.5.5.5.5.5.5.5.5.4.N 7XjXg.T $ $ d d d d 3 O 9 m G.I.6   { i.4.7.{ @ ; ; ; ; : @ p r.5.5.5.5.5.5.5.5.5.5.5.5.5.5.5.5.5.5.5.5.5.5.5.5.5.5.5.5.5.5.",
"5.5.5.5.5.5.5.5.5.5.5.5.5.5.5.5.r.N 7XkX@XR n O u d u N 2 8 w j.K.-XG . = k u.;.: ; ; ; ; ; @ p r.5.4.5.5.5.5.5.5.5.5.5.5.5.5.5.5.5.5.5.5.5.5.5.5.5.5.5.5.5.5.5.",
"5.5.5.5.5.5.5.5.5.5.5.5.5.5.5.5.0.s 7XhXlXM.R c s.k.v F f 0 H G.E.pXE.. 1 @ h h = : ; ; = # B t.5.5.5.5.5.5.5.5.5.5.5.5.5.5.5.5.5.5.5.5.5.5.5.5.5.5.5.5.5.5.5.5.",
"5.5.5.5.5.5.5.5.5.5.5.5.5.5.5.5.0.s 1XhXsXlX@X_ T ) ! E w H G.D.oXfXyX6 ; 1 = # ; 1 1 - 3 X.8.5.5.5.5.5.5.5.5.5.5.5.5.5.5.5.5.5.5.5.5.5.5.5.5.5.5.5.5.5.5.5.5.5.",
"5.5.5.5.5.5.5.5.5.5.5.5.5.5.5.5.r.s -XhXpXaXjXpXY.s.n n H K.F.A.=XdXjXE.. ; 1 ; ; . X e r.7.4.5.5.5.5.5.5.5.5.5.5.5.5.5.5.5.5.5.5.5.5.5.5.5.5.5.5.5.5.5.5.5.5.5.",
"5.5.5.5.5.5.5.5.5.5.5.5.5.5.5.5.t.u _.hXpXsXsXhXgX=XE.H.H.H.D.S.OXfXaXkXE.1 . X & S K s.[ 7.t.4.5.5.5.5.5.5.5.5.5.5.5.5.5.5.5.5.5.5.5.5.5.5.5.5.5.5.5.5.5.5.5.5.",
"5.5.5.5.5.5.5.5.5.5.5.5.5.5.5.5.t.u T.jXiXaXaXaXtX;X~.H.G.D.A.S./.pXfXfXkX6XF.A.A.G./.%Xb.} *.u.4.5.5.5.5.5.5.t.5.5.5.5.5.5.5.5.5.5.5.5.5.5.5.5.5.5.5.5.5.5.5.5.",
"5.5.5.5.5.5.5.5.5.5.5.5.5.5.5.5.t.a b.jXpXsXsXsXpXwX=XI.F.F.A.S.I.yXhXhXsXjXkXjX6XI.G.J.&X-Xh.#.7.5.5.5.5.r.>.6.5.5.5.5.5.5.5.5.5.5.5.5.5.5.5.5.5.5.5.5.5.5.5.5.",
"5.5.5.5.5.5.5.5.5.5.5.5.5.5.5.5.u.p J jXyXsXsXaXaXpXuX5XR.A.G.K.~.yXhXfXhXsXpXpXsX1XR.K.G.~.8XF.] 7.t.5.5.5.d.1.5.5.5.5.5.5.5.5.5.5.5.5.5.5.5.5.5.5.5.5.5.5.5.5.",
"5.5.5.5.5.5.5.5.5.5.5.5.5.5.5.5.7.V S aXpXaXaXpXaXpXpXpX6XW.W.0XtXdXhXhXsXpXaXpXsXfX=XI.I.H.I.8XE.O.7.t.5.6.<.) 1.6.5.5.5.5.5.5.5.5.5.5.5.5.5.5.5.5.5.5.5.5.5.5.",
"5.5.5.5.5.5.5.5.5.5.5.5.5.5.5.5.7.{ 5 6XaXpXpXpXaXpXpXaXfXtX0XhXjXhXhXdXaXpXaXaXsXhXpX].I.I.I.I.4X(.=.5.5.5.r./ ! :.5.5.5.5.5.5.5.5.5.5.5.5.5.5.5.5.5.5.5.5.5.5.",
"5.5.5.5.5.5.5.5.5.5.5.5.5.5.5.4.7. .- (.dXtXpXpXpXaXpXsXsXhXjXhXhXjXhXsXaXaXaXpXsXhXhXwX~.K.R.R.I.<X$X4.5.5.6.1.! U 5.5.5.5.5.5.5.5.5.5.5.5.5.5.5.5.5.5.5.5.5.5.",
"5.5.5.5.5.5.5.5.5.5.5.5.5.5.5.5.7.O.# b.hXtXpXpXaXaXaXsXsXdXhXlXhXhXdXaXaXaXaXaXdXhXgXsX1XR.R.R.R.I.<XV.%.t.5.5.^ Q ..7.5.5.5.5.5.5.5.5.5.5.5.5.5.5.5.5.5.5.5.5.",
"5.5.5.5.5.5.5.5.5.5.5.5.5.5.5.5.5.;.: A aXtXyXpXpXpXaXsXsXfXhXhXhXfXaXaXpXaXpXsXhXsXgXsXyXOXR.R.R.R.Q.*Xc.%.t.6.<.! W ;.7.5.5.5.5.5.5.5.5.5.5.5.5.5.5.5.5.5.5.5.",
"5.5.5.5.5.5.5.5.5.5.5.5.5.5.5.5.5.r.t z tXyXiXpXpXaXaXsXfXhXhXhXhXfXsXpXiXpXaXdXhXhXsXsXaXwX/.R.W.W.R._.@Xy.%.t.5.^ ! P r.5.5.5.5.5.5.5.5.5.5.5.5.5.5.5.5.5.5.5.",
"5.5.5.5.5.5.5.5.5.5.5.5.5.5.5.5.5.5.p > :XpXyXpXpXaXsXsXdXfXhXhXhXsXpXpXaXaXfXhXsXsXaXaXpXyX=XW.W.W.W.W._.+XC.*.5.>.W ! ^ r.5.5.5.5.5.5.5.5.5.5.5.5.5.5.5.5.5.5.",
"5.5.5.5.5.5.5.5.5.5.5.5.5.5.5.5.4.7.h   ~.sXtXpXpXpXaXsXsXhXhXhXhXsXpXpXpXhXfXfXhXsXsXaXyXyXwX`.W.W.W.W.W.1XuX$Xr.6.I E ! ..7.5.5.5.5.5.5.5.5.5.5.5.5.5.5.5.5.5.",
"5.5.5.5.5.5.5.5.5.5.5.5.5.5.5.5.4.8.{ o A.gXtXpXpXaXsXdXfXfXgXhXhXsXpXpXpXdXsXdXfXaXpXpXyXyXtX1X~.W.Q.W.R.`.6XcXeXw.f g ! W :.5.5.5.5.5.5.5.5.5.5.5.5.5.5.5.5.5.",
"5.5.5.5.5.5.5.5.5.5.5.5.5.5.5.5.4.8.} o L aXtXyXpXaXsXdXdXfXdXhXdXdXpXpXpXaXdXsXsXpXpXuXyXtXwX7X[.W.Q.W.R.W.OX6XcX5Xy 9 E ! P 5.5.5.5.5.5.5.5.5.5.5.5.5.5.5.5.5.",
"5.5.5.5.5.5.5.5.5.5.5.5.5.5.5.5.4.7. .  S tXtXyXpXaXaXsXsXdXdXdXfXdXsXaXpXaXpXsXaXpXpXyXyXrX0X7X=X~.W.W.R.R.W.*X5XyXn.9 y b I r.5.5.5.5.5.5.5.5.5.5.5.5.5.5.5.5.",
"5.5.5.5.5.5.5.5.5.5.5.5.5.5.5.5.5.7.o.# 6 5XtXyXpXpXaXpXsXsXdXsXdXhXhXsXsXsXaXaXpXpXyXtXtXwX7X5X1X`.W.W.R.W.R./.;X7X+Xy g  .:.5.5.5.5.5.5.5.5.5.5.5.5.5.5.5.5.5.",
"5.5.5.5.5.5.5.5.5.5.5.5.5.5.5.5.5.7.=.; ; -XtXwXyXpXaXaXsXsXdXdXsXdXdXaXaXpXpXpXyXyXyXtXwX0X7X4X1XOX~.W.W.R.W.W.`.*X&Xh.$.u.5.5.5.5.5.5.5.5.5.5.5.5.5.5.5.5.5.5.",
"5.5.5.5.5.5.5.5.5.5.5.5.5.5.5.5.5.5.:.7   E.tXwXtXpXpXaXsXdXsXsXsXaXaXaXpXpXyXpXyXyXtXtXwX6X5X1X=X-X/.W.W.W.R.R.W.].`.a.6.t.5.5.5.5.5.5.5.5.5.5.5.5.5.5.5.5.5.5.",
"5.5.5.5.5.5.5.5.5.5.5.5.5.5.5.5.5.5.*.D > b.tX0XtXpXpXpXaXaXaXaXsXpXpXaXsXpXpXtXtXtXwXwX7X5X1X1X*XOX_.W.W.R.R.R.R.).V.%.t.5.5.5.5.5.5.5.5.5.5.5.5.5.5.5.5.5.5.5.",
"5.5.5.5.5.5.5.5.5.5.5.5.5.5.5.5.5.5.6.D , K 0XqXtXyXpXpXpXpXpXpXpXpXpXpXpXuXyXyXtXtXwX0X6X4X1X=X*XOX/.W.W.R.R.R.!.P.r.5.5.5.5.5.5.5.5.5.5.5.5.5.5.5.5.5.5.5.5.5.",
"5.5.5.5.5.5.5.5.5.5.5.5.5.5.5.5.5.4.7.| - J 6X6XwXtXpXpXpXpXiXiXpXpXpXpXyXyXyXtXtXwX0X7X5X1X1X*XOX].~.W.W.R.R.R.!.l.%.t.5.5.5.5.5.5.5.5.5.5.5.5.5.5.5.5.5.5.5.5.",
"5.5.5.5.5.5.5.5.5.5.5.5.5.5.5.5.5.4.7.X., 7 *X5X0XtXyXuXyXpXpXpXpXpXiXyXyXtXyXtXwX0X6X5X4X1X=X-XOX_.W.W.R.W.R.!.B.%.t.5.5.5.5.5.5.5.5.5.5.5.5.5.5.5.5.5.5.5.5.5.",
"5.5.5.5.5.5.5.5.5.5.5.5.5.5.5.5.5.5.7.-.6 . A.7X6XwXtXyXiXyXyXyXyXyXtXtXtXwXtXwX0X7X5X1X1X=X*XOX[./.W.W.W.W.W.U.y.5.5.5.5.5.5.5.5.5.5.5.5.5.5.5.5.5.5.5.5.5.5.5.",
"5.5.5.5.5.5.5.5.5.5.5.5.5.5.5.5.5.5.5.4.N # S 4X5X0XwXyXyXyXtXyXyXyXtXtXrXrXwX0X7X6X4X1X=X=X-XOX_.~.Q.W.W.W.!.x.%.t.5.5.5.5.5.5.5.5.5.5.5.5.5.5.5.5.5.5.5.5.5.5.",
"5.5.5.5.5.5.5.5.5.5.5.5.5.5.5.5.5.5.5.5.V , . J.0X6X0XwXwXtXtXtXtXtXwXwXwX0X0X7X5X4X1X;X*X*XOX`.~.W.Q.W.W.^.B.&.t.5.5.5.5.5.5.5.5.5.5.5.5.5.5.5.5.5.5.5.5.5.5.5.",
"5.5.5.5.5.5.5.5.5.5.5.5.5.5.5.5.5.5.4.7.} 4 . S 6X5X0X0XwXwXtXwXwXrXwX0X0X0X6X5X4X1X;X=X*XOX[./.~.W.Q.W.W.U.y.6.t.5.5.5.5.5.5.5.5.5.5.5.5.5.5.5.5.5.5.5.5.5.5.5.",
"5.5.5.5.5.5.5.5.5.5.5.5.5.5.5.5.5.5.5.7.O.< ; ; ~.6X6XqX0X0XwX0XqX7XqX0X7X6X5X1X1X1X=X*XOX[._.~.Q.Q.W.W.^.x.%.t.5.5.5.5.5.5.5.5.5.5.5.5.5.5.5.5.5.5.5.5.5.5.5.5.",
"5.5.5.5.5.5.5.5.5.5.5.5.5.5.5.5.5.5.5.5.r.2 ; . G 6X1X6X6X6XqX6XqX7X6X6X5X1X1X1X1X=X*X-XOX`./.Q.Q.W.Q.^.B.6.t.5.5.5.5.5.5.5.5.5.5.5.5.5.5.5.5.5.5.5.5.5.5.5.5.5.",
"5.5.5.5.5.5.5.5.5.5.5.5.5.5.5.5.5.5.5.5.7.j - ; : `.5X5X6X5X5X5X6X5X5X5X5X1X1X1X=X*XOX[.`.~.~.Q.Q.W.^.U.r.5.5.5.5.5.5.5.5.5.5.5.5.5.5.5.5.5.5.5.5.5.5.5.5.5.5.5.",
"5.5.5.5.5.5.5.5.5.5.5.5.5.5.5.5.5.5.5.4.7.} @ :   L 6X1X5X4X4X4X4X1X1X1X1X1X=X=X-XOX[.]./.Q.Q.Q.Q.W.W.e.6.t.5.5.5.5.5.5.5.5.5.5.5.5.5.5.5.5.5.5.5.5.5.5.5.5.5.5.",
"5.5.5.5.5.5.5.5.5.5.5.5.5.5.5.5.5.5.5.5.7.=.; ; ; 7 OX1X1X1X1X1X1X1X;X1X1X=X*X-XOXOX`./.~.~.Q.W.W.^.z.%.t.5.5.5.5.5.5.5.5.5.5.5.5.5.5.5.5.5.5.5.5.5.5.5.5.5.5.5.",
"5.5.5.5.5.5.5.5.5.5.5.5.5.5.5.5.5.5.5.5.5.5.t = : X j.1X*X=X;X;X;X=X=X=X*X*X-XOXOX`./.~.W.Q.Q.W.^.B.&.5.5.5.5.5.5.5.5.5.5.5.5.5.5.5.5.5.5.5.5.5.5.5.5.5.5.5.5.5.",
"5.5.5.5.5.5.5.5.5.5.5.5.5.5.5.5.5.5.5.5.4.8.k @ : . 6 OX-X*X=X=X=X=X*X*X-XOXOX].`./.Q.~.Q.W.W.W.U.y.6.t.5.5.5.5.5.5.5.5.5.5.5.5.5.5.5.5.5.5.5.5.5.5.5.5.5.5.5.5.",
"5.5.5.5.5.5.5.5.5.5.5.5.5.5.5.5.5.5.5.5.4.7.o.= ; ; . D.<XOX-X*X*X*X-X-X[.[.`./.~.~.^.W.W.W.R.W.l.%.t.5.5.5.5.5.5.5.5.5.5.5.5.5.5.5.5.5.5.5.5.5.5.5.5.5.5.5.5.5.",
"5.5.5.5.5.5.5.5.5.5.5.5.5.5.5.5.5.5.5.5.5.5.0.2 = ; . N @X{.oXOXOXOXoX[.`._.~.W.W.W.W.W.R.I.!.V.6.t.5.5.5.5.5.5.5.5.5.5.5.5.5.5.5.5.5.5.5.5.5.5.5.5.5.5.5.5.5.5.",
"5.5.5.5.5.5.5.5.5.5.5.5.5.5.5.5.5.5.5.5.5.4.7.h @ ; ; % @.(.'.].].`._._.~.W.W.W.W.W.R.R.I.W.P.r.5.5.5.5.5.5.5.5.5.5.5.5.5.5.5.5.5.5.5.5.5.5.5.5.5.5.5.5.5.5.5.5.",
"5.5.5.5.5.5.5.5.5.5.5.5.5.5.5.5.5.5.5.5.5.5.7.X.= ; ; = k a.U.^.~.~.W.R.R.R.R.R.R.I.I.I.R.R.e.6.t.5.5.5.5.5.5.5.5.5.5.5.5.5.5.5.5.5.5.5.5.5.5.5.5.5.5.5.5.5.5.5.",
"5.5.5.5.5.5.5.5.5.5.5.5.5.5.5.5.5.5.5.5.5.5.5.:.3 ; ; ; 3 $.q.Y.T.I.I.I.I.I.I.J.J.I.I.R.!.z.%.t.5.5.5.5.5.5.5.5.5.5.5.5.5.5.5.5.5.5.5.5.5.5.5.5.5.5.5.5.5.5.5.5.",
"5.5.5.5.5.5.5.5.5.5.5.5.5.5.5.5.5.5.5.5.5.5.4.7.h = ; ; @ } 9.q.B.I.I.K.J.H.H.K.I.I.I.!.B.6.5.5.5.5.5.5.5.5.5.5.5.5.5.5.5.5.5.5.5.5.5.5.5.5.5.5.5.5.5.5.5.5.5.5.",
"5.5.5.5.5.5.5.5.5.5.5.5.5.5.5.5.5.5.5.5.5.5.4.7.X.= ; ; = t t.5.&.e.U.G.H.H.J.I.I.I.!.P.r.5.5.5.5.5.5.5.5.5.5.5.5.5.5.5.5.5.5.5.5.5.5.5.5.5.5.5.5.5.5.5.5.5.5.5.",
"5.5.5.5.5.5.5.5.5.5.5.5.5.5.5.5.5.5.5.5.5.5.5.5.r.2 = ; ; = o.7.5.6. XT.H.I.I.I.I.W.U.q.6.t.5.5.5.5.5.5.5.5.5.5.5.5.5.5.5.5.5.5.5.5.5.5.5.5.5.5.5.5.5.5.5.5.5.5.",
"5.5.5.5.5.5.5.5.5.5.5.5.5.5.5.5.5.5.5.5.5.5.5.4.7.h @ ; ; # h 7.r.%.V.'.I.I.R.W.W.U.e.6.t.5.5.5.5.5.5.5.5.5.5.5.5.5.5.5.5.5.5.5.5.5.5.5.5.5.5.5.5.5.5.5.5.5.5.5.",
"5.5.5.5.5.5.5.5.5.5.5.5.5.5.5.5.5.5.5.5.5.5.5.5.7.o.= ; ; = t 5.t.%.c.-XR.I.R.R.R.l.%.t.5.5.5.5.5.5.5.5.5.5.5.5.5.5.5.5.5.5.5.5.5.5.5.5.5.5.5.5.5.5.5.5.5.5.5.5.",
"5.5.5.5.5.5.5.5.5.5.5.5.5.5.5.5.5.5.5.5.5.5.5.5.5.4.u = ; ; < ;.5.5.:.Y._.I.I.R.x.%.t.5.5.5.5.5.5.5.5.5.5.5.5.5.5.5.5.5.5.5.5.5.5.5.5.5.5.5.5.5.5.5.5.5.5.5.5.5.",
"5.5.5.5.5.5.5.5.5.5.5.5.5.5.5.5.5.5.5.5.5.5.5.5.4.7.| , ; ; = X.9.5.;.y j.F.J.z.%.t.5.5.5.5.5.5.5.5.5.5.5.5.5.5.5.5.5.5.5.5.5.5.5.5.5.5.5.5.5.5.5.5.5.5.5.5.5.5.",
"5.5.5.5.5.5.5.5.5.5.5.5.5.5.5.5.5.5.5.5.5.5.5.5.5.5.;.6 ; ; ; 7 O.u. .q 9 v @.7.5.5.5.5.5.5.5.5.5.5.5.5.5.5.5.5.5.5.5.5.5.5.5.5.5.5.5.5.5.5.5.5.5.5.5.5.5.5.5.5.",
"5.5.5.5.5.5.5.5.5.5.5.5.5.5.5.5.5.5.5.5.5.5.5.5.5.5.7.C > ; ; > 6 V g y g y -.7.5.5.5.5.5.5.5.5.5.5.5.5.5.5.5.5.5.5.5.5.5.5.5.5.5.5.5.5.5.5.5.5.5.5.5.5.5.5.5.5.",
"5.5.5.5.5.5.5.5.5.5.5.5.5.5.5.5.5.5.5.5.5.5.5.5.5.5.7.=.6 @ ; ; 3 y g y y y  .7.5.5.5.5.5.5.5.5.5.5.5.5.5.5.5.5.5.5.5.5.5.5.5.5.5.5.5.5.5.5.5.5.5.5.5.5.5.5.5.5.",
"5.5.5.5.5.5.5.5.5.5.5.5.5.5.5.5.5.5.5.5.5.5.5.5.5.5.5.7. .{ X.8 g E ! n y y l t.5.5.5.5.5.5.5.5.5.5.5.5.5.5.5.5.5.5.5.5.5.5.5.5.5.5.5.5.5.5.5.5.5.5.5.5.5.5.5.5.",
"5.5.5.5.5.5.5.5.5.5.5.5.5.5.5.5.5.5.5.5.5.5.5.5.5.5.5.5.7.9.2.+.-.1.) W g 8 y ;.5.5.5.5.5.5.5.5.5.5.5.5.5.5.5.5.5.5.5.5.5.5.5.5.5.5.5.5.5.5.5.5.5.5.5.5.5.5.5.5.",
"5.5.5.5.5.5.5.5.5.5.5.5.5.5.5.5.5.5.5.5.5.5.5.5.5.5.5.5.5.4.5.7.7.>.) Q P P x O.7.5.5.5.5.5.5.5.5.5.5.5.5.5.5.5.5.5.5.5.5.5.5.5.5.5.5.5.5.5.5.5.5.5.5.5.5.5.5.5.",
"5.5.5.5.5.5.5.5.5.5.5.5.5.5.5.5.5.5.5.5.5.5.5.5.5.5.5.5.5.5.5.5.5.r.^ ..4.2.W -.7.5.5.5.5.5.5.5.5.5.5.5.5.5.5.5.5.5.5.5.5.5.5.5.5.5.5.5.5.5.5.5.5.5.5.5.5.5.5.5.",
"5.5.5.5.5.5.5.5.5.5.5.5.5.5.5.5.5.5.5.5.5.5.5.5.5.5.5.5.5.5.5.5.5.5.5.7.5.5.2.r.5.5.5.5.5.5.5.5.5.5.5.5.5.5.5.5.5.5.5.5.5.5.5.5.5.5.5.5.5.5.5.5.5.5.5.5.5.5.5.5.",
"5.5.5.5.5.5.5.5.5.5.5.5.5.5.5.5.5.5.5.5.5.5.5.5.5.5.5.5.5.5.5.5.5.5.5.5.5.5.5.5.5.5.5.5.5.5.5.5.5.5.5.5.5.5.5.5.5.5.5.5.5.5.5.5.5.5.5.5.5.5.5.5.5.5.5.5.5.5.5.5."
};
