/* XPM */
static char *ac0ys_g5zet[] = {
/* columns rows colors chars-per-pixel */
"80 80 256 2 ",
"   c #1C1D18",
".  c #271C19",
"X  c #341D16",
"o  c #18211A",
"O  c #2A251A",
"+  c #38281B",
"@  c #393116",
"#  c #371D24",
"$  c #1D2B27",
"%  c #2C2322",
"&  c #2A2926",
"*  c #362A27",
"=  c #3B3229",
"-  c #3B3837",
";  c #253430",
":  c #432C1B",
">  c #4C3419",
",  c #55381B",
"<  c #51281F",
"1  c #683C19",
"2  c #4E1D2E",
"3  c #45272B",
"4  c #48362B",
"5  c #563A29",
"6  c #592834",
"7  c #483A36",
"8  c #543A35",
"9  c #4E2A30",
"0  c #682938",
"q  c #663C3A",
"w  c #78363C",
"e  c #71332C",
"r  c #6D1F3A",
"t  c #3E4136",
"y  c #55421A",
"u  c #6B4519",
"i  c #75481B",
"p  c #7A5319",
"a  c #69521A",
"s  c #5A4627",
"d  c #4A4338",
"f  c #5D4B3B",
"g  c #574637",
"h  c #595337",
"j  c #4E4A2E",
"k  c #654627",
"l  c #795A27",
"z  c #634B35",
"x  c #654738",
"c  c #754937",
"v  c #69543C",
"b  c #7A543B",
"n  c #6F5428",
"m  c #7A6129",
"M  c #783948",
"N  c #653D48",
"B  c #533B40",
"V  c #494642",
"C  c #564744",
"Z  c #58554B",
"A  c #5B5A55",
"S  c #4C584D",
"D  c #674B45",
"F  c #784948",
"G  c #685647",
"H  c #755A48",
"J  c #675956",
"K  c #785955",
"L  c #7B4354",
"P  c #6D6248",
"I  c #7C644D",
"U  c #73654E",
"Y  c #68665B",
"T  c #7B6655",
"R  c #7D7354",
"E  c #746B64",
"W  c #767469",
"Q  c #7C7874",
"!  c #676F66",
"~  c #5F6960",
"^  c #801E3B",
"/  c #892D39",
"(  c #AF383A",
")  c #88541A",
"_  c #965719",
"`  c #864A1A",
"'  c #9B661A",
"]  c #8C631B",
"[  c #A7651B",
"{  c #B46B1D",
"}  c #B3711E",
"|  c #8B522E",
" . c #AC5230",
".. c #956925",
"X. c #977A33",
"o. c #936C33",
"O. c #A76824",
"+. c #A87527",
"@. c #B77627",
"#. c #AD6C35",
"$. c #A35D1A",
"%. c #C1533E",
"&. c #921E43",
"*. c #B11E50",
"=. c #892844",
"-. c #982748",
";. c #943549",
":. c #973655",
">. c #8C394D",
",. c #A7284B",
"<. c #A72951",
"1. c #B82855",
"2. c #A93658",
"3. c #BA345A",
"4. c #B13246",
"5. c #BB3963",
"6. c #A63D63",
"7. c #C41E56",
"8. c #D91C5B",
"9. c #EC145E",
"0. c #E5185E",
"q. c #F20F5D",
"w. c #C5374B",
"e. c #CC255C",
"r. c #C62758",
"t. c #D4225D",
"y. c #DB235E",
"u. c #D62A5A",
"i. c #C9365A",
"p. c #D43658",
"a. c #E1245D",
"s. c #E03B5E",
"d. c #DC1E63",
"f. c #ED1662",
"g. c #E51E62",
"h. c #EA1E63",
"j. c #E91D68",
"k. c #F21562",
"l. c #F21C65",
"z. c #F41C69",
"x. c #FC1C6A",
"c. c #CC2A61",
"v. c #DC2361",
"b. c #D52B62",
"n. c #D72863",
"m. c #C73864",
"M. c #D83868",
"N. c #DF3E70",
"B. c #E42262",
"V. c #EA2164",
"C. c #E22964",
"Z. c #E82A68",
"A. c #F32169",
"S. c #F62169",
"D. c #E5346A",
"F. c #EF3A77",
"G. c #884647",
"H. c #865A49",
"J. c #825657",
"K. c #965456",
"L. c #904B4D",
"P. c #BA475D",
"I. c #B15252",
"U. c #886547",
"Y. c #996A48",
"T. c #9C7348",
"R. c #846955",
"E. c #886A59",
"W. c #8A7659",
"Q. c #96765B",
"!. c #956C56",
"~. c #AC6D46",
"^. c #AD7052",
"/. c #915465",
"(. c #B64869",
"). c #A5586C",
"_. c #B65A69",
"`. c #B65872",
"'. c #AB4D69",
"]. c #896A67",
"[. c #877668",
"{. c #977867",
"}. c #847D75",
"|. c #9B7877",
" X c #926B6F",
".X c #A17C6A",
"XX c #AB6977",
"oX c #A6747B",
"OX c #B56C6D",
"+X c #CB4A54",
"@X c #CA5976",
"#X c #D04C6A",
"$X c #E74B78",
"%X c #D16C71",
"&X c #D16A51",
"*X c #7B826E",
"=X c #B28B34",
"-X c #9F853D",
";X c #CD9232",
":X c #958553",
">X c #A9875B",
",X c #B98757",
"<X c #B48F4D",
"1X c #9E8366",
"2X c #89847A",
"3X c #96877B",
"4X c #92966B",
"5X c #A8856C",
"6X c #AD8A74",
"7X c #A88675",
"8X c #B28D7A",
"9X c #B6957B",
"0X c #B28C63",
"qX c #BAA176",
"wX c #C49155",
"eX c #D3A94C",
"rX c #E6B552",
"tX c #C89766",
"yX c #C59979",
"uX c #CC8F71",
"iX c #D0A971",
"pX c #E2BC75",
"aX c #EFC55A",
"sX c #FAD265",
"dX c #B57882",
"fX c #9E7983",
"gX c #CE7688",
"hX c #98948A",
"jX c #94918A",
"kX c #BA9886",
"lX c #AA948C",
"zX c #98A49B",
"xX c #B4A396",
"cX c #B8AEA8",
"vX c #A3A4A3",
"bX c #C39B8B",
"nX c #C59D95",
"mX c #D39685",
"MX c #C5A18D",
"NX c #C7A58C",
"BX c #CAA594",
"VX c #CDA994",
"CX c #C8A494",
"ZX c #D2AD9B",
"AX c #D1AA94",
"SX c #D6B29D",
"DX c #D7AA87",
"FX c #C99AA5",
"GX c #D5B5A9",
"HX c #E2BFA0",
"JX c #FCCDA2",
"KX c #EBDBA2",
"LX c #CED2CF",
"PX c #F8F9FA",
"IX c #E7E9E9",
"UX c #DFE5E0",
/* pixels */
"h.h.h.h.h.h.h.h.h.h.h.h.h.h.h.h.h.h.h.h.h.h.h.h.h.h.h.h.h.h.h.h.h.h.h.h.h.h.h.h.h.h.h.h.h.h.h.h.h.h.h.h.h.h.h.h.h.h.h.h.h.h.h.h.h.h.h.h.h.h.h.h.h.h.h.h.h.h.h.h.",
"h.h.h.h.h.h.h.h.h.h.h.h.h.h.h.h.h.h.h.h.h.h.h.h.h.h.h.h.h.h.h.h.h.h.h.h.h.h.h.h.h.h.h.h.h.h.h.h.h.h.h.h.h.h.h.h.h.h.h.h.h.h.h.h.h.h.h.h.h.h.h.h.h.h.h.h.h.h.h.h.",
"h.h.h.h.h.h.h.h.h.h.h.h.h.h.h.h.h.h.h.h.h.h.h.h.h.h.h.h.h.h.h.h.h.h.h.h.h.h.h.h.h.h.h.h.h.h.h.h.h.h.h.h.h.h.h.h.h.h.h.h.h.h.h.h.h.h.h.h.h.h.h.h.h.h.h.h.h.h.h.h.",
"h.h.h.h.h.h.h.h.h.h.h.h.h.h.h.h.h.h.h.h.h.h.h.h.h.h.h.h.h.h.h.h.h.h.h.h.h.h.h.h.V.V.h.h.h.h.h.h.h.h.h.h.h.h.h.h.h.h.h.h.h.h.h.h.h.h.h.h.h.h.h.h.h.h.h.h.h.h.h.h.",
"h.h.h.h.h.h.h.h.h.h.h.h.h.h.h.h.h.h.h.h.h.h.h.h.h.h.h.h.h.h.h.h.h.h.h.h.h.h.h.h.l.f.h.h.h.h.h.h.h.h.h.h.h.h.h.h.h.h.h.h.h.h.h.h.h.h.h.h.h.h.h.h.h.h.h.h.h.h.h.h.",
"h.h.h.h.h.h.h.h.h.h.h.h.h.h.h.h.h.h.h.h.h.h.h.h.h.h.h.h.h.h.h.h.V.p.Z.h.h.h.h.M._.M.h.h.h.h.h.h.h.h.h.h.h.h.h.h.h.h.h.h.h.h.h.h.h.h.h.h.h.h.h.h.h.h.h.h.h.h.h.h.",
"h.h.h.h.h.h.h.h.h.h.h.h.h.h.h.h.h.h.h.h.h.h.h.h.h.h.h.h.h.h.g.l.;.y c #X#XD.k.5.4XgXf.V.h.h.h.h.h.h.h.h.h.h.h.h.h.h.h.h.h.h.h.h.h.h.h.h.h.h.h.h.h.h.h.h.h.h.h.h.",
"h.h.h.h.h.h.h.h.h.h.h.h.h.h.h.h.h.h.h.h.h.h.h.h.h.h.h.h.h.h.h.V.5 r G.iXOXgXdXM W M.f.B.h.h.h.h.h.h.h.h.h.h.h.h.h.h.h.h.h.h.h.h.h.h.h.h.h.h.h.h.h.h.h.h.h.h.h.h.",
"h.h.h.h.h.h.h.h.h.h.h.h.h.h.h.h.h.h.h.h.h.h.h.h.h.h.h.h.h.h.l.r.O 1.Z.>XuXv.`.Y Y L Z.l.h.h.h.h.h.h.l.h.h.h.h.h.h.h.h.h.h.h.h.h.h.h.h.h.h.h.h.h.h.h.h.h.h.h.h.h.",
"h.h.h.h.h.h.h.h.h.h.h.h.h.h.h.h.h.h.h.h.h.h.h.h.h.h.h.h.h.h.l.r.0 a.g.H.:Xr.z.K.C V M 7.8.h.h.h.l.v.e.A.h.h.h.h.h.h.h.h.h.h.h.h.h.h.h.h.h.h.h.h.h.h.h.h.h.h.h.h.",
"h.h.h.h.h.h.h.h.h.h.h.h.h.h.h.h.h.h.h.h.h.h.h.h.h.h.h.h.h.h.h.h.V.h.t.w | 1.Z._.G Q.W.Z G.Z.g.l.<.* & 0 v.h.h.h.h.h.h.h.h.h.h.h.h.h.h.h.h.h.h.h.h.h.h.h.h.h.h.h.",
"h.h.h.h.h.h.h.h.h.h.h.h.h.h.h.h.h.h.h.h.h.h.h.h.h.h.h.h.h.h.h.h.h.h.B.B.g.h.n.'.M }.xXE.#XB.l.1.$ % % 9 r.l.h.h.h.h.h.h.h.h.h.h.h.h.h.h.h.h.h.h.h.h.h.h.h.h.h.h.",
"h.h.h.h.h.h.h.h.h.h.h.h.h.h.h.h.h.h.h.h.h.h.h.h.h.h.h.h.h.h.h.h.h.h.h.h.h.h.B.2.J.W }.b.k.h.S.6 o % 1.S.h.h.h.h.h.h.h.h.h.h.h.h.h.h.h.h.h.h.h.h.h.h.h.h.h.h.h.h.",
"h.h.h.h.h.h.h.h.h.h.h.h.h.h.h.h.h.h.h.h.h.h.h.h.h.h.h.h.h.h.h.h.h.h.h.h.h.v.A.=.; A & <.v.e.<.% o 6 7.7.d.l.l.h.h.h.h.h.h.h.h.h.h.h.h.h.h.h.h.h.h.h.h.h.h.h.h.h.",
"h.h.h.h.h.h.h.h.h.h.h.h.h.h.h.h.h.h.h.h.h.h.h.h.h.h.h.h.h.h.h.h.h.h.h.l.z.c.<.N - Q - C b x &   . U.^.Q.| ;.t.l.V.h.h.h.h.h.h.h.h.h.h.h.h.h.h.h.h.h.h.h.h.h.h.h.",
"h.h.h.h.h.h.h.h.h.h.h.h.h.h.h.h.h.h.h.h.h.h.h.h.h.V.C.B.M.h.B.h.l.l.8.1.=.q G g - * * & & % o $ 5 T.T.#.iX0XY.,.h.h.h.h.h.h.h.h.h.h.h.h.h.h.h.h.h.h.h.h.h.h.h.h.",
"h.h.h.h.h.h.h.h.h.h.h.h.h.h.h.h.h.h.h.h.h.h.h.V.k.M.OX_.^.l.l.g.*.;.H.Y.Q.W.H G V o = 3 # * 2 w G.J.H z W.o.#.>X2.l.h.h.h.h.h.h.h.h.h.h.h.h.h.h.h.h.h.h.h.h.h.h.",
"h.h.h.h.h.h.h.h.h.h.h.h.h.h.h.h.h.h.h.h.h.h.V.8.%XY.:XuXt.v.:.G.5X,X~.T.U.x w =.K.J.C -.h.v.l.l.f.g.t.<.w v U.tX~._.B.h.h.h.h.h.h.h.h.h.h.h.h.h.h.h.h.h.h.h.h.h.",
"h.h.h.h.h.h.h.h.h.h.h.h.h.h.h.h.h.h.h.h.h.h.k.:.4XI.K.9XOXH.0X,XqX5Xc >.1.t.V.l.h.h.7.3 e.x.b.P.3.g.A.z.h.-.f |  .o.1.z.g.h.h.h.h.h.h.h.h.h.h.h.h.h.h.h.h.h.h.h.",
"h.h.h.h.h.h.h.h.h.h.h.h.h.h.h.h.h.h.h.h.h.h.%X|.mX0.@X>X>XyXyX!.>.*.v.h.l.h.h.g.h.h.x.=.3 =.f 1XQ.0 I.m.h.S.=.f T.wX| g.h.h.h.h.h.h.h.h.h.h.h.h.h.h.h.h.h.h.h.h.",
"h.h.h.h.h.h.h.h.h.h.h.h.h.h.h.h.h.h.h.V.h.D._.m.JXuXuXR.W.mXuX3.k.A.h.h.g.h.h.h.V.h.h.V.2 o !.yXH z | _.A.=.-.=.G ~.#.<.l.h.h.h.h.h.h.h.h.h.h.h.h.h.h.h.h.h.h.h.",
"h.h.h.h.h.h.h.h.h.h.h.h.h.h.h.h.h.h.h.h.h.C.$XJXKXJX,Xw -.8.V.V.h.h.h.h.h.h.h.b.).#Xf.A.7.% 3X8XO A MXK.3 3 B.8.8 U.wXI.0.V.h.h.h.h.h.h.h.h.h.h.h.h.h.h.h.h.h.h.",
"h.h.h.h.h.h.h.h.h.h.h.h.h.h.h.h.h.h.h.h.r.H pXeXtXiX%X0.A.l.h.h.h.h.h.h.h.h.h.I.h ^.h.g.z.=.J 6X* & 7 O 2 g.y.e.0 z ~.~.r.l.h.h.h.h.h.h.h.h.h.h.h.h.h.h.h.h.h.h.",
"h.h.h.h.h.h.h.h.h.h.h.h.h.h.h.h.h.h.h.f._.T.o. .y.e.B.h.h.h.h.h.h.h.h.h.h.h.V.#XU.^.A.h.x.7.f x * * O 0 b.1.F 0XL.b ^.tXI.h.V.h.h.h.h.h.h.h.h.h.h.h.h.h.h.h.h.h.",
"h.h.h.h.h.h.h.h.h.h.h.h.h.h.h.h.h.h.h.#X,X>Xb w.l.h.h.h.h.h.h.h.h.h.h.h.h.h.h.h.K.H ^ t.-.G.8 4 4 O &.C.9 = G yXH Y.^.tX .g.h.h.h.h.h.h.h.h.h.h.h.h.h.h.h.h.h.h.",
"h.h.h.h.h.h.h.h.h.h.h.h.h.h.h.h.h.h.l.3.E kXY.y.h.V.h.h.h.h.h.h.h.h.h.h.h.h.V.l.'.D ^ 3 5 iXuXc = =.z.B.q 4 Q.yX* G .X|  .g.h.h.h.h.h.h.h.h.h.h.h.h.h.h.h.h.h.h.",
"h.h.h.h.h.h.h.h.h.h.h.h.h.h.h.h.h.h.l.,.k i 4.l.h.h.h.h.h.h.h.h.h.h.h.h.h.h.h.h.i.i.g.% = Y.Y.O 0 V.h.g.A.-.2XHX*   4 k ^.C.h.h.h.h.h.h.h.h.h.h.h.h.h.h.h.h.h.h.",
"h.h.h.h.h.h.h.h.h.h.h.h.h.h.h.h.h.h.h.B./ k a.h.h.h.h.h.h.h.h.h.h.h.h.h.h.h.h.h.f.l.B.# % * O 0 B.h.h.h.v.# = z % . O % c D.f.h.h.h.h.h.h.h.h.h.h.h.h.h.h.h.h.h.",
"h.h.h.h.h.h.h.h.h.h.h.h.h.h.h.h.h.h.h.l.v.<.h.h.h.h.h.h.h.h.h.h.h.h.h.h.h.h.h.B.M.V.1.%   * =.V.h.h.h.A.r o % * = . * = U.u.h.h.h.h.h.h.h.h.h.h.h.h.h.h.h.h.h.h.",
"h.h.h.h.h.h.h.h.h.h.h.h.h.h.h.h.h.h.h.h.h.l.h.h.h.h.h.h.h.h.h.h.h.h.h.h.h.h.h.v.Q.%X9 =.7.t.A.h.h.h.h.z.&.$ = 8 4 * 4 H >Xi.h.h.h.h.h.h.h.h.h.h.h.h.h.h.h.h.h.h.",
"h.h.h.h.h.h.h.h.h.h.h.h.h.h.h.h.h.h.h.h.h.h.h.h.h.h.Z.Z.h.h.h.h.h.h.f.h.h.h.h.l.1.P q V.z.h.h.h.h.h.h.h.A.2 4 x . = % Y.T.i.h.V.h.h.h.h.h.h.h.h.h.h.h.h.h.h.h.h.",
"h.h.h.h.h.h.h.h.h.h.h.h.h.h.h.h.h.h.h.h.h.h.h.h.h.D.7X(.k.V.h.h.f.j.n.b.s.s.B.h.l.M ;.z.g.h.h.h.h.h.h.h.2.6 H U.. 8 G T.o.+Xf.h.h.h.h.h.h.h.h.h.h.h.h.h.h.h.h.h.",
"h.h.h.h.h.h.h.h.h.h.h.h.h.h.h.h.h.h.h.h.h.h.h.h.h.D.E.J.M.g.l.B.#XI.| ..l m &Xh.h.v.v.h.h.h.h.h.h.h.v.M.M o 8 H 4 8 H.5 | ,X%XZ.h.h.h.h.h.h.h.h.h.h.h.h.h.h.h.h.",
"h.h.h.h.h.h.h.h.h.h.h.h.h.h.h.h.h.h.h.h.h.h.h.g.l.1.E.9X{._.p.~.l p > u : h ..+Xh.V.h.h.h.h.h.h.h.h.m.+XD.2 O Q.4 4 5 z T.wXiX%X9.V.h.h.h.h.h.h.h.h.h.h.h.h.h.h.",
"h.h.h.h.h.h.h.h.h.h.h.h.h.h.h.h.h.h.h.h.h.h.h.B.l.5.[.GXCXVX<X] O , , , u X.p @.p.h.V.h.h.h.h.h.b.C.D.u.P./ j * 5 s b Y.0X~.wXmXh.h.h.h.h.h.h.h.h.h.h.h.h.h.h.h.",
"h.h.h.h.h.h.h.h.h.h.h.h.h.h.h.h.h.h.h.h.h.h.h.B.l.m.}.7XkXVXDX5 s > u _ ..> 1 ' #.C.h.h.h.l.h.A./.0 C.a.H.b H O I T.o.~.~.#.iX^.D.h.h.h.h.h.h.h.h.h.h.h.h.h.h.h.",
"h.h.h.h.h.h.h.h.h.h.h.h.h.h.h.h.h.h.h.h.h.h.h.l.v.K.T T R.5XDXH > > u >X1Xg X 1 '  .h.h.e.:.h.V.2.&.f.i.I v v * I ,Xz U.T.~.iX| #Xf.h.h.h.h.h.h.h.h.h.h.h.h.h.h.",
"h.h.h.h.h.h.h.h.h.h.h.h.h.h.h.h.h.h.h.B.h.l.V.3.K T E.f H Q.yXT.: . 1 ,Xn 1 k , ` +.p.l.r.8 B.h.z.z.h.G.5 c c 4 H Q.z 1 | ` wXW.+Xl.h.h.h.h.h.h.h.h.h.h.h.h.h.h.",
"h.h.h.h.h.h.h.h.h.h.h.h.h.h.h.h.h.h.h.h.u.b.e.d G Q.R.d v Q.8XU.> O , ;X+.` @.=Xi O.p.x.B.N b.v.3.h.n.c > H.0Xf v z s v U.c #.z I.l.h.h.h.h.h.h.h.h.h.h.h.h.h.h.",
"h.h.h.h.h.h.h.h.h.h.h.h.h.h.h.h.h.h.h.i.+.o.:.* d K R.I !.!.5XR.: X , =XaXp ) eX| ..i.<.l.M 2.&XI.z.e.z z f v 5 H G z g s c U.v I.l.h.h.h.h.h.h.h.h.h.h.h.h.h.h.",
"h.h.h.h.h.h.h.h.h.h.h.h.h.h.h.h.h.h.e.=XeXo.n j 7 H K E.K D .X{.5 . n m eXeX<X<Xi #.t.L.+X:.{.%Xh.h.e.z : 3 g g z f 8 z z 5 z j 2.l.h.h.h.h.h.h.h.h.h.h.h.h.h.h.",
"h.h.h.h.h.h.h.h.h.h.h.h.h.h.h.h.h.h.I.<XX.4 h h g f f 7 g Q.5X1XT + + n = v {.4 ) I.h.V.C.'.! 6.l.h.b.z @ w / g G g 5 8 4 j f P i.l.h.h.h.h.h.h.h.h.h.h.h.h.h.h.",
"h.h.h.h.h.h.h.h.h.h.h.h.h.h.h.h.V.h.I.X.g G 7 - d 7 = 4 K.5X8X{.[.K . > n 6 ).Y.] +Xh.h.g. XjX).l.h.t.5 j -.3.v U g f h x ,.F R b.h.h.h.h.h.h.h.h.h.h.h.h.h.h.h.",
"h.h.h.h.h.h.h.h.h.h.h.h.h.h.h.h.h.h. .h C 7 7 d C - 7 x H 5X8X{.R.{.k X m eXrXeXO.u.h.f.M.jXzXkX0.h.t.x @ <.e.v R g G L.u.g.H {.y.h.h.h.h.h.h.h.h.h.h.h.h.h.h.h.",
"h.h.h.h.h.h.h.h.h.h.h.h.h.h.h.h.g.h.w.j - & * V C G W.{.7X9X5XR.U {.U.1 O X.;X=XI.h.V.9.@XLXUXFX0.h.v.x j 1.B.c U 1.y.h.l.t.T !.g.h.h.h.h.h.h.h.h.h.h.h.h.h.h.h.",
"h.h.h.h.h.h.h.h.h.h.h.h.h.h.h.h.h.h.V.,.7 * = Z R.{.6X5X6X7XW.g G [.!.@.i : 1 ' p.h.V.l.'.hXjXhXn.l.B.q g c.f.G.I g.l.g.h.v.R _.f.h.h.h.h.h.h.h.h.h.h.h.h.h.h.h.",
"h.h.h.h.h.h.h.h.h.h.h.h.h.h.h.h.h.h.h.A.0 t T {.5X8X8X6X7X{.R.* C [.R.l @.@.O.+. .h.h.h.L Y [.Q (.k.C.x D Z.h.| I v.h.h.h.b.W.+Xf.V.h.h.h.h.h.h.h.h.h.h.h.h.h.h.",
"h.h.h.h.h.h.h.h.h.h.h.h.h.h.h.h.h.h.h.h.M [.8X8X9XkXkXkX8X{.K G E.R.U X.l ) +.O.[ +Xh.h.D ! }.W ).k.B.x 2.S.8.q R.v.h.h.l.m.:XM.f.h.h.h.h.h.h.h.h.h.h.h.h.h.h.h.",
"h.h.h.h.h.h.h.h.h.h.h.h.h.h.h.h.h.h.h.2.2XkXkXkXbXMXNXNX9X6XG I f 4 T.sXrX-XeX;X_ O.p.z.:.7 F Y '.k.C.x 1.m.e.g W.e.h.B.l.P.0XZ.h.h.h.h.h.h.h.h.h.h.h.h.h.h.h.h.",
"h.h.h.h.h.h.h.h.h.h.h.h.h.h.h.h.h.l.5.[.kXkXMXMXMXBXZXVX6X{.H 9 < X.aXaXaXsXsXeX_ [  .l.1.K gXY `.k.B.H 2.i.(.T :X#Xf.V.g.%XDXZ.h.h.h.h.h.h.h.h.h.h.h.h.h.h.h.h.",
"h.h.h.h.h.h.h.h.h.h.h.h.h.h.h.h.l.b.].lXnXCXVXVXVXAXSXVX].D d 6 ^ a rXaXaXaXaXaX) $.O.a.c.[.[.S `.l.g.K ).y. XI.:X%Xh.h.v.W.1XC.h.h.h.h.h.h.h.h.h.h.h.h.h.h.h.h.",
"h.h.h.h.h.h.h.h.h.h.h.h.h.h.h.h.g./.3XnXBXVXZXZXSXSXSXVXT d C 8 1.+ ..aXaXeX;X@.O.[ $.u.z.-.Z UX).f.V.K /.n.{.i.:X@Xf.h.v.R K.h.h.h.h.h.h.h.h.h.h.h.h.h.h.h.h.h.",
"h.h.h.h.h.h.h.h.h.h.h.h.h.h.B.l.:.Q kXCXBXAXZXSXSXSXZXNX{.T {.G b.r @ ;XeX=X@.[ { [ $.C.h.8.}.hX XV.l.J.K v.7 <..X%Xf.h.v.[.@Xk.V.h.h.h.h.h.h.h.h.h.h.h.h.h.h.h.",
"h.h.h.h.h.h.h.h.h.h.h.h.h.h.h.t.J 3XkXnXBXAXZXSXSXSXVXMX9X5XW.U b.r.+ ..o...[ { { {  .h.h.v.J hX}.b.:.!  XZ.& 6 XXgX9.h.v.2X#X9.V.h.h.h.h.h.h.h.h.h.h.h.h.h.h.h.",
"h.h.h.h.h.h.h.h.h.h.h.h.h.h.z.:.A |.kXbXCXBXAXZXSXZXBXkX8X5XW.P 3.z.0 y n +.[ { { [ w.h.h.B.B t E /.A 3XlX#XK 7.`.gXf.h.n.2XN.f.h.h.h.h.h.h.h.h.h.h.h.h.h.h.h.h.",
"h.h.h.h.h.h.h.h.h.h.h.h.h.h.h.N Y |.lXkXbXCXBXVXZXVXMX9X6X5XQ.P 3.x.-.@ k o._ [ {  .g.h.h.h.K jX2X2XE }.jXhXoXz.(.dXf.h.b.2XD.f.h.h.h.h.h.h.h.h.h.h.h.h.h.h.h.h.",
"h.h.h.h.h.h.h.h.h.h.h.h.h.h.v.C J {.7X8XkXbXCXCXBXBXbX8X6X.XE.P 3.x.-.@ s m +._ ' w.h.h.h.h.L S hXhX3X}.2XzXjXl.5.dXh.l.m.3XZ.h.h.h.h.h.h.h.h.h.h.h.h.h.h.h.h.h.",
"h.h.h.h.h.h.h.h.h.h.h.h.h.h.n.C J ].|.7X8XkXbXbXMXMXbX9X5X{.R.G 3.x.^ O s s m ]  .B.h.h.h.z.M S lX}.cX2XW jXjXe.b.oXV.k.m.|.V.h.h.h.h.h.h.h.h.h.h.h.h.h.h.h.h.h.",
"h.h.h.h.h.h.h.h.h.h.h.h.h.l.e.V J E {.{..X8XkXbXkXkXkX6X{.W.I G r.x.0 O s s n w.y.h.h.h.l.5.A Q 2XjXxXlX2XE zXgX8.oXC.k.(.oXf.h.h.h.h.h.h.h.h.h.h.h.h.h.h.h.h.h.",
"h.h.h.h.h.h.h.h.h.h.h.h.h.z.<.- J K E.E.!.7X8XkXkXkX8X5XQ.R.H G t.g.# + s a @.V.h.h.h.h.f./.! 2XhXcXlXQ jXQ cXL B.oXD.k.`.XXf.h.h.h.h.h.h.h.h.h.h.h.h.h.h.h.h.h.",
"h.h.h.h.h.h.h.h.h.h.h.h.h.h.G.d C J K ].{..X7X6X6X6X7X{.E.I G D V.,.  + y =X;Xa.h.h.h.h.l.:.S Q 2XcXW Y jXA A XX9.oXN.q.).`.k.V.h.h.h.h.h.h.h.h.h.h.h.h.h.h.h.h.",
"h.h.h.h.h.h.h.h.h.h.h.h.h.y.K C 7 G J K E.{.{..X5X.X{.{.R.H G G.A.2   + p ;X;Xu.h.h.h.h.l.2.S J E hXE 2X}.* A m.q.XX#Xq.XX@Xf.V.h.h.h.h.h.h.h.h.h.h.h.h.h.h.h.h.",
"h.h.h.h.h.h.h.h.h.h.h.h.l.8.D g 4 q G G K R.].{.{.{.{.E.I H h 1.7.  O > ) } [ I.h.V.h.h.k.v.J Z Z T J Z }.2XG n.f.XX@X9.|.#Xf.h.h.h.h.h.h.h.h.h.h.h.h.h.h.h.h.h.",
"h.h.h.h.h.h.h.h.h.h.h.h.g.r.g q r.g.2.f G G K T E.E.R.I H f w A.=.o + i ) ) _  .h.h.h.h.(.).W L.F h Y 2XGXLXY $Xq.XX@X0.jXN.9.h.h.h.h.h.h.h.h.h.h.h.h.h.h.h.h.h.",
"h.h.h.h.h.h.h.h.h.h.h.h.B.0 g e.z.h.l.1.x f f D D D D f f g e.l.B.1./ ) _ e ) $.a.h.f.M. X(./.m.-.! Y kXGXLXY gXq.`.gX8.3XD.h.V.V.h.h.h.h.h.h.h.h.h.h.h.h.h.h.h.",
"h.h.h.h.h.h.h.h.h.h.h.h.h.v.r.V.h.h.h.l.t.;.x j d 7 4 7 d ;.l.g.h.x.1.p  .,.u _ u.h.9.@X(.q.h.l.>.zX]._.hXPX*X3XF.(.mXr.9XD.h.V.h.h.h.h.h.h.h.h.h.h.h.h.h.h.h.h.",
"h.h.h.h.h.h.h.h.h.h.h.h.h.h.l.h.h.h.h.g.h.l.y.2.>.g 7 d q v.h.h.h.h.r.u  .t.1 ) u.h.9.@XXXh.V.0./.zX).'.LXPXvX(.nX8XmX3.4X$X9.V.h.h.h.h.h.h.h.h.h.h.h.h.h.h.h.h.",
"h.h.h.h.h.h.h.h.h.h.h.h.h.h.h.h.h.h.h.h.h.h.h.z.v.g g g 1.l.g.h.h.h.t.i  .h.e ` B.h.h.8.cXFX8.8.jXQ lXxXIXPXcX8.dX*XAXm.K.bXh.h.h.h.h.h.h.h.h.h.h.h.h.h.h.h.h.h.",
"h.h.h.h.h.h.h.h.h.h.h.h.h.h.h.h.h.h.h.h.h.h.h.h.t.g 7 -.l.h.h.h.h.l.h.1 ( z./ | V.B.g.9.dXS 8.@X! C 3XW LXUXcXD.8 Y 2XJ 1.].gXV.h.h.h.h.h.h.h.h.h.h.h.h.h.h.h.h.",
"h.h.h.h.h.h.h.h.h.h.h.h.h.h.h.h.h.h.h.h.h.h.h.h.v.7 w l.h.h.h.h.h.u.( i ( x./ y e _ %.h.8.0 <.fX; S Z * FXPXGXD.-.xXdX=.e.1.lXGXXXB.h.h.h.h.h.h.h.h.h.h.h.h.h.h.",
"h.h.h.h.h.h.h.h.h.h.h.h.h.h.h.h.h.h.h.h.h.h.h.h.B.F >.8.h.h.h.h.h.#.=X+.i.z.t./ e =XwXC.z.c.; C 2.].<.v.0.$X).<.:.Q dXA.l.0.|.W ! XX8.h.h.h.h.h.h.h.h.h.h.h.h.h.",
"h.h.h.h.h.h.h.h.h.h.h.h.h.h.h.h.h.h.h.h.h.h.h.h.h.B.B.g.h.h.h.h.h.p.#X#XV.h.h.l.V.b.n.h.h.v.2.e.Z.gXz.h.h.8.7 $ ; A S -.l.l.:.* 8 J L.h.h.h.h.h.h.h.h.h.h.h.h.h.",
"h.h.h.h.h.h.h.h.h.h.h.h.h.h.h.h.h.h.h.h.h.h.h.h.h.h.h.h.h.h.h.h.h.f.f.f.h.h.h.g.h.f.h.h.h.h.l.A.c.J r.h.h.V.B.<.3 7 C *.l.h.g.g.8.8.v.h.h.h.h.h.h.h.h.h.h.h.h.h.",
"h.h.h.h.h.h.h.h.h.h.h.h.h.h.h.h.h.h.h.h.h.h.h.h.h.h.h.h.h.h.h.h.h.h.V.V.h.h.h.h.h.h.h.h.h.h.g.V.:.; =.l.h.h.h.l.B.t.g.l.h.h.h.h.h.l.h.h.h.h.h.h.h.h.h.h.h.h.h.h.",
"h.h.h.h.h.h.h.h.h.h.h.h.h.h.h.h.h.h.h.h.h.h.h.h.h.h.h.h.h.h.h.h.h.h.h.h.h.h.h.h.h.h.h.h.h.h.h.h.h.n.B.h.h.h.h.h.h.h.h.h.h.h.h.h.h.h.h.h.h.h.h.h.h.h.h.h.h.h.h.h.",
"h.h.h.h.h.h.h.h.h.h.h.h.h.h.h.h.h.h.h.h.h.h.h.h.h.h.h.h.h.h.h.h.h.h.h.h.h.h.h.h.h.h.h.h.h.h.h.h.h.h.h.h.h.h.h.h.h.h.h.h.h.h.h.h.h.h.h.h.h.h.h.h.h.h.h.h.h.h.h.h.",
"h.h.h.h.h.h.h.h.h.h.h.h.h.h.h.h.h.h.h.h.h.h.h.h.h.h.h.h.h.h.h.h.h.h.h.h.h.h.h.h.h.h.h.h.h.h.h.h.h.h.h.h.h.h.h.h.h.h.h.h.h.h.h.h.h.h.h.h.h.h.h.h.h.h.h.h.h.h.h.h.",
"h.h.h.h.h.h.h.h.h.h.h.h.h.h.h.h.h.h.h.h.h.h.h.h.h.h.h.h.h.h.h.h.h.h.h.h.h.h.h.h.h.h.h.h.h.h.h.h.h.h.h.h.h.h.h.h.h.h.h.h.h.h.h.h.h.h.h.h.h.h.h.h.h.h.h.h.h.h.h.h.",
"h.h.h.h.h.h.h.h.h.h.h.h.h.h.h.h.h.h.h.h.h.h.h.h.h.h.h.h.h.h.h.h.h.h.h.h.h.h.h.h.h.h.h.h.h.h.h.h.h.h.h.h.h.h.h.h.h.h.h.h.h.h.h.h.h.h.h.h.h.h.h.h.h.h.h.h.h.h.h.h.",
"h.h.h.h.h.h.h.h.h.h.h.h.h.h.h.h.h.h.h.h.h.h.h.h.h.h.h.h.h.h.h.h.h.h.h.h.h.h.h.h.h.h.h.h.h.h.h.h.h.h.h.h.h.h.h.h.h.h.h.h.h.h.h.h.h.h.h.h.h.h.h.h.h.h.h.h.h.h.h.h."
};
