/* XPM */

"80 80 2 1 ",
"A c None",
"B c #FF69B4",
static char *penguin[] = {
"AAAAAAAAAAAAAAAAAAAAAAAAAAAAAAAAAAAAAAAAAAAAAAAAAAAAAAAAAAAAAAAAAAAAAAAAAAAAAAAA",
"AAAAAAAAAAAAAAAAAAAAAAAAAAAAAAAAAAAAAAAAAAAAAAAAAAAAAAAAAAAAAAAAAAAAAAAAAAAAAAAA",
"AAAAAAAAAAAAAAAAAAAAAAAAAAAAAAAAAAAAABBBBBBAAAAAAAAAAAAAAAAAAAAAAAAAAAAAAAAAAAAA",
"AAAAAAAAAAAAAAAAAAAAAAAAAAAAAAAAAABBBBBBBBBBBBAAAAAAAAAAAAAAAAAAAAAAAAAAAAAAAAAA",
"AAAAAAAAAAAAAAAAAAAAAAAAAAAAAAAABBBBBBBBBBBBBBBBAAAAAAAAAAAAAAAAAAAAAAAAAAAAAAAA",
"AAAAAAAAAAAAAAAAAAAAAAAAAAAAAAABBBBBBBBBBBBBBBBBBAAAAAAAAAAAAAAAAAAAAAAAAAAAAAAA",
"AAAAAAAAAAAAAAAAAAAAAAAAAAAAAAABBBBBBBBBBBBBBBBBBBAAAAAAAAAAAAAAAAAAAAAAAAAAAAAA",
"AAAAAAAAAAAAAAAAAAAAAAAAAAAAAABBBBBBBBBBBBBBBBBBBBBBAAAAAAAAAAAAAAAAAAAAAAAAAAAA",
"AAAAAAAAAAAAAAAAAAAAAAAAAAAAABBBBBBBBBBBBBBBBBBBBBBBBAAAAAAAAAAAAAAAAAAAAAAAAAAA",
"AAAAAAAAAAAAAAAAAAAAAAAAAAAAABBBBBBBBBBBBBBBBBBBBBBBBAAAAAAAAAAAAAAAAAAAAAAAAAAA",
"AAAAAAAAAAAAAAAAAAAAAAAAAAAABBBBBBBBBBBBBBBBBBBBBBBBBBBAAAAAAAAAAAAAAAAAAAAAAAAA",
"AAAAAAAAAAAAAAAAAAAAAAAAAAABBBBBBBBBBBBBBBBBBBBBBBBBBBBAAAAAAAAAAAAAAAAAAAAAAAAA",
"AAAAAAAAAAAAAAAAAAAAAAAAAAABBBBBBBBBBBBBBBBBBBBBBBBBBBBAAAAAAAAAAAAAAAAAAAAAAAAA",
"AAAAAAAAAAAAAAAAAAAAAAAAAAABBBBBBAABBBBBBBAABBBBBBBBBBBAAAAAAAAAAAAAAAAAAAAAAAAA",
"AAAAAAAAAAAAAAAAAAAAAAAAAAABBBBBAAAABBBBBAAAAABBBBBBBBBBAAAAAAAAAAAAAAAAAAAAAAAA",
"AAAAAAAAAAAAAAAAAAAAAAAAAAABBBBAAAAABBBBAAAAAABBBBBBBBBAAAAAAAAAAAAAAAAAAAAAAAAA",
"AAAAAAAAAAAAAAAAAAAAAAAAAAABBBBAAAAAABBBAAAAAABBBBBBBBBAAAAAAAAAAAAAAAAAAAAAAAAA",
"AAAAAAAAAAAAAAAAAAAAAAAAAAABBBBBAAAABBBBAAAAAAABBBBBBBBAAAAAAAAAAAAAAAAAAAAAAAAA",
"AAAAAAAAAAAAAAAAAAAAAAAAAAABBBBBAAAABBBBBAAAAABBBBBBBBBAAAAAAAAAAAAAAAAAAAAAAAAA",
"AAAAAAAAAAAAAAAAAAAAAAAAAAABBBBBBBBBBBBBBBBBBBBBBBBBBBBAAAAAAAAAAAAAAAAAAAAAAAAA",
"AAAAAAAAAAAAAAAAAAAAAAAAAAABBBBBBBABAAAAAABBBBBBBBBBBBBAAAAAAAAAAAAAAAAAAAAAAAAA",
"AAAAAAAAAAAAAAAAAAAAAAAAAAAABBBBBAAAAAAAAAAAABBBBBBBBBAAAAAAAAAAAAAAAAAAAAAAAAAA",
"AAAAAAAAAAAAAAAAAAAAAAAAAAAABBBBAAAAAAAAAAAAAABBBBBBBBBAAAAAAAAAAAAAAAAAAAAAAAAA",
"AAAAAAAAAAAAAAAAAAAAAAAAAAAABBBBAAAAAAAAAAAABBABBBBBBBBAAAAAAAAAAAAAAAAAAAAAAAAA",
"AAAAAAAAAAAAAAAAAAAAAAAAAAAABBBBBAAAAAAAAABBBABBBBBBBBBAAAAAAAAAAAAAAAAAAAAAAAAA",
"AAAAAAAAAAAAAAAAAAAAAAAAAAAAAABBBBAAAAABBBBAAABBBBBBBBBAAAAAAAAAAAAAAAAAAAAAAAAA",
"AAAAAAAAAAAAAAAAAAAAAAAAAAAAAABBBBBBBBBBAAABBABBBBABBBBBAAAAAAAAAAAAAAAAAAAAAAAA",
"AAAAAAAAAAAAAAAAAAAAAAAAAAAAABBBBBAAAAAAABBBAABBBBBABBBBAAAAAAAAAAAAAAAAAAAAAAAA",
"AAAAAAAAAAAAAAAAAAAAAAAAAAAAABBBBBBBAABBBBAAAAABBBBBBBBBBAAAAAAAAAAAAAAAAAAAAAAA",
"AAAAAAAAAAAAAAAAAAAAAAAAAAAABBBAABBBBBBBBAAAAAABBBBBBBBBBBAAAAAAAAAAAAAAAAAAAAAA",
"AAAAAAAAAAAAAAAAAAAAAAAAAAAABBBAAABBBBBBAAAAAAAABBBBBBBBBBAAAAAAAAAAAAAAAAAAAAAA",
"AAAAAAAAAAAAAAAAAAAAAAAAAAABBBAAAAABBBAAAAAAAAAAABBBBBBBBBAAAAAAAAAAAAAAAAAAAAAA",
"AAAAAAAAAAAAAAAAAAAAAAAAAABBBBAAAAAAAAAAAAAAAAAAABBBBBBBBBAAAAAAAAAAAAAAAAAAAAAA",
"AAAAAAAAAAAAAAAAAAAAAAAAAABBBBAAAAAAAAAAAAAAAAAAABBBBBBBBBBAAAAAAAAAAAAAAAAAAAAA",
"AAAAAAAAAAAAAAAAAAAAAAAAABBBBAAAAAAAAAAAAAAAAAAAAABBBBBBBBBBAAAAAAAAAAAAAAAAAAAA",
"AAAAAAAAAAAAAAAAAAAAAAAABBBBBAAAAAAAAAAAAAAAAAAAAABBBBBBBBBBBAAAAAAAAAAAAAAAAAAA",
"AAAAAAAAAAAAAAAAAAAAAAABBBBBBAAAAAAAAAAAAAAAAAAAAABBBBBBBBBBBBBAAAAAAAAAAAAAAAAA",
"AAAAAAAAAAAAAAAAAAAAAAABBBBBBAAAAAAAAAAAAAAAAAAAAAABBBBBBBBBBBBAAAAAAAAAAAAAAAAA",
"AAAAAAAAAAAAAAAAAAAAAABBBBBBBAAAAAAAAAAAAAAAAAAAAAABBBBBBBBBBBBAAAAAAAAAAAAAAAAA",
"AAAAAAAAAAAAAAAAAAAAAABBBBBBAAAAAAAAAAAAAAAAAAAAAAAABBBBBBBBBBBBAAAAAAAAAAAAAAAA",
"AAAAAAAAAAAAAAAAAAAAABBBBBBBAAAAAAAAAAAAAAAAAAAAAAAABBBBBBBBBBBBBAAAAAAAAAAAAAAA",
"AAAAAAAAAAAAAAAAAAAABBBBBBBAAAAAAAAAAAAAAAAAAAAAAAAAABBBBBBBBBBBBAAAAAAAAAAAAAAA",
"AAAAAAAAAAAAAAAAAAABBBBBBBBAAAAAAAAAAAAAAAAAAAAAAAAAABBBBBBBBBBBBAAAAAAAAAAAAAAA",
"AAAAAAAAAAAAAAAAAAABBBBBBBAAAAAAAAAAAAAAAAAAAAAAAAAAABBBBBBBBBBBBBAAAAAAAAAAAAAA",
"AAAAAAAAAAAAAAAAAAABBBBBBBAAAAAAAAAAAAAAAAAAAAAAAAAAAABBBBBBBBBBBBAAAAAAAAAAAAAA",
"AAAAAAAAAAAAAAAAAABBBBBBBAAAAAAAAAAAAAAAAAAAAAAAAAAAAABBBBBBBBBBBBAAAAAAAAAAAAAA",
"AAAAAAAAAAAAAAAAAABBBBBBBAAAAAAAAAAAAAAAAAAAAAAAAAAAAABBBBBBBBBBBBBAAAAAAAAAAAAA",
"AAAAAAAAAAAAAAAAABBBBBBBBAAAAAAAAAAAAAAAAAAAAAAAAAAAAABBBBBBBBBBBBBAAAAAAAAAAAAA",
"AAAAAAAAAAAAAAAAABBBBBBBBAAAAAAAAAAAAAAAAAAAAAAAAAAAAABBBBBBBBBBBBBAAAAAAAAAAAAA",
"AAAAAAAAAAAAAAAABBBBBBBBBAAAAAAAAAAAAAAAAAAAAAAAAAAAAABBBBBBBBBBBBBAAAAAAAAAAAAA",
"AAAAAAAAAAAAAAAABBBBBBBBBAAAAAAAAAAAAAAAAAAAAAAAAAAAAABBBBBBBBBBBBBAAAAAAAAAAAAA",
"AAAAAAAAAAAAAAAABBBBBABBBAAAAAAAAAAAAAAAAAAAAAAAAAAAAABBBBBBBBBBBBBAAAAAAAAAAAAA",
"AAAAAAAAAAAAAAAABBBBBBBBBAAAAAAAAAAAAAAAAAAAAAAAAAAAAAAABBBBBBBBBBBBAAAAAAAAAAAA",
"AAAAAAAAAAAAAAAABBBBBBBBAAAAAAAAAAAAAAAAAAAAAAAAAAAAAABBBBBBBBBBBBBAAAAAAAAAAAAA",
"AAAAAAAAAAAAAAAABBBBBBBBAAAAAAAAAAAAAAAAAAAAAAAAAAAAAABBBBBBBBBBBBBAAAAAAAAAAAAA",
"AAAAAAAAAAAAAAAAAAAAABBBBAAAAAAAAAAAAAAAAAAAAAAAAAAABBBBBBBBBBBBBBBAAAAAAAAAAAAA",
"AAAAAAAAAAAAAAAABAAAAABBBBAAAAAAAAAAAAAAAAAAAAAAAAABBABBBBBBBBBBBBAAAAAAAAAAAAAA",
"AAAAAAAAAAAAAAAABAAAAAABBBBAAAAAAAAAAAAAAAAAAAAAAAABAABBBBBBBBBBBAAAAAAAAAAAAAAA",
"AAAAAAAAAAAAAAABBAAAAAAABBBBAAAAAAAAAAAAAAAAAAAAAAABAAABBBBBBBBBAAABAAAAAAAAAAAA",
"AAAAAAAAAAAAAABBBAAAAAAABBBBBAAAAAAAAAAAAAAAAAAAAAABAAAABBBBBBAAAABAAAAAAAAAAAAA",
"AAAAAAAAABBBBBBBAAAAAAAAABBBBBBAAAAAAAAAAAAAAAAAAAABAAAAABAAAAAAAABAAAAAAAAAAAAA",
"AAAAAAAABBAAAAAAAAAAAAAAAABBBBBBAAAAAAAAAAAAAAAAAAABAAAAAAAAAAAAAABBAAAAAAAAAAAA",
"AAAAAAAABBAAAAAAAAAAAAAAAABBBBBBBAAAAAAAAAAAAAAAAAABAAAAAAAAAAAAAABBBAAAAAAAAAAA",
"AAAAAAAABBAAAAAAAAAAAAAAAAABBBBBBAAAAAAAAAAAAAAAAAABBAAAAAAAAAAAAAABBBAAAAAAAAAA",
"AAAAAAAABBBAAAAAAAAAAAAAAAAABBBBBAAAAAAAAAAAAAAAAAABBAAAAAAAAAAAAAAABBBAAAAAAAAA",
"AAAAAAAAABBAAAAAAAAAAAAAAAAABBBBBAAAAAAAAAAAAAAABBABBAAAAAAAAAAAAAAAAABBBAAAAAAA",
"AAAAAAAAABBAAAAAAAAAAAAAAAAAABBBAAAAAAAAAAAAAAAABBABBAAAAAAAAAAAAAAAAAABBAAAAAAA",
"AAAAAAAAABBAAAAAAAAAAAAAAAAAAABAAAAAAAAAAAAAAABBBBABBAAAAAAAAAAAAAAAAAABBAAAAAAA",
"AAAAAAAAABBAAAAAAAAAAAAAAAAAAABBABBAAAAAAAAAABBBBBABBAAAAAAAAAAAAAAAAABBAAAAAAAA",
"AAAAAAAABBAAAAAAAAAAAAAAAAAAAAABBBBBBAAAAABBBBBBBBBBBAAAAAAAAAAAAAAABBBAAAAAAAAA",
"AAAAAAAABBAAAAAAAAAAAAAAAAAAAAABBABBBBBBBBBBBBBBBBBBBAAAAAAAAAAAABBBBBAAAAAAAAAA",
"AAAAAAAABBAAAAAAAAAAAAAAAAAAAAABBBBBBBBBBBBBBBBBBABBAAAAAAAAAAABBBBBAAAAAAAAAAAA",
"AAAAAAAABBBBBAAAAAAAAAAAAAAAAAABBBBBBBBBBBBBBBBBBABBAAAAAAAAAABBBBAAAAAAAAAAAAAA",
"AAAAAAAAAABBBBBBBAAAAAAAAAAAAAABBBBBBBBBBBBBBBBBBBBBBAAAAAAABBBBAAAAAAAAAAAAAAAA",
"AAAAAAAAAAAAAABBBBBBBBAAAAAAAABBBBBBBBBBBBBBBBBBBBBBBBAAAAABBBBAAAAAAAAAAAAAAAAA",
"AAAAAAAAAAAAAAAAAABBBBBBBBAABBBBBAAAAAAAAAAAAAAAAABBBBBAABBBBBAAAAAAAAAAAAAAAAAA",
"AAAAAAAAAAAAAAAAAAAAABBBBBBBBBBBAAAAAAAAAAAAAAAAAAABBBBBBBBBBAAAAAAAAAAAAAAAAAAA",
"AAAAAAAAAAAAAAAAAAAAAAAABBBBBBAAAAAAAAAAAAAAAAAAAAAABBBBBBBAAAAAAAAAAAAAAAAAAAAA",
"AAAAAAAAAAAAAAAAAAAAAAAAAAAAAAAAAAAAAAAAAAAAAAAAAAAAAAAAAAAAAAAAAAAAAAAAAAAAAAAA",
"AAAAAAAAAAAAAAAAAAAAAAAAAAAAAAAAAAAAAAAAAAAAAAAAAAAAAAAAAAAAAAAAAAAAAAAAAAAAAAAA"};