/* XPM */
static char *a9l4y_wwrvj[] = {
/* columns rows colors chars-per-pixel */
"80 80 229 2 ",
"   c #020305",
".  c #020B0C",
"X  c #0A080C",
"o  c #180C0C",
"O  c #00110E",
"+  c #0E0D12",
"@  c #070F12",
"#  c #140D12",
"$  c #041211",
"%  c #0B1313",
"&  c #0E1A19",
"*  c #13191A",
"=  c #17161A",
"-  c #280D19",
";  c #25141B",
":  c #33111E",
">  c #2D1510",
",  c #14201E",
"<  c #3D2210",
"1  c #291A21",
"2  c #3A1825",
"3  c #1B2724",
"4  c #2E3032",
"5  c #45250C",
"6  c #482912",
"7  c #532D15",
"8  c #593215",
"9  c #673619",
"0  c #7B3E1C",
"q  c #743B19",
"w  c #652D11",
"e  c #48172A",
"r  c #56142D",
"t  c #5C1C34",
"y  c #440C21",
"u  c #6B1835",
"i  c #771839",
"p  c #4E2C2D",
"a  c #762A28",
"s  c #773523",
"d  c #643426",
"f  c #35423C",
"g  c #794519",
"h  c #714933",
"j  c #7A1F40",
"k  c #722F41",
"l  c #5D3C48",
"z  c #3A4545",
"x  c #525152",
"c  c #74534A",
"v  c #6C6966",
"b  c #6A6B69",
"n  c #726E6C",
"m  c #7D6969",
"M  c #75726D",
"N  c #78756E",
"B  c #797572",
"V  c #7E7A75",
"C  c #777974",
"Z  c #6C736A",
"A  c #85143C",
"S  c #970F3F",
"D  c #8C2D33",
"F  c #A83F36",
"G  c #833F10",
"H  c #87451D",
"J  c #924919",
"K  c #9A5117",
"L  c #884621",
"P  c #995525",
"I  c #984C2B",
"U  c #AB4932",
"Y  c #92643A",
"T  c #A86127",
"R  c #A96339",
"E  c #A44F1B",
"W  c #C46B1B",
"Q  c #8B1B42",
"!  c #861D42",
"~  c #931D46",
"^  c #961844",
"/  c #A91C4D",
"(  c #B71E53",
")  c #B1154B",
"_  c #892246",
"`  c #932349",
"'  c #9A3757",
"]  c #9F2F54",
"[  c #A72547",
"{  c #B92749",
"}  c #AC2151",
"|  c #B82155",
" . c #B83044",
".. c #B03961",
"X. c #C91D58",
"o. c #D81759",
"O. c #EB125C",
"+. c #E5155B",
"@. c #C62357",
"#. c #D3225D",
"$. c #DA225E",
"%. c #D72A57",
"&. c #C93B4A",
"*. c #E2245D",
"=. c #DF1F61",
"-. c #EE1760",
";. c #E71E62",
":. c #EA1E63",
">. c #F21D65",
",. c #F41E69",
"<. c #F91E68",
"1. c #F01760",
"2. c #ED0F60",
"3. c #DB2362",
"4. c #DD2A65",
"5. c #CC3365",
"6. c #E42263",
"7. c #EA2064",
"8. c #E42867",
"9. c #F12067",
"0. c #F52068",
"q. c #FA216A",
"w. c #F33072",
"e. c #B37655",
"r. c #A44765",
"t. c #B4496C",
"y. c #B15773",
"u. c #9B6875",
"i. c #817D76",
"p. c #827D7A",
"a. c #8B7B77",
"s. c #99717A",
"d. c #8C6E6D",
"f. c #AA6978",
"g. c #8B5963",
"h. c #C3456D",
"j. c #D56067",
"k. c #7C837A",
"l. c #85827C",
"z. c #88847E",
"x. c #81857A",
"c. c #948174",
"v. c #B59077",
"b. c #D48C4B",
"n. c #CC956C",
"m. c #757D86",
"M. c #987D83",
"N. c #A67984",
"B. c #D85A81",
"V. c #E3658B",
"C. c #E4698D",
"Z. c #EC6490",
"A. c #D56487",
"S. c #758088",
"D. c #8B8682",
"F. c #848C84",
"G. c #8C8985",
"H. c #8C8C8A",
"J. c #878380",
"K. c #928D8A",
"L. c #948A85",
"P. c #89928A",
"I. c #95938D",
"U. c #9C9993",
"Y. c #999895",
"T. c #8F9B93",
"R. c #A29E98",
"E. c #A29B95",
"W. c #A78C89",
"Q. c #9BA399",
"!. c #A4A19A",
"~. c #A8A49D",
"^. c #ADA9A3",
"/. c #A9A8A1",
"(. c #B1ACA6",
"). c #B4AFA8",
"_. c #ACB3A9",
"`. c #B5B2AB",
"'. c #B9B4AE",
"]. c #BDB8AF",
"[. c #BBB7B0",
"{. c #BEB9B3",
"}. c #B1B6B6",
"|. c #C78E8A",
" X c #E28098",
".X c #DF8AA0",
"XX c #C1BCB5",
"oX c #C4BEB8",
"OX c #DCA0AC",
"+X c #D9AE9E",
"@X c #BBC4B8",
"#X c #C6C2BA",
"$X c #CAC5BD",
"%X c #CCC8BE",
"&X c #C3C1B5",
"*X c #DAC6B8",
"=X c #E5CCB7",
"-X c #B7BAC2",
";X c #CECAC1",
":X c #CCC9C3",
">X c #D2CEC4",
",X c #DACAC3",
"<X c #D6D2C8",
"1X c #DBD5CB",
"2X c #DED8CE",
"3X c #D6D1C6",
"4X c #DFDCD1",
"5X c #D4D8D7",
"6X c #C4CCD5",
"7X c #E2D6CD",
"8X c #E4DDD3",
"9X c #E9DFD6",
"0X c #DDE2D4",
"qX c #E7E0D6",
"wX c #E9E2D7",
"eX c #ECE5DA",
"rX c #E5EADB",
"tX c #EEE8DD",
"yX c #F1EADF",
"uX c #EBEBE2",
"iX c #F4EDE2",
"pX c #ECF2E4",
"aX c #F6F0E4",
"sX c #F8F2E6",
"dX c #FCF4E9",
"fX c #FFFAEE",
"gX c #F4F7EA",
"hX c #FFFFF4",
"jX c #F6FBF0",
/* pixels */
":.:.:.:.:.:.:.:.:.:.:.:.:.:.:.:.:.:.:.:.:.:.:.:.:.:.:.:.:.:.:.:.:.:.:.:.:.:.:.:.:.:.:.:.:.:.:.:.:.:.:.:.:.:.:.:.:.:.:.:.:.:.:.:.:.:.:.:.:.:.:.:.:.:.:.:.:.:.:.:.",
":.:.:.:.:.:.:.:.:.:.:.:.:.:.:.:.:.:.:.:.:.:.:.:.:.:.:.:.:.:.:.:.:.:.:.:.:.:.:.:.:.:.:.:.:.:.:.:.:.:.:.:.:.:.:.:.:.:.:.:.:.:.:.:.:.:.:.:.:.:.:.:.:.:.:.:.:.:.:.:.",
":.:.:.:.:.:.:.:.:.:.:.:.:.:.:.:.:.:.:.:.:.:.:.:.:.:.:.:.:.:.:.:.:.:.:.:.:.:.:.:.:.:.:.:.:.:.:.:.:.:.:.:.:.:.:.:.:.:.:.:.:.:.:.:.:.:.:.:.:.:.:.:.:.:.:.:.:.:.:.:.",
":.:.:.:.:.:.:.:.:.:.:.:.:.:.:.:.:.:.:.:.:.:.:.:.:.:.:.:.:.:.:.:.;.;.;.;.:.:.:.:.:.:.:.:.:.:.:.:.:.:.:.:.:.:.:.:.:.:.:.:.:.:.:.:.:.:.:.:.:.:.:.:.:.:.:.:.:.:.:.:.",
":.:.:.:.:.:.:.:.:.:.:.:.:.:.:.:.:.:.:.:.:.:.:.:.:.:.:.:.:.:.;.:.>.<.q.q.7.:.:.:.:.:.:.:.:.:.:.:.:.:.:.:.:.:.:.:.:.:.:.:.:.:.:.:.:.:.:.:.:.:.:.:.:.:.:.:.:.:.:.:.",
":.:.:.:.:.:.:.:.:.:.:.:.:.:.:.:.:.:.:.:.:.:.:.:.:.:.:.:.:.:.0.6.| ` i S +.0.:.:.:.:.:.:.:.:.:.:.:.:.:.:.:.:.:.:.:.:.:.:.:.:.:.:.:.:.:.:.:.:.:.:.:.:.:.:.:.:.:.:.",
":.:.:.:.:.:.:.:.:.:.:.:.:.:.:.:.:.:.:.:.:.:.:.:.:.:.:.:.:.7.Q ; % . f V c X.0.;.:.:.:.:.:.:.:.:.:.:.:.:.:.:.:.:.:.:.:.:.:.:.:.:.:.:.:.:.:.:.:.:.:.:.:.:.:.:.:.:.",
":.:.:.:.:.:.:.:.:.:.:.:.:.:.:.:.:.:.:.:.:.:.:.:.:.:.:.:.3.e $ x 4 v 9XdXpXW.o.7.:.:.:.:.:.:.:.:.:.:.:.:.:.:.:.:.:.:.:.:.:.:.:.:.:.:.:.:.:.:.:.:.:.:.:.:.:.:.:.:.",
":.:.:.:.:.:.:.:.:.:.:.:.:.:.:.:.:.:.:.:.:.:.:.:.:.:.:.;.2   x tX>X8XqX8XtXjXN.o.7.:.:.:.:.:.:.:.:.:.:.:.:.:.:.:.:.:.:.:.:.:.:.:.:.:.:.:.:.:.:.:.:.:.:.:.:.:.:.:.",
":.:.:.:.:.:.:.:.:.:.:.:.:.:.:.:.:.:.:.:.:.:.:.:.:.;.,._ b p.oX8X1X1X4X9XwXiXrX' 1.:.:.:.:.:.:.:.:.:.:.:.:.:.:.:.:.:.:.:.:.:.:.:.:.:.:.:.:.:.:.:.:.:.:.:.:.:.:.:.",
":.:.:.:.:.:.:.:.:.:.:.:.:.>.@.| >.:.:.:.:.:.:.:.:.7.o.M.4X[.XX4X1X<X2XwXyXeXfXY.) 0.;.:.:.:.:.:.:.:.:.:.:.:.:.:.:.:.:.:.:.:.:.:.:.:.:.:.:.:.:.:.:.:.:.:.:.:.:.:.",
":.:.:.:.:.:.:.:.:.:.:.:.:.,.( j 0.;.:.:.:.:.:.:.:.>.5.'.{.~.R.oX1X<X2X{.#XeXdX#X2 7.:.:.:.:.:.:.:.:.:.:.:.:.:.:.:.:.:.:.:.:.:.:.:.:.:.:.:.:.:.:.:.:.:.:.:.:.:.:.",
":.:.:.:.:.:.:.:.:.:.:.:.:.,.| 2 7.:.:.:.:.:.:.:.:.1.t.}.XX(.Y.R.>X9X{.}.uX8XtXiXT.~ <.:.:.:.:.:.:.:.:.:.:.:.:.:.:.:.:.:.:.:.:.:.:.:.:.:.:.:.:.:.:.:.:.:.:.:.:.:.",
":.:.:.:.:.:.:.:.:.:.:.:.:.>.X.= @.>.:.:.:.:.:.:.:.-.t._.oX`.K.G.[.eX^.5XS.H.iXiXhXm o.0.:.:.:.:.:.:.:.:.:.:.:.:.:.:.:.:.:.:.:.:.:.:.:.:.:.:.:.:.:.:.:.:.:.:.:.:.",
":.:.:.:.:.:.:.:.:.:.:.:.:.>.#.* Q <.;.:.:.:.:.:.7.-.t._.oX/.Y.Y.L.*XXXL.4 m.fX=X=X@XA q.;.:.:.:.:.:.:.:.:.:.:.:.:.:.:.:.:.:.:.:.:.:.:.:.:.:.:.:.:.:.:.:.:.:.:.:.",
":.:.:.:.:.:.:.:.:.:.:.:.:.:.=.; 2 7.:.:.:.:.:.:.7.-.r./.`.}.6XY.W.e.,XE.L.+Xn.K n.jXx X.7.:.:.:.:.:.:.:.:.:.:.:.:.:.:.:.:.:.:.:.:.:.:.:.:.:.:.:.:.:.:.:.:.:.:.:.",
":.:.:.:.:.:.:.:.:.:.:.:.:.:.7.e $ ( ,.;.:.:.:.:.7.-.' Q.~.-Xx z v.W b.b.b.P 5 G +XhXP.u q.;.:.:.:.:.:.:.:.:.:.:.:.:.:.:.:.:.:.:.:.:.:.:.:.:.:.:.:.:.:.:.:.:.:.:.",
":.:.:.:.:.:.:.:.:.:.:.:.:.;.0.u O r 0.:.:.:.:.:.;.>._ P.E.H.m.H.Y T g g 8   5 T 7XsX>X1 X.0.:.:.:.:.:.:.:.:.:.:.:.:.:.:.:.:.:.:.:.:.:.:.:.:.:.:.:.:.:.:.:.:.:.:.",
":.:.:.:.:.:.:.:.:.:.:.:.:.;.<.~ % + | 0.;.:.:.:.:.1.' T.Y.p.a.Y 6 o o X X > J |.gXeXiXz u q.;.:.:.:.:.:.:.:.:.:.:.:.:.:.:.:.:.:.:.:.:.:.:.:.:.:.:.:.:.:.:.:.:.:.",
":.:.:.:.:.:.:.:.:.:.:.:.:.:.>.X.= . e 9.:.:.:.:.:.1.r.T.a.c g 5 o - o p p q e.tXeXeXfXl.# #.:.:.:.:.:.:.:.:.:.:.:.:.:.:.:.:.:.:.:.:.:.:.:.:.:.:.:.:.:.:.:.:.:.:.",
":.:.:.:.:.:.:.:.:.:.:.:.:.:.:.7.e % . / ,.;.:.:.:.1...x.8 > X   o p k |.R R 8XtXeXyXdXoX% u 0.;.:.:.:.:.:.:.:.:.:.:.:.:.:.:.:.:.:.:.:.:.:.:.:.:.:.:.:.:.:.:.:.:.",
":.:.:.:.:.:.:.:.:.:.:.:.:.:.;.<.~ % X : 7.:.:.:.7.>.] P.c 5 < > o p f.e.J *XaXwXyXyXaXiX4 % @.>.;.:.:.:.:.:.:.:.:.:.:.:.:.:.:.:.:.:.:.:.:.:.:.:.:.:.:.:.:.:.:.:.",
":.:.:.:.:.:.:.:.:.:.:.:.:.:.:.:.$.1 % . ~ q.;.:.:.,.` F.K.c h 9 8 w 0 w v.eXqXtXaXaXyXhXv . t 0.;.:.:.:.:.:.:.:.:.:.:.:.:.:.:.:.:.:.:.:.:.:.:.:.:.:.:.:.:.:.:.:.",
":.:.:.:.:.:.:.:.:.:.:.:.:.:.:.;.<.i $ @ ; 6.:.:.:.,.~ C K.G.l.i.d.h h c.#X3XwXiXaXaXyXfX^.# * ` q.:.:.:.;.:.:.:.:.:.:.:.:.:.:.:.:.:.:.:.:.:.:.:.:.:.:.:.:.:.:.:.",
":.:.:.:.:.:.:.:.:.:.:.:.:.:.:.:.>.X.= + . Q q.;.;.q.Q b L.p.p.l.G.G.G.!.oX8XiXiXaXaXaXsXtX4 % ; } #.6.0.,.:.;.:.:.:.:.:.:.:.:.:.:.:.:.:.:.:.:.:.:.:.:.:.:.:.:.:.",
":.:.:.:.:.:.:.:.:.:.:.:.:.:.:.:.;.0.u $ X - 6.:.;.q.A x D.B B B B B i.`.9XiXaXaXsXaXaXiXhXz.X = = = 2 t [ 6.,.:.:.:.:.:.:.:.:.:.:.:.:.:.:.:.:.:.:.:.:.:.:.:.:.:.",
":.:.:.:.:.:.:.:.:.:.:.:.:.:.:.:.:.>.X.= + . Q <.;.q.A z J.M v v v n U.8XiXiXiXsXsXsXsXaXdXwX4 = * e ; $ * e } 0.:.;.:.:.:.:.:.:.:.:.:.:.:.:.:.:.:.:.:.:.:.:.:.:.",
":.:.:.:.:.:.:.:.:.:.:.:.:.:.:.:.:.;.0.u $ . - 6.:.q.A 4 z.M n b v D.%XiXiXiXaXsXsXaXsXsXiXfX!.+ & i 3.2 $ * * u 3.>.;.:.:.:.:.:.:.:.:.:.:.:.:.:.:.:.:.:.:.:.:.:.",
":.:.:.:.:.:.:.:.:.:.:.:.:.:.:.:.:.:.:.#.; + . ~ 0.0.i 3 p.M n n N ^.wXyXiXiXiXiXsXiXsXaXaXyXdXM . ; 6.7.u X = & 2 @.<.;.:.:.:.:.:.:.:.:.:.:.:.:.:.:.:.:.:.:.:.:.",
":.:.:.:.:.:.:.:.:.:.:.:.:.:.:.:.:.:.;.<.~ $ . : 6.q.u 3 p.N n n K.<XiXtXyXiXiXaXsXaXaXaXaXiXiXiXV % A q.9.^ # % * = } 0.:.:.:.:.:.:.:.:.:.:.:.:.:.:.:.:.:.:.:.:.",
":.:.:.:.:.:.:.:.:.:.:.:.:.:.:.:.:.:.:.:.0.r . . / q.r * i.B M p.{.tXtXiXiXiXiXaXsXsXaXaXiXyXiXyXdX#Xl o.7.0.X.: . = * ` 0.;.:.:.:.:.:.:.:.:.:.:.:.:.:.:.:.:.:.:.",
":.:.:.:.:.:.:.:.:.:.:.:.:.:.:.:.:.:.:.:.>.#.; . t q.y , p.B B R.8XtXtXiXiXiXiXaXsXsXiXaXiXyXyXyXeXdX5X..1.;.0.6.r . = * _ 0.:.:.:.:.:.:.:.:.:.:.:.:.:.:.:.:.:.:.",
":.:.:.:.:.:.:.:.:.:.:.:.:.:.:.:.:.:.:.:.;.,.( + + | - 3 l.B G.%XtXeXtXiXiXiXiXiXaXiXiXaXiXiXyXyXtXwXgX|.o.7.;.:.9.Q + % * _ 0.;.:.:.:.:.:.:.:.:.:.:.:.:.:.:.:.:.",
":.:.:.:.:.:.:.:.:.:.:.:.:.:.:.:.:.:.:.:.:.;.0.( # .   4 l.V ^.9XwXtXtXyXiXiXiXaXiXiXiXiXiXiXiXyXyXtXiX1X5.1.:.:.:.q.( - @ * } ,.;.:.:.:.:.:.:.:.:.:.:.:.:.:.:.:.",
":.:.:.:.:.:.:.:.:.:.:.:.:.:.:.:.:.:.:.:.:.:.;.0.X.-   x l.H.;XwXwXeXtXyXiXiXiXiXiXaXiXiXiXiXiXyXtXtXeXpXA.O.7.:.:.;.,.$.y . 2 3.:.:.:.:.:.:.:.:.:.:.:.:.:.:.:.:.",
":.:.:.:.:.:.:.:.:.:.:.:.:.:.:.:.:.:.:.:.:.:.:.;.q./   x J.^.2X8XwXwXtXiXiXiXiXiXiXsXiXiXiXiXiXtXiXtXeXiX,X#.:.:.:.:.;.>.7.r O i 0.;.:.:.:.:.:.:.:.:.:.:.:.:.:.:.",
":.:.:.:.:.:.:.:.:.:.:.:.:.:.:.:.:.:.:.:.:.:.:.:.,.) . v K.#X2X8XwXeXtXtXiXiXiXaXiXiXaXiXiXiXiXyXyXyXeXeXpXB.O.7.:.:.:.:.:.7.e & @.>.:.:.:.:.:.:.:.:.:.:.:.:.:.:.",
":.:.:.:.:.:.:.:.:.:.:.:.:.:.:.:.:.:.:.:.:.:.:.;.q.^ 3 G.~.>X1X8XwXeXeXtXiXiXiXiXiXiXiXaXiXiXiXyXiXtXtXeXaXOX+.7.:.:.:.:.;.:.6.; t q.;.:.:.:.:.:.:.:.:.:.:.:.:.:.",
":.:.:.:.:.:.:.:.:.:.:.:.:.:.:.:.:.:.:.:.:.:.:.;.q.^ x U.XX3X1X8X8XeXtXtXtXiXiXiXiXiXiXiXiXiXuXiXiXyXyXtXtX7X4.-.:.:.:.:.:.;.0.( 1 #.>.:.:.:.:.:.:.:.:.:.:.:.:.:.",
":.:.:.:.:.:.:.:.:.:.:.:.:.:.:.:.:.:.:.:.:.:.:.:.1.] k.^.%X>X1X2X9XwXeXeXyXiXiXiXiXiXiXiXiXiXiXiXiXiXiXtXeXuXB.O.7.:.:.:.:.:.;.q.! j q.;.:.:.:.:.:.:.:.:.:.:.:.:.",
":.:.:.:.:.:.:.:.:.:.:.:.:.:.:.:.:.:.:.:.:.:.:.:.1.r.P.XX%X>X1X2X8X9XwXeXyXiXiXiXiXiXiXiXiXiXiXiXiXiXyXtXeXpX.XO.7.:.:.:.:.:.:.:.7.~ 3.:.:.:.:.:.:.:.:.:.:.:.:.:.",
":.:.:.:.:.:.:.:.:.:.:.:.:.:.:.:.:.:.:.:.:.:.:.:.-.y.Q.#X$X;X3X2X8X9XqXeXeXtXiXiXiXiXiXiXiXiXiXiXtXyXtXeXwXpX*X+.:.:.:.:.:.:.:.:.:.:.;.:.:.:.:.:.:.:.:.:.:.:.:.:.",
":.:.:.:.:.:.:.:.:.:.:.:.:.:.:.:.:.:.:.:.:.:.:.:.:.u._.oX#X%X>X1X2X8XwXeXwXtXyXiXiXiXiXiXiXiXtXiXyXtXeXeXeXtX7X8.:.:.:.:.:.:.:.:.:.:.:.:.:.:.:.:.:.:.:.:.:.:.:.:.",
":.:.:.:.:.:.:.:.:.:.:.:.:.:.:.:.:.:.:.:.:.:.:.:.:.N.`.XX#X%X;X3X<X2X8XwXwXtXtXyXiXyXiXiXtXiXiXtXtXtXeXeXeXeXwXw.O.:.:.:.:.:.:.:.:.:.:.:.:.:.:.:.:.:.:.:.:.:.:.:.",
":.:.:.:.:.:.:.:.:.:.:.:.:.:.:.:.:.:.:.:.:.:.:.:.:.N.`.[.XX$X%X>X<X1X2X8XqXeXeXtXyXtXtXtXtXtXtXtXtXtXeXwXwXwXeXw.O.7.:.:.:.:.:.:.:.:.:.:.:.:.:.:.:.:.:.:.:.:.:.:.",
":.:.:.:.:.:.:.:.:.:.:.:.:.:.:.:.:.:.:.:.:.:.:.:.;.N._.'.{.#X%X;X>X1X2X2X8XwXwXwXtXtXeXtXtXtXeXeXeXeXwXwXwXwXeXB.O.7.:.:.:.:.:.:.:.:.:.:.:.:.:.:.:.:.:.:.:.:.:.:.",
":.:.:.:.:.:.:.:.:.:.:.:.:.:.:.:.:.:.:.:.:.:.:.:.:.N./.`.{.XX#X%X;X>X<X1X2X8X9X9XeXtXeXeXeXeXwXeXwXwXwXwXwXwXrXV.O.7.:.:.:.:.:.:.:.:.:.:.:.:.:.:.:.:.:.:.:.:.:.:.",
":.:.:.:.:.:.:.:.:.:.:.:.:.:.:.:.:.:.:.:.:.:.:.:.:.s.Q.(.'.[.XXXX%X;X>X>X1X8X9X9X9XwXwXwXeXwXwXwXwXqXqX9XqXwXrXC.O.7.:.:.:.:.:.:.:.:.:.:.:.:.:.:.:.:.:.:.:.:.:.:.",
":.:.:.:.:.:.:.:.:.:.:.:.:.:.:.:.:.:.:.:.:.:.:.:.-.f.P.~.`.'.{.XX#X:X;X>X<X1X2X8X8X8X9X9XwXwXqX9X9X9X9XqXqXwXrXC.O.7.:.:.:.:.:.:.:.:.:.:.:.:.:.:.:.:.:.:.:.:.:.:.",
":.:.:.:.:.:.:.:.:.:.:.:.:.:.:.:.:.:.:.:.:.:.:.:.-.y.F.Y.^.`.'.{.XX$X$X>X>X<X<X2X2X4X8X8X8X8X8X8X8X8X8X9XqX9XrXV.O.7.:.:.:.:.:.:.:.:.:.:.:.:.:.:.:.:.:.:.:.:.:.:.",
":.:.:.:.:.:.:.:.:.:.:.:.:.:.:.:.:.:.:.:.:.:.:.7.1.t.F.G.R.^.`.'.{.oX#X%X;X>X>X<X1X1X2X2X1X2X2X1X1X8X8X8X8X8XrXV.O.7.:.:.:.:.:.:.:.:.:.:.:.:.:.:.:.:.:.:.:.:.:.:.",
":.:.:.:.:.:.:.:.:.:.:.:.:.:.:.:.:.:.:.:.:.:.:.:.-.5.G.D.K.!.^.`.'.{.oX$X$X:X;X>X>X3X<X<X3X<X<X1X1X1X2X2X7X8X0XV.O.7.7.:.:.:.:.:.:.:.:.:.:.:.:.:.:.:.:.:.:.:.:.:.",
":.:.:.:.:.:.:.:.:.:.:.:.:.:.:.:.:.:.:.:.:.:.:.:.:.6.L.G.G.I.R.^.`.[.{.oXoX#X:X%X:X;X>X;X>X>X>X>X>X<X1X1X2X7X0XV.2.%.&.:.:.:.:.:.:.:.:.:.:.:.:.:.:.:.:.:.:.:.:.:.",
":.:.:.:.:.:.:.:.:.:.:.:.:.:.:.:.:.:.:.:.:.:.:.:.:.-.f.P.G.G.K.R.^.(.'.[.XXXX#X#X#X$X$X$X%X%X%X%X%X;X>X<X<X1X0XC.2.U U ,.:.:.:.:.:.:.:.:.:.:.:.:.:.:.:.:.:.:.:.:.",
":.:.:.:.:.:.:.:.:.:.:.:.:.:.:.:.:.:.:.:.:.:.:.:.:.-.h.H.G.G.G.K.!.^.(.`.[.{.{.XXoXXXXXXX#X#X#X#X#X$X%X>X<X<XrXZ.O.P F %.*.:.:.:.:.:.:.:.:.:.:.:.:.:.:.:.:.:.:.:.",
":.:.:.:.:.:.:.:.:.:.:.:.:.:.:.:.:.:.:.:.:.:.:.:.:.:.6.M.G.G.G.D.I.R.^.(.`.'.'.[.{.[.[.[.{.{.XXXXXXoX#X%X<X1XrX X{ J I U *.:.:.:.:.:.:.:.:.:.:.:.:.:.:.:.:.:.:.:.",
":.:.:.:.:.:.:.:.:.:.:.:.:.:.:.:.:.:.:.:.:.:.:.:.:.:.-.y.P.G.G.G.G.K.U.~.^.(.`.`.'.`.`.`.`.'.'.].].[.[.#X1X7XuXv.L I J I 6.:.:.:.:.:.:.:.:.:.:.:.:.:.:.:.:.:.:.:.",
":.:.:.:.:.:.:.:.:.:.:.:.:.:.:.:.:.:.:.:.:.:.:.:.:.:.-.4.L.G.G.G.G.D.G.I.R.~./.^.(.(.(.(.(.(.).(.`.).`.#X1XwX,XI H L H U 7.:.:.:.:.:.:.:.:.:.:.:.:.:.:.:.:.:.:.:.",
":.:.:.:.:.:.:.:.:.:.:.:.:.:.:.:.:.:.:.:.:.:.:.:.:.:.7.-.y.P.G.G.G.G.G.G.K.I.U.R.!.R.!.R.!.R.U.U.U.U./.`.>X=XR H L L H F :.:.:.:.:.:.:.:.:.:.:.:.:.:.:.:.:.:.:.:.",
":.:.:.:.:.:.:.:.:.:.:.:.:.:.:.:.:.:.:.:.:.:.:.:.:.:.:.:.4.L.H.G.G.G.G.G.G.G.G.G.K.K.K.G.G.G.G.G.G.K.I.R.'.e.E L H 0 g  .>.:.:.:.:.:.:.:.:.:.:.:.:.:.:.:.:.:.:.:.",
":.:.:.:.:.:.:.:.:.:.:.:.:.:.:.:.:.:.:.:.:.:.:.:.:.:.:.7.-.h.P.G.G.G.G.G.G.G.D.D.D.z.z.z.l.D.D.D.D.G.K.I.E.P L g 0 q G $.:.:.:.:.:.:.:.:.:.:.:.:.:.:.:.:.:.:.:.:.",
":.:.:.:.:.:.:.:.:.:.:.:.:.:.:.:.:.:.:.:.:.:.:.:.:.:.:.:.:.:.f.F.D.D.G.D.D.D.D.D.z.z.l.l.z.D.D.D.D.D.D.K.c.0 q 0 0 q  .>.;.:.:.:.:.:.:.:.:.:.:.:.:.:.:.:.:.:.:.:.",
":.:.:.:.:.:.:.:.:.:.:.:.:.:.:.:.:.:.:.:.:.:.:.:.:.:.:.:.:.:.6.s.F.D.D.D.D.z.z.l.l.l.l.l.l.z.l.l.l.F.F.T.d.8 9 0 q s 6.:.:.:.:.:.:.:.:.:.:.:.:.:.:.:.:.:.:.:.:.:.",
":.:.:.:.:.:.:.:.:.:.:.:.:.:.:.:.:.:.:.:.:.:.:.:.:.:.:.:.:.7.-.4.s.x.l.l.l.l.l.l.p.i.V i.k.k.V i.a.s.f.y.5.{ s 9 9 %.:.:.:.:.:.:.:.:.:.:.:.:.:.:.:.:.:.:.:.:.:.:.",
":.:.:.:.:.:.:.:.:.:.:.:.:.:.:.:.:.:.:.:.:.:.:.:.:.:.:.:.:.:.7.-.6.u.k.p.p.p.V V B N M N d.t.h.5.4.;.-.-.-.<.{ s @.>.:.:.:.:.:.:.:.:.:.:.:.:.:.:.:.:.:.:.:.:.:.:.",
":.:.:.:.:.:.:.:.:.:.:.:.:.:.:.:.:.:.:.:.:.:.:.:.:.:.:.:.:.:.:.7.:.:.t.V V V B B M M Z g.:.1.-.-.:.:.:.:.:.:.:.6.:.:.:.:.:.:.:.:.:.:.:.:.:.:.:.:.:.:.:.:.:.:.:.:.",
":.:.:.:.:.:.:.:.:.:.:.:.:.:.:.:.:.:.:.:.:.:.:.:.:.:.:.:.:.:.:.:.6.:.-.5.d.C N N M n b 5.>.6.:.:.:.:.:.:.:.:.:.:.:.:.:.:.:.:.:.:.:.:.:.:.:.:.:.:.:.:.:.:.:.:.:.:.",
":.:.:.:.:.:.:.:.:.:.:.:.:.:.:.:.:.:.:.:.:.:.:.:.:.:.:.:.:.:.:.:.:.:.:.-.;.t.m Z n v c $.:.:.:.:.:.:.:.:.:.:.:.:.:.:.:.:.:.:.:.:.:.:.:.:.:.:.:.:.:.:.:.:.:.:.:.:.",
":.:.:.:.:.:.:.:.:.:.:.:.:.:.:.:.:.:.:.:.:.:.:.:.:.:.:.:.:.:.:.:.:.:.:.:.:.1.3.r.c d 7 D >.:.:.:.:.:.:.:.:.:.:.:.:.:.:.:.:.:.:.:.:.:.:.:.:.:.:.:.:.:.:.:.:.:.:.:.",
":.:.:.:.:.:.:.:.:.:.:.:.:.:.:.:.:.:.:.:.:.:.:.:.:.:.:.:.:.:.:.:.:.:.:.:.:.6.:.<.[ 7 9 7 { >.:.:.:.:.:.:.:.:.:.:.:.:.:.:.:.:.:.:.:.:.:.:.:.:.:.:.:.:.:.:.:.:.:.:.",
":.:.:.:.:.:.:.:.:.:.:.:.:.:.:.:.:.:.:.:.:.:.:.:.:.:.:.:.:.:.:.:.:.:.:.:.:.>.0.%.a 8 9 8 a :.:.:.:.:.:.:.:.:.:.:.:.:.:.:.:.:.:.:.:.:.:.:.:.:.:.:.:.:.:.:.:.:.:.:.",
":.:.:.:.:.:.:.:.:.:.:.:.:.:.:.:.:.:.:.:.:.:.:.:.:.:.:.:.:.:.:.:.:.:.:.:.7.@.D 9 7 7 9 9 d ;.:.:.:.:.:.:.:.:.:.:.:.:.:.:.:.:.:.:.:.:.:.:.:.:.:.:.:.:.:.:.:.:.:.:.",
":.:.:.:.:.:.:.:.:.:.:.:.:.:.:.:.:.:.:.:.:.:.:.:.:.:.:.:.:.:.:.:.:.:.:.7.D 9 8 7 6 < 7 6 D >.:.:.:.:.:.:.:.:.:.:.:.:.:.:.:.:.:.:.:.:.:.:.:.:.:.:.:.:.:.:.:.:.:.:.",
":.:.:.:.:.:.:.:.:.:.:.:.:.:.:.:.:.:.:.:.:.:.:.:.:.:.:.:.:.:.:.:.:.:.:.6.@.D s a D D 9 a #.:.:.:.:.:.:.:.:.:.:.:.:.:.:.:.:.:.:.:.:.:.:.:.:.:.:.:.:.:.:.:.:.:.:.:.",
":.:.:.:.:.:.:.:.:.:.:.:.:.:.:.:.:.:.:.:.:.:.:.:.:.:.:.:.:.:.:.:.:.:.:.:.:.$.$.:.>.7.%.7.:.:.:.:.:.:.:.:.:.:.:.:.:.:.:.:.:.:.:.:.:.:.:.:.:.:.:.:.:.:.:.:.:.:.:.:.",
":.:.:.:.:.:.:.:.:.:.:.:.:.:.:.:.:.:.:.:.:.:.:.:.:.:.:.:.:.:.:.:.:.:.:.:.:.:.:.:.;.:.:.:.:.:.:.:.:.:.:.:.:.:.:.:.:.:.:.:.:.:.:.:.:.:.:.:.:.:.:.:.:.:.:.:.:.:.:.:.",
":.:.:.:.:.:.:.:.:.:.:.:.:.:.:.:.:.:.:.:.:.:.:.:.:.:.:.:.:.:.:.:.:.:.:.:.:.:.:.:.:.:.:.:.:.:.:.:.:.:.:.:.:.:.:.:.:.:.:.:.:.:.:.:.:.:.:.:.:.:.:.:.:.:.:.:.:.:.:.:.",
":.:.:.:.:.:.:.:.:.:.:.:.:.:.:.:.:.:.:.:.:.:.:.:.:.:.:.:.:.:.:.:.:.:.:.:.:.:.:.:.:.:.:.:.:.:.:.:.:.:.:.:.:.:.:.:.:.:.:.:.:.:.:.:.:.:.:.:.:.:.:.:.:.:.:.:.:.:.:.:.",
":.:.:.:.:.:.:.:.:.:.:.:.:.:.:.:.:.:.:.:.:.:.:.:.:.:.:.:.:.:.:.:.:.:.:.:.:.:.:.:.:.:.:.:.:.:.:.:.:.:.:.:.:.:.:.:.:.:.:.:.:.:.:.:.:.:.:.:.:.:.:.:.:.:.:.:.:.:.:.:.",
":.:.:.:.:.:.:.:.:.:.:.:.:.:.:.:.:.:.:.:.:.:.:.:.:.:.:.:.:.:.:.:.:.:.:.:.:.:.:.:.:.:.:.:.:.:.:.:.:.:.:.:.:.:.:.:.:.:.:.:.:.:.:.:.:.:.:.:.:.:.:.:.:.:.:.:.:.:.:.:."
};
