/* XPM */
static char *apxi4_1a816[] = {
/* columns rows colors chars-per-pixel */
"80 80 174 2 ",
"   c #B3CEE7",
".  c #B6D1E7",
"X  c #B6D1E8",
"o  c #BDD5EA",
"O  c #C1D6E7",
"+  c #C0D7EB",
"@  c #C5DAED",
"#  c #CEDFEF",
"$  c #CCDFEE",
"%  c #CADEEE",
"&  c #D0DFEC",
"*  c #CADDF0",
"=  c #C9DEF0",
"-  c #CBDFF0",
";  c #CCDEF0",
":  c #CCDFF0",
">  c #CDDFF0",
",  c #CFDFF0",
"<  c #CCDFF0",
"1  c #CEE0ED",
"2  c #CCE0EE",
"3  c #CDE0EE",
"4  c #CCE0EF",
"5  c #CDE0EF",
"6  c #CEE0EE",
"7  c #CFE0EE",
"8  c #CEE1EE",
"9  c #CEE0EF",
"0  c #CFE0EF",
"q  c #CEE1EF",
"w  c #CFE1EF",
"e  c #CEE0EF",
"r  c #D0E0ED",
"t  c #D0E1EF",
"y  c #D1E1EF",
"u  c #D2E1EF",
"i  c #D0E2EF",
"p  c #D1E2EF",
"a  c #D2E2EF",
"s  c #D2E3EF",
"d  c #D4E2EE",
"f  c #D4E3EF",
"g  c #D5E4EF",
"h  c #D7E4EF",
"j  c #D1E2EF",
"k  c #CCE0F0",
"l  c #CDE0F0",
"z  c #CDE0F1",
"x  c #CEE0F0",
"c  c #CFE0F0",
"v  c #CEE1F0",
"b  c #CFE1F0",
"n  c #CFE0F1",
"m  c #CEE1F1",
"M  c #CFE1F1",
"N  c #CEE2F0",
"B  c #CFE2F0",
"V  c #CFE2F1",
"C  c #CEE1F0",
"Z  c #D0E0F0",
"A  c #D0E1F0",
"S  c #D0E1F1",
"D  c #D0E2F0",
"F  c #D1E2F0",
"G  c #D1E3F0",
"H  c #D0E2F1",
"J  c #D1E2F1",
"K  c #D0E3F1",
"L  c #D1E3F1",
"P  c #D2E2F0",
"I  c #D2E3F0",
"U  c #D3E3F0",
"Y  c #D2E2F1",
"T  c #D2E3F1",
"R  c #D3E3F1",
"E  c #D1E2F2",
"W  c #D1E3F2",
"Q  c #D2E3F2",
"!  c #D3E3F2",
"~  c #D2E4F0",
"^  c #D3E4F0",
"/  c #D3E5F0",
"(  c #D2E4F1",
")  c #D3E4F1",
"_  c #D2E4F2",
"`  c #D3E4F2",
"'  c #D3E5F2",
"]  c #D3E4F3",
"[  c #D3E5F3",
"{  c #D4E4F0",
"}  c #D5E4F0",
"|  c #D5E5F0",
" . c #D4E4F1",
".. c #D4E5F1",
"X. c #D5E5F1",
"o. c #D6E5F1",
"O. c #D7E5F1",
"+. c #D6E6F1",
"@. c #D7E6F1",
"#. c #D4E4F2",
"$. c #D5E4F2",
"%. c #D4E5F2",
"&. c #D5E5F2",
"*. c #D4E4F3",
"=. c #D4E5F3",
"-. c #D5E5F3",
";. c #D6E5F2",
":. c #D7E5F2",
">. c #D6E4F3",
",. c #D6E5F3",
"<. c #D5E6F2",
"1. c #D4E6F3",
"2. c #D5E6F3",
"3. c #D6E6F2",
"4. c #D7E6F2",
"5. c #D6E7F2",
"6. c #D7E7F2",
"7. c #D6E6F3",
"8. c #D7E6F3",
"9. c #D7E7F3",
"0. c #D7E7F4",
"q. c #D3E4F1",
"w. c #D8E6F0",
"e. c #D9E6F1",
"r. c #D8E6F2",
"t. c #D8E7F2",
"y. c #D9E7F2",
"u. c #D8E6F3",
"i. c #D8E7F3",
"p. c #D9E7F3",
"a. c #D8E7F4",
"s. c #D9E7F4",
"d. c #D8E7F3",
"f. c #D9E8F2",
"g. c #D8E8F3",
"h. c #D9E8F3",
"j. c #DBE8F2",
"k. c #DAE8F3",
"l. c #DBE9F3",
"z. c #DCE9F3",
"x. c #D8E8F4",
"c. c #D9E8F4",
"v. c #D9E9F4",
"b. c #DAE8F4",
"n. c #DAE9F4",
"m. c #DBE9F4",
"M. c #DBEAF5",
"N. c #DCEAF4",
"B. c #DDEAF4",
"V. c #DDEAF5",
"C. c #DCEBF5",
"Z. c #DDEBF5",
"A. c #DEEBF4",
"S. c #DEEAF5",
"D. c #DEEBF5",
"F. c #DFEBF5",
"G. c #DEECF4",
"H. c #DEECF5",
"J. c #DFECF5",
"K. c #DFEDF5",
"L. c #DBE9F4",
"P. c #E0ECF5",
"I. c #E2EEF5",
"U. c #E0EDF6",
"Y. c #E1EEF7",
"T. c #E3EFF7",
"R. c #E5EFF6",
"E. c #E2EDF6",
"W. c #E4EFF8",
"Q. c #E6F0F7",
"!. c #E9F0F7",
"~. c #E6F0F8",
"^. c #E9F2F8",
"/. c #EAF3F9",
/* pixels */
"i $ 9 % 9 f  .y.% o %  .T v T T T v > > v 9 9  .0. . .v.y.T 9 T % $ % @ + + $ @ @ 9  .T $ & % T v.s.T T ( T % % @ + @ % @ @ % % @ @ ( % % % @ % 9 v % % $ ( @ @ ",
" .9 % % % 9 $ ( % T % @ v T v ( (  . . . . .T v 9 T  .N.N.v. . .T v T T @ o @ @ % $ % % % $ > T v.( v T T T v @ 9 % 9 9 = v ( @ @ @ % % @ % @ % % $ @ + @ $ % @ ",
"y.T % @ $ $ ( ( 9 k.9 % % @ % (  . . . . . .9 T T i % % % % @ v T 9 > v v > > % T @ % $ $ % T ( ( T  . .(  .T @ @ % % v T ( v % o + @ @ + % v 9 $ $ % + @ v T % ",
"% 9 @ @ % % T  .v % @ 9 @ v T T  . . .0. .$ @ $ T  . . .T v % @ % T T = $ $ $ T 9 % 9 i T % i y.T 9  . . .0. .% @ $ T T T T v $ $ $ v o o % $ v 9 9 T % @ 9 ( v ",
"@ @ @ @ % $ % T T v % $ $ T T T v (  . .T $ v T % T  .k.s. . .v v  .U T  . .T  .y.$ 9 T T T % T 9 $ ( T T y.v.@ @ T i  .T i  .$ 9 T  .T %  . .T i T T ( v T ( i ",
"g g U @ + % 9 T % $ 9  . . . . .% @ T T v T  .T T v.N.T T y.H.N.N. .v.v.y. . .i i @ @ T (  .9 % % v v T v T y.T v v 9 T 9 9 T %  .% % T $ H.I.k. .> @ v 9 T T k.",
"$ T 9 9 + % 9 9 $ $ T  . .> 9 ( v @ % % % T T v ( k.T T N.k.y.N.N.k.N.H.N.T  .T $ v % % % T  .v @ % @ % @ % k.0. .v $ T 9 T  .v ( % + % @  .N.N.Q.k.@ @ % @ @ % ",
"@ @ @ @ @ v $ % $ T T  . .T % + % v $ % @ v 9 v T v.% % y.I.T  .y. . .s. .y.y. . .k.( v % $ v T v T 9 T T  .I.y. .( T 9 @ @ T % @ @ @ @ @ 9 y.i k.^.I.% ( i % @ ",
"@ @ @ @ + % v % $  . .T T  .T @ + @ v % % 9 v  .v.I.v.v v y.z.T  .s.v. . .T  .0. .v. .T T T T T  .T ( T  .I.H.s.T i ( v @ @ $ @ @ %  .T o % y.% % 9 ( + @ T $ 9 ",
"% % @ @ @ @ i ( @ 9 ( T  .T T U $ + v % % k.(  . .T I. .v (  .% y. .N.k. . .T  .y.v. .( T  .T  .$ ( T T v.k. . .T @ = @ % > $ 9 % T v % @ T  . . . .$ % $ T T $ ",
"@ @ v $ @ % H. .v % % T v 9 i  .T 9 % @ %  .T  . . .( k.( I. .% T  .i  . . . . . .T  . .T T T  .T 0.T  .N.f g y.T @ @ % $ 9 % % @ % @ @ @ T v. . .y. .@ 9 v % @ ",
"% $ = i + @ N.T 9 9 % % T (  .s. .T % @ % T  . .T  .0.y. .y.% % % 9 ( T T  . .k. .(  .v.T $ 9 % >  . . .y.N.N.@ o T @ % % @ @ % @ @ @ o o % v % $ 9 i $ T @ + @ ",
"(  .T ( 9 @ y.v %  .% @ % T  .T 9 v v % %  .N.N. .y. .k. . . .( % $ (  .T i (  .k.v.y. .T T y. .@ %  .T s.I.v o o v % 9 % % v T % % % @ o 9 9 9 9 @ % % $  .T % ",
"v.T T T % @  .$ v y.% @ @ @ 9 9 % %  . .T T v.N. . .N.N.y. .v.N.9 %  . .v 9 T T T y. .T v v v.^.I.% % T ( T % @ @ % @ @ T T T $ 9 $ $ T % v @ T T $ % 9 ( 9 (  .",
"N. .% 9 + @ v.% % ( 9 @ 9 % @ % % @ i y.v. .T v.y.v.H.k.k.k.v.v.9 % v T T T T v v ( T T  .T y.~.~.( % % ( @ o @ @ @ o o T % @ @ @ @ + + + % T 9 % @ % % 9 @ % k.",
" .$ % 9 @ % N.% + T ( % % 9 v % 9 ( T  .T  . .9  .k.N.y.g k.v.T T v % % T T T T 9 % (  .T T U T  . .T $ $ % @ v % % o X @ v @ + % @ .     + T $ $ $ @ @ % @ @ 9 ",
"@ + @ % % % y. .% $ T % $  . . .T  .T % % $  .$  .I. .g  . .k. . .( $ % $ v v % $ $ @ % $ T T  . . .T  .v 9 T v %  .> o o % $ @ @ 9 $ @ % @ % 9 % @ @ % $ % @ @ ",
"% @ @ i $ 9 i  .T 9  .v ( 0. .y.T T  .v.T % % $ % i 9 9  .k.9 T  . .( 9 9 % v T $ T % $ T v T N.N.T T ( ( % 9 @ % T v @ o @ % @ @ y.i %  .v % % $ @ @ @ v 9 9 9 ",
"k. .@ % i k.y.T  . . .T ( T T k. .% % 9 % % $ $ $ $ % % $ T  . . . . .T T v % v v T v 9 i  .N.N.T > % T v 9 % % % @ v v @ %  .$ 9 T T v > ( 9 @ 9 i  .T  . .k.y.",
" . .i $  .I.I.(  .(  . .( T T  .v % % @ % % $ @ @ $ T % % $ (  . . . . .T @ + @ $ 9 9 T k.y.R.T % 9 % v  .T $ 9 @ o @ o @ v i i  .T T T  . .( % @ @ % v  . .N.I.",
"T @ + 9 $ N.^.I.v.v @  . .( 0. .T T T 9 $ $ $ % % @ 9 k.v.v v v T T T v v % @ % > v 9 k./.k.@ >  .T v > v.9 % @ @ @ X @  .z.y.T v 9 T  .v 9 T @ @ $ % 9  .T v.I.",
"$ @ + +  .y.I.I.Q.k.% v T T T T v v T T 9 $ % $ % @ 9 y.y. . . .> = % % 9 T $ T v T  .N.I.N.9 T U v % 9 > v 9 + % v @ @ + T N.N.s.T 9 @ @ % % % % 9 % @ @  . . .",
"% % @ @ $ k.0. . .k. .$ % T ( v 9 9 i 9 $ $ % 9 %  .I.k. .k.I.k.y.v % $ v  .T 9 T y.k.N. .y.y.T % T $  .N.v. .T v T i  .@ @  .( v.N.T @ + % % $ % 9 % % @ @ % % ",
"% % % % @ N.k.y. . .T  . .s.T $ T 9 T $ 9 v T T v v.I.I.( z.y.$ v $ 9 ( $ T T T (  .9 T  .T ( v T v.y.Q.k.T  .v.( ( T i $ >  .v T y. .@ + $ @ 9 v v $ % % % % @ ",
"% % y. . .v. .N.H.N. .y.N.y.v.s. .9 T  . .T v  .N. .T  . .k.% + o o @ @ o o %  . . . .k.T 9 9 v ( k.^.I.$ v T 0.T T ( T 9 v T  .T T 9 % @ % % % @ v v. .9 % @ % ",
"% @ % i k.k. .T N.I.I.y. .> T  .T i T T  .v.v T N.s.v.v.W.v.( @ o o @ % @ T v.T T v.k. . . .( ( (  .~.v.T T T  .v  .y.T 9 9 (  . .T T T v $ @ + %  .z.( v T @ @ ",
"% % % $  . .9 @ % k.N. .T % $ $ $ $ ( k. .T T T N. . .( H.I.( @ o o + T i  .N. .T 0.I.(  . .T ( T 9 i ( % i  .T T  .v. .9 ( (  .T ( v. .T $ @ + % T T y.@ @ @ @ ",
"v $ v % 9 $ % % T 0.v.v. .T  .T T v T N.I. .(  .v. . . .k.I.v % @ + O $ T T  .v.k.v.N.I.T v ( T v T 9 v % i $ > 9  .s.s.T  .v.0.( v.N.k.v.v @ @ T f $ ( T @ @ @ ",
"% % v $ 9 T y.y. .s.v. . .( v.T % $ T  .v. .T ( s.v > y.H.N.T % o % T $ T  . . .k.I.R.~.H.T T T  .( 9 9 @ v 9 T % T v % v.T i T  . .v.N.W.T 9 $ $ k. .T T T v % ",
"% 9 (  .$ T H.N. .y.s. . . . .( i $ T T T T T v.v. .v v.N.I.Q.N.$ ( T T  .k.N. . .N.I.v.H.T T 9  .v. .T % v ( s.i > > @ ( N.y. . .s. .s.H. .%  .T $ % 9 % @ @ @ ",
"% 9 y.k.% ( I.N. . . . .y.T  . . . .(  .v. .T v.s. .9 T  .N.z.k.= T  .T  .N.k.T T T v.T > N. .$ % 9 @ % T % ( ( $ % @ 9 > ( v.y.v v  . .I.~.T i y.v 9 % 9 @ % % ",
"% @ 9 T v >  . . . .y.v.N.s. .T v v.T $ T s.y. . . .0.N.(  .y.s. .a.v. .y.v.N. .9 T I.I.k.N.T T 9  . .> T T $ % @ $ $ % s.y.y.k.v % 9 9 y.I.I.%  . .T % 9 + @ % ",
"% @ % $ v @ T  . .k.y.v.y. . . .T T ( v $ T v.v.v. .y.N.N.N.N.N. . .k. .y.k. .T % y.I.y.v T  .k.y.y.y.T  .k.9 9 % v I.( T y.z.N.v.T % i  .v.I. .%  . .9 9 @ @ @ ",
"% % % % 9 @ 9  . .v.T v. .N.T y.s. . . .T T  .s.I.v. .T N.I.N.v.( 9  . . .v. .% T  .I.y.$ @ @ % $ T T (  . . .9 % > y.H. .N.I.I.H.y.% 9 T 4 9 T % $ % 9  .9 9 $ ",
"% > T $ @ @ $  .(  .( T ( y.T  . . .s.T T  . .T y.k. . .T k.N.I. .v  .s.N.H.I. . . .I.W.y.% $ @ @ T T T T v.k. .( T k.H.N.v.I.I.H.v.9 % v % % T 9 @ @ . @ $ 9 T ",
"@ $ > % % % % % T  . . .T T z. .T T k. . .> ( v 9 ( T y.y. . .k.k. .i  .s.I.I.I.I. .N.!.R. .T v T  .T 9 $ T v. .T T T T  . .v.y.y.y.% @ v  .T v T > % % @ @ % v ",
"o @ T i f 9 @ @ T  .( ( > T  .% T  . .y.v. .( 9  .T T  . .y.T T T (  .T v  .v.W.W.~.R.I.z.9 T v  . .T  .T v T T v.v.T 9 v v > % % % % o % y.v. .v v @ % % % v @ ",
"% % @ i T % % @  . .(  .T T  .T  . . . .0.y. .T  .T $ T v. .T % v (  . .% v  .y.N.I.k.i @ @ i  . .y.T  .T v > T  .v $ T  .y.T ( 9 T ( 9 % T T ( v ( v % v 9  .v ",
" .g i T k.T T  .k. . . .v.v. . . . . .v. .T ( (  . . . .$ 9 $ % T T i  .= @ @ $ $ i T  .T 9 %  . .y.k. .$ v $ 9 @ @ T T y.N.v. . .v.y.9 T (  .v v 9 N.( 9 9 T T ",
"i 9 y.y. .T T T v $ v k.s.v. . . . . . .T  . . .y. . .$ % % v v ( T T  .0. .= $ & @ o o @ % @ @ v  . .T 9 $ % v % v  . .v.0. . .0.v. .T T % @ @ o . @ v v % $ i ",
"v. .T  .v % v T y. .%  . . .0.T T  .T  . . .T s. . . .T 9 T T T T v % 9  .v.T  . .T + o @ i % % o % T % % 9 @ v v T i T T 0. .0.T v v.N.v % + o o X o % v % % T ",
"v.k.v. . .> 9 y.N.N.k. . . . . . .N.y.T ( T v  .(  .k.v i T y.y.T v @ o i k. . . .v.y.% v z.k.( o o @ 9 T T @ @ @ T $ v 9 $ v 0. .v.N.y.% % @ % @ @ % @ $ v  .( ",
" . . .T T v  .v.N.I.N.v.k.y. .T 9  . .% T (  . .y.k. .% % v (  .T % 9 @ %  . .k.k.v. .(  .k.T k.T o o > y.T v @ + v v v % T v v.H.H. .v  .T + o v N. .T T v v T ",
" .$ % 0. .v T  .N.~.I.s.N.N.y.% % y.N.T T T  .y.y. .T v T T  .% @ + + v T v (  .I.N.T ( T $ T v $ @ @ %  . .$ % % % v  .T (  .H.I.N. .(  .U @ @ $  .T i y.T % T ",
"(  .T T T v @ o @ T v.N.R.I.y.% % v v.y.T v T 0.T $  .v  . .v. .% @ + v  .% T  .k.k.9  . .9 9 @ @ @ @ % % % i T >  .v T N.H.I.H.v. .v  .T = (  . . .N.N.k. . .@ ",
"% y.9 $ % %  .T @ @ @  .I.z.k.T $ % T U ( v % v H.i T v. .T ( N.T v T i T (  .k.T 9  .v. .9 @ @ @ @ % % % v y.k.T T H.T  .k.N.H.T @ + 9 T  . .( N.I.I.k. . . .v ",
"$ v 9 $ T T  .v.T  .v. .N.N.N.y.T y.s.( % @ % % v.I.v T  . .% ( T  .v. .% % % 9 % @ T v. .@ @ % 9 $ % % % @ + @ % 9 v.s.$ T  . .% @ > $ T k.$ v v.I.v.v z.N.k.i ",
"v.k.y.( % $ v.v.v % k.k.T $  .v. .N.N.$ @ % (  .9 T ( % @ + %  .( v %  . .( % 9 @ @ $ v  .i 9 T 9 9 % @ % $ @ + @ $ % T v.v.v. .@ % ( v T y.T T  .N. .T z.I. . .",
"z.H.I.y.v =  . .k.z.k.k.y.k.N.v.T v. .% 9 % 9 @ @ $ $ T % o % y. .$ i  . .T  . .% @ % %  .T 9  .i % % >  .v. .9.T v > %  .k. .N.0.% % U  .k.y. . .N.I.Q.z.N.y.( ",
"i  .N.y.v T T %  .N.v.y.k.k.N.y. .T @ % k.T % % v 9 9 % % + o T 9 % T  .y.$  .N.T @ $ T ( % > T T % % y.H.v. .v. .T  .T % $ T T T v % i z.I.k. .k. .U N.k.N.v. .",
" .( T  . . .T $  . .N.v.T T ( T s. . . .k.y.9 % @ @ $ $ % @ o + @ 9 N.z.y.T v k.T i i T T 9 v  .v.T %  .H.k. . .T v y.v 9 @ % $ % % i  .N.N.k.z.v 9 (  .v.~.~.R.",
"y.v  .N.y.T  .y.N.k. . . .i % @ T  .( k.y.T ( 9 % @ @ % v % @ @ @ v y. . . .v 9 % % 9 @ % ( T H.I.% @ T v.N.v  .y.v.N. .v $ % % $ 9 9 T y. .v.v.9 y.~.I.I.^.~.I.",
" .% T z. .i  .N. . . .N.N.v.v.( $ T T T T % 9 % $ % @ @ 9 ( v T $ % ( T ( W.T @ % @ @ @ i T % T I.% @ > @ ( ( @ % N.k. .k.N.i % i $ % v T  .( v  .N.v.0.y.I.R.N.",
"T T  . .9 T T v.( ( T N.v.y.N.N. .% ( ( $ 9 i & $ 9 T % 9 ( $ % T 9  . .y. .9 @ @ $ $ @ T  .T  .N.( % v % $  .T T v. .v  .y. .i T  .9 ( (  .( T y. .T = ( k.N.y.",
"k.k.T ( ( ( T y. .$ s.N. . .v.v % T  .T T y.y.T T  .U v $ T  .T $ % i T  .N.z.z.9 % v % @  .y. . . .I. .T $ v v v T T T U y. .k. .N. .( $ v v (  .T  . . .9 T T ",
"k.y.9 v (  . . .% + %  .s.0. .( $ v.N. .i y.y. .% y. .9 % T  . .v.T T % v.v.s.k.k.v.N.k.T  .v.(  .v.H.N.% @ % % @ @ $ y.f y. . .$ % @ o @ v (  . . .v.k. . .k.9 ",
"T v.( % % T y.% o o + T T $ % (  .v.N.H.i  .y. .$ k. .T  .v.T T I.R.N. .N.s. .T T T  .v.y. .s. .y.k.N. .@ @ % % % @ @  . .y.k.9 % 9 4 @ % ( k.N. . .y.R. . .y.9 ",
"%  . .% v  .T o X X o  .N.v. . .N.I.I.I.v. .v. .T  .N.k.( T T k.R.N.y.N.N.y.T T T T 0. .T ( % v v.v.y.T % % $ % % @ @ T  .H. .9 9 y. .T v. .N.I. . . .I. .T  .T ",
"v v T T y.N. .o X X X T y.N.N.N.N.N.~.~.I.y. .v. . .N.N.T % @ 9 k.( N.R.v.k.T v T  .v. .T  .v % 9  . .T T T % @ % @ @ v N.I. .% %  .T $ v. .N.H.% v  . . . . . .",
"v.T % v  .T @ o   X o v T T  .v.N.N.I.~.I.N.N.v. .T k.N.T $ T T i  .H.N.k.N. .T T T T  . .( T v % % 9 9  .v.T % % @ @ v k.s.T % $  .T 9  .y.N.v.( 9 T  .k. .$  .",
" . .% %  .$ o .     . o v T % @ 9 v.v.H.k.( N.v.N.I.I.k.v v v i 9 T y.i  . .v.k.T v v.H.v. .v v 9 $ % % @ + % T v % % 9  . .T % $  .T T y.N.N.T T % 9 N.^.k. .k.",
"T  .N.H.y.v.% @ o X X X o % i T ( I. .v T  .N.N.N.N.v.v. .( ( v.y.T  .v. . .N. .9 N.W.I.I.T v % @ v % % @ + + @ T s. .@ s.( @ % T  .v T i i  .v % % 9 k.H.y.y. .",
" . . .k.v v.k.N.T @ o     o @ T  .v.y.T T  .v.v. .T  .T  .v.(  .y.y. . .y.k. .9 v.I.~.W.k.$ v % @ % v % @ @ % % % (  .% v. .$ 9  .v.k.k.% + T i 9 $ ( k. . .v. .",
"T  .$ T v @ T v.v = @     X @ 9 @ % v % v  .v.v. .k. .T T ( T T k.v.k.v.y.T v 9  .N.W.~.N.( ( @ @ v v T 9 % % % @ @ @ % v T  .T T ( y.H.T @ $ v T T k.N.y. .I.N.",
" .T 9 $ T + o + % % @ X X o > $ T % T 9  .v. . .k. .@ $ T T T v k.I.R.N.T T $ 9 v T v.I.N. .9 ( y.9 > 9 ( v v @ @ @ + @ @ @ ( T T T I.I. .9 $ T (  .v.N.R.H. .y.",
"i  .$ % % @ + + $ $ T ( % $ v $ N.v.% ( k.y.9 T T T v T T T T ( v.N.y.( % T  .v v  . .v i % % 9 P. .T @ @ % $ > % % @ @ @ @ T  .T T N.I.T $ $ i T  .N.H.H.^. .$ ",
"( ( ( T ( 9 @ $ $ % % @ % $ T T i T T @ @ y. . . .T  .v % % % @ T T $ v % > v T ( y. .T % % % @ 9 T T v % @ % % @ @ @ o + @  .v.T  .y.k. .% % 9 v ( v.I.N. .v.T ",
"%  .k.k.( i 9 @ + T % + % $ T  .T T 9 9 @ 9 T o @ ( i @ o % T v @ $ ( % % % @ @ T 9 % % @ @ % % @ %  .T % % = @ o o @ % % @ 9 k.v.T U y.T 9 v @ $  .T k.k. .% v.",
"% %  . .T f $ + . + @ @ % T T ( T T v % % @ % @ @  .$ @ + @ $ T = @ o o o + + + $ 9 % $ % 9 $ v @ @  .T ( T v v o o + + @ % @ v 9 o + $ T  .N.y.@ o @  .k.( $  .",
"@ @  .i g k.T % + + @ % $  .( T % + v v v $ @ % i  .T v @ + % v % @ o o o @ @ @ @ $ % % % % % % @ % > T v.y. .0.T % o o % > % o @ o o o + @  . .> @ o 9 y.% @ % ",
"i T $ i  .%  . .+ % T > $ v.H.T v $ s.T T v @ % @ %  .$ % @ + % @ + o + + + @ @ o @ % @ @ % % % 9 9 + o (  . .T T  .v.% % k.@ o % % @ @ v v T T % $ $ % % @ + @ ",
"k.i i % T  .k.$ X o %  .T k.I.(  .T  .T v $ % @ @ + @ % % % o @ + o @ @ @ @ @ + @ @ @ % @ % % % @ % o o  .9 v v % @ T  .$ % v + @ @ T $ 9 $ 9 T v % + % v 9 % $ ",
"$ $ T v  .9 % % o o o (  .T  .T % v  .v % > % @ + o o + @ % @ @ @ % T % % $ @ % $ @ + $ $ @ $ @ o % @ 9 v % % v $ % 9 9 % o o + o @ 9 % % % % % % % @ @ % T T % ",
"$ % T v T ( % @ + % o %  .T 9 % @ % 9 T > % @ o o o o @ @ % % % $ T 9 9 9 T T % $ @ o @ % % > v @ o v ( % @ @ @ @ % % % % % @ + o @ v ( k.9 v % o X   @ $ 9 i % ",
"% v  .v ( T T 9 % T % 9 % v T 9 % % $ T T @ o o o + @ T v % @ @ >  . .T 9 % % @ v T % T % @ @ % y.T  .y.( $ T @ + + % v % % $ @ @ 9 T T I. .$ U $ o X X $ i k.T ",
"@  .$ % 9 T  .9 9 9 T  .@ @ v T v % ( v 9 % + o + @ $  . .T % % $ T N.v.9 $ 9 v $ % % T  .v % @ 9 k.N. . .y.v.> % T v T T v @ v % T v 9 v.% + o +  .v @ @ 9 $ % ",
"@ T % @ @ 9 % ( v % $  .v o @ T 9 9  .9 % @ @ + + o o v T 9 v v % > T y.i % $ $ @ o % 9 T v $ % % $ (  .T T y.y. . .( $ @ % @ % @ @ % v  .+ % % o @ i $ % $ % @ ",
"9 $ v v @ @ @ 9 v 9 ( T T 9 @ $ T (  .T % @ @ @ + @ + @ @ % v v % @ % % v v $ % $ T $ % T 9 % % @ $ T T % @ $ $ > T % @ @ @ @ o @ = o % 9 $ (  .$ $ % > % @ $ % ",
"$ 9 v % v % @ $ v (  .T % @  .z.N.I.N. .T = + + @ @ + T % % v % v @ + @ > v T v @ T v v v v % @ @ @ % $ % @ + @ v % + @ @ + @ o X o   o % % $ % i i % % v o o 9 ",
"9 v T @ v % @  . .% % % % @ 9 T i 9 9 % $ ( ( 9 o @ @ ( v @ 9 v T % @ + o = T T @ 9 ( T v $ v o @ @ @ @ @ % % % @ o o @ + @ @ 9 % @ @ o % @ 9 9 $ % @ T T % o @ "
};