/* XPM */
static char *a7c1c_3fr5c[] = {
/* columns rows colors chars-per-pixel */
"80 80 233 2 ",
"   c #020202",
".  c #0A0B09",
"X  c #181709",
"o  c #0D1318",
"O  c #141A17",
"+  c #231F07",
"@  c #1C241B",
"#  c #2A2609",
"$  c #3B340B",
"%  c #2C2D14",
"&  c #3A3917",
"*  c #141E25",
"=  c #1A2628",
"-  c #1F312F",
";  c #1E2C36",
":  c #2D3628",
">  c #25373A",
",  c #433C0B",
"<  c #433D13",
"1  c #36473A",
"2  c #354A3D",
"3  c #4B430B",
"4  c #554C0B",
"5  c #5D520D",
"6  c #494415",
"7  c #544D17",
"8  c #5B5417",
"9  c #65590C",
"0  c #655C17",
"q  c #6E620C",
"w  c #76690C",
"e  c #6C6216",
"r  c #786C16",
"t  c #7D7114",
"y  c #454928",
"u  c #54572D",
"i  c #59643A",
"p  c #716D29",
"a  c #666634",
"s  c #75773A",
"d  c #263845",
"f  c #2E3E4A",
"g  c #2E4548",
"h  c #364946",
"j  c #3C5647",
"k  c #2D4454",
"l  c #374854",
"z  c #324B5B",
"x  c #39575A",
"c  c #334E60",
"v  c #395669",
"b  c #3D5D73",
"n  c #3F616C",
"m  c #45564A",
"M  c #576648",
"N  c #4C6955",
"B  c #6A794A",
"V  c #74744A",
"C  c #647856",
"Z  c #425E70",
"A  c #456968",
"S  c #4B7267",
"D  c #42657C",
"F  c #466A79",
"G  c #4D7975",
"H  c #567171",
"J  c #6B7573",
"K  c #83740C",
"L  c #87780D",
"P  c #8C7D0D",
"I  c #927F0E",
"U  c #887A16",
"Y  c #897D27",
"T  c #827D46",
"R  c #758854",
"E  c #5E846A",
"W  c #558479",
"Q  c #6F9270",
"!  c #93830C",
"~  c #9D8C0C",
"^  c #8E8017",
"/  c #978716",
"(  c #978915",
")  c #A18F0A",
"_  c #A6940B",
"`  c #A9960C",
"'  c #AB980E",
"]  c #A99710",
"[  c #A89415",
"{  c #AB9A13",
"}  c #A49318",
"|  c #AC9B1B",
" . c #B7A31A",
".. c #968926",
"X. c #90892D",
"o. c #A89927",
"O. c #A59A35",
"+. c #B3A424",
"@. c #B7A92B",
"#. c #ADA133",
"$. c #B7A836",
"%. c #BEB339",
"&. c #C4AC19",
"*. c #CCB218",
"=. c #D6BA16",
"-. c #CAB427",
";. c #D1B928",
":. c #C4B63B",
">. c #E7CA18",
",. c #F9D817",
"<. c #F6D619",
"1. c #FAD91A",
"2. c #D9C231",
"3. c #E6CB27",
"4. c #F5D725",
"5. c #E9CF30",
"6. c #F7DC35",
"7. c #FEE238",
"8. c #898648",
"9. c #96934A",
"0. c #8A9454",
"q. c #9C9957",
"w. c #A19E51",
"e. c #B5AC4C",
"r. c #AAA755",
"t. c #A2A65E",
"y. c #BAB65C",
"u. c #8C926C",
"i. c #94A96D",
"p. c #C5BA46",
"a. c #D2BE45",
"s. c #C4BC5D",
"d. c #9CC27E",
"f. c #CFC650",
"g. c #EED74C",
"h. c #FBE24B",
"j. c #FCE658",
"k. c #CDC864",
"l. c #D8D166",
"z. c #DAD56A",
"x. c #EEDD6C",
"c. c #FCE768",
"v. c #FBE875",
"b. c #466B84",
"n. c #476D88",
"m. c #4C7683",
"M. c #4B728D",
"N. c #58768B",
"B. c #4D7692",
"V. c #4F7996",
"C. c #527995",
"Z. c #517D9A",
"A. c #588A84",
"S. c #5D9489",
"D. c #57839B",
"F. c #5E9690",
"G. c #748B85",
"H. c #63998B",
"J. c #639C94",
"K. c #73A78C",
"L. c #68A497",
"P. c #6BAA9D",
"I. c #73AA9B",
"U. c #5683A3",
"Y. c #5886A6",
"T. c #5B8BAC",
"R. c #5D8EB1",
"E. c #5E91B5",
"W. c #608CA4",
"Q. c #6295B8",
"!. c #6499BE",
"~. c #72B3A4",
"^. c #71B3A9",
"/. c #76BAAB",
"(. c #7BC4B4",
"). c #7CC8B8",
"_. c #659CC3",
"`. c #699EC3",
"'. c #68A0C6",
"]. c #6BA4CC",
"[. c #78A8C9",
"{. c #6EA9D3",
"}. c #70ACD6",
"|. c #73AED7",
" X c #73B2DD",
".X c #7AB4DC",
"XX c #76B5E1",
"oX c #78B7E2",
"OX c #77B8E4",
"+X c #7BB9E3",
"@X c #94958C",
"#X c #85B593",
"$X c #ABA88E",
"%X c #95B5AE",
"&X c #B0B3AC",
"*X c #B8B8B9",
"=X c #86CAAD",
"-X c #81CEBB",
";X c #82D0BF",
":X c #80A7C3",
">X c #87B8DA",
",X c #83BCE3",
"<X c #8ABFE3",
"1X c #80CCC1",
"2X c #84D4C2",
"3X c #87D7C7",
"4X c #8ADDCB",
"5X c #BDC9C6",
"6X c #8CE1CF",
"7X c #8EE5D2",
"8X c #8DE6D8",
"9X c #90E6D3",
"0X c #91E9D6",
"qX c #93ECDA",
"wX c #96F1DE",
"eX c #8DC1E5",
"rX c #8AC2E8",
"tX c #91C3E6",
"yX c #97C8EA",
"uX c #A4CEEB",
"iX c #A9D1EE",
"pX c #B4D6EF",
"aX c #B8D9F1",
"sX c #97F4E0",
"dX c #D6E6F3",
"fX c #9AF8E4",
"gX c #9DFDE8",
"hX c #CDCECE",
"jX c #CEE1DF",
"kX c #EAE9E9",
"lX c #EEEEEF",
"zX c #F5F5F6",
"xX c #FFFFFF",
/* pixels */
"dXdXdXwXqXwX0X^.H H J J H P.qXdXdXdXdXdXdXsXdXdXdXdXdXdXdXdXdXdXdXdXdXdXdXdXfXsX4X/.A.N 2 : : : @ > x A.).qXfXdXdXdXdXdXdXdXdXdXdXdXdXdXdXdXdXdXdXdXdXdXdXdXdXdX",
"dXwX~.#X%X%XG.@XhXlXxXxXkX&XI.wXfXdXdXdXsXsXdXdXdXdXdXdXdXdXdXdXdXdXdXdXdX7X~.E i e w K P ! ! P K q 4 $ % j L.9XfXdXdXdXdXdXdXdXdXdXdXdXdXdXdXdXdXdXdXdXdXdXdXdX",
"fX/.G.lXxXzXkXxXxXxXxXxXxXxX5XI.(.;X0XdXsXdXdXdXdXdXdXdXdXdXdXdXdXdXdX7XA.1 0 ! ) ` ` ` { ' ` ' _ ( ^ ! P 9 & h P.wXdXdXdXdXdXdXdXdXdXdXdXdXdXdXdXdXdXdXdXdXdXdX",
"fXH.hXxXxXxXxXxXxXxXxXxXxXxXxXhX&X@XJ P.wXdXdXdXdXdXdXdXdXdXdXdXdXdXdXH.e 5 $ P ` _ _ ] ` _ _ _ 8.@Xu.V U ' ~ q & S 6XdXdXdXdXdXdXdXdXdXdXdXdXdXdXdXdXdXdXdXdXdX",
"fXP.hXxXxXxXxXxXxXxXxXxXxXxXxXxXxXxXkXJ ~.fXdXdXdXdXdXdXdXdXdXdXdXdXfXP.a $.q $ ! ` ] ` _ ` ` ^ *X@Xm *Xa ) _ ` ~ 4 j 2XfXdXdXdXdXdXdXdXdXdXdXdXdXdXdXdXdXdXdXdX",
"4X%XkXxXxXxXxXxXxXxXxXxXxXxXxXxXxXxXxX*XS.fXdXdXdXdXdXdXdXdXdXdXdXfXdXqXS p @.q 3 ~ ' _ _ ` ` ! @X*X&X&X0 ! _ _ ` _ q j 2XdXdXdXdXdXdXdXdXdXdXdXdXdXdXdXdXdXdXdX",
"G.lXxXxXxXxXxXxXxXxXxXxXkX@XhXzXxXxXxX&X~.fXdXdXdXdXdXdXdXdXdXdXwX(.6XfX7Xj 7 o.e 5 _ ` ~ P ~ ` U 8.V p L K _ _ _ _ ' w j 4XdXdXdXdXdXdXdXdXdXdXdXdXdXdXdXdXdXdX",
"J xXxXxXxXxXxXxXxXxXxXxXhX....T @X&X&XG.7XdXdXdXdXdXdXdXdXdXdXdX0X2 2 /.fX2X- 6 } 9 9 ` ` ! t Y o.| ~ P q ! ` _ _ { ] ` 5 A qXdXdXdXdXdXdXdXdXdXdXdXdXdXdXdXdXdX",
"G.kXxXxXxXxXxXxXxXxXlX*XT >.,.>.=.*.&.Q fXdXdXdXdXdXdXdXdXdXdXdXqXB 9 : S.wXS.  , ~ 5 w ` ` } X.r _ _ ~ _ ` _ _ ` +.~ _ ~ % S.dXdXdXdXdXdXdXdXdXdXdXdXdXdXdXdXdX",
"-X%XxXxXxXxXlXi.u.u.V U =.,.,.,.4.h.>.R (.2XqXdXdXdXdXdXdXdXdXdXdXK.^ ^ & S L..   9 ~ 4 w { o.| K w ` ` _ _ _ _ { %.L _ { 9 h 3XdXdXdXdXdXdXdXdXdXdXdXdXdXdXdXdX",
"I.hXxXxXjXhX&X-.3.3.>.<.,.,.,.,.4.v.4. .O.s E 2XfXdXdXdXdXdXdXdXdX7XC O.#.q & .   X t ~ 7 p } ' P 9 _ _ _ _ _ _ @.:.w ~ +.! : H wXdXdXdXdXdXdXdXdXdXdXdXdXdXdXdX",
"2X5XzXxX&XY o.5.3.1.>.>.1.>.<.<.>.v.6.>.4.h.a.B ).wXdXdXdXdXdXdXdXdX3XC O.:.} w , X X e ..8 , 5 3 L ` _ _ ] ` { f.@.9 ~ @.~ & h ~.wXdXdXdXdXdXdXdXdXdXdXdXdXdXdX",
"sX%XjXxX$X=.h.;.&.7.&.-.6.{ 6.4. .c.:.i u t Y r X.u.=XsXdXdXdXdXdXsXdX6XQ X.p.@.] ! U p U ~ K 9 P ` _ _ ` ` { p.f.U 3 ] :.~ X O z A.qXdXdXdXdXdXdXdXdXdXdXdXdXdX",
"6X%XxXxXu.3.j. .| j.] :.g./ h.3.! c.e.Q p 5 o.:.:.p.9.K.wXdXdXdXdXsXdXdX0Xj 8 e.p.@.+.| _ _ ` ` ` ` ` ] { @.p.:./ $ w +.p.P . = R.b S.dXdXdXdXdXdXdXdXdXdXdXdXdX",
"7X%XlXxXu.>.c.} o.j.I p.g.U c.2.L c.r.Q U U | ( L { @.X.~.qXdXdXdXdXdXdXfX/.y 5 r O.$. .{ _ _ _ _ _ { ] } ( U 9 , q _ p.p.q O V.b._.v ).dXdXdXdXdXdXdXdXdXdXdXdX",
"dX4X%XjXu.>.v./ o.c.K s.f.t c.;.K c.t.R U X.^ e 3 _ _ { p A.^.0XdXfXdXdXdXdXI.e K 9 r / ] _ _ _ ` ] ` _ ~ P K L ~ ` %.l.+.$ k {.E.D.U.G dXdXdXdXdXdXdXdXdXdXdXdX",
"dXdX9X/.B 3.v./ $.c.t k.a.t v.-.L c.0.0.o.U ..e q ' ` ` p _.'.A.S./.7XfXdXdXsX~.p ~ _ ~ _ _ _ _ } |  .{ { { ' { +.p.l.p.w x T.V.|.V.!.k /.dXdXdXdXdXdXdXdXdXdXdX",
"dXdXdX3XR 4.c./ :.j.P l.:.U v.&.^ v.i.Q O.#.o...K ` ] ` a {.+XM.D.Y.F P.wXdXdXdX).B L _ { _ ] { P r / @.:.p.f.f.l.k.:.L 1 '.OXT._.Q.T.; - L.wXdXdXdXdXdXdXdXdXdX",
"dXdXdXqX0.4.j.) 2.j.~ g.;.} c.*.o.v.i.Q Y ....0 4 _ ` _ C  X<XM.!.rX.XF A.qXdXdXfX7XQ u K ) / / | / 5 3 9 U } o.} P 5 j M.].XX{.R.|.v ; Z.z W 0XdXdXdXdXdXdXdXdX",
"dXdXdXqX0.4.h. .5.6. .g.;.&.h.=.a.x.#X8XC U r & 4 ) ` t W.,XtXD '.XX<XtXN.S.0XsXfXfXsX(.m & 0 0 0 Y o...8 $ # + X X z {.'.Y.XX XR.Y.= Z.OX|.b A 7XdXdXdXdXdXdXdX",
"dXdXdXqX9.<.6.>.4.4.>.6.>.>.6.>.x.g.0.d.%.=.s P.#X0.s A ,XuX[.b  XXXXX<XtXM.x G P.4XsXgX;X> M.m : @ # < 7 6 X o d B.B.OXXXU.].OXn.= B.XX+XyX,Xb.A 7XdXdXdXdXdXdX",
"dXdXdX2Xs >.1.1.1.1.,.1.1.1.1.4.v.4.=.=.-.w.=XdXdXqX4XJ.[.!.v R.XXXXXXXX,X>XM.Y.n.n W ~.(.g _.{.b.T.z v f D b T.C.|.n.{.XX'.T.Y.> B.XXoXXX<XiXeXn.G qXdXdXdXdXdX",
"dXdX7XR } U =.,.,.,.,.,.1.1.1.4.:.9 y #X-X0XdXdXdXdXdXqX1XW z XXXXXXXXXXXXOX{.{.OX{.R.D d . Z.|.B.XXZ.{.C.{.Z.].V.|.R.T.OX Xb d U.XXXXXXXXXXeXpXeXb.A.wXdXdXdXdX",
"dXfX(.e 6.;.[ =.,.,.,.<.>.*.| t 0 4 @ 3XfXdXsXdXdXdXdXdXdX0XA.Y.XXOXOXXXXXXXXX XXXoXOXOX_.* k  XB.{.Y.`.U._.T.Q.E.T.XXR.T.v z !.XXXXXXXXXXoXXXtXpX>XD ~.dXdXdXdX",
"dXdX7XN ^ g.j.6.4.1.1.<.=.&.-.2.5.9 - 6XdXdXdXdXdXdXdXdXdXdX0XS.v n.T.'. XXXXXXXoXXXXXXXXXM.o U.T.!.!.T._.U.{.Z.|.T._.V.d b.{.XXXXXXoX,XoXXXXXXXyXuX].F 4XdXdXdX",
"dXdXdX4XW u X.e.l.g.g.h.h.g.g.$.8 - P.dXdXdXdXdXdXdXdXdXdXdXdXwXL.= v Q. XXXXXoX{. XXX'.E. XZ ; V.U.|.U.{.U.{.!.Y.V.d c Q.XXoXXXXX,X,X,XXXXXXXXXoXiXtXT.S.dXdXdX",
"dXdXdXdXdX3XP.Q Q Q u.s a a i N S.3XdXdXdXdXdXdXdXdXdXdXdXdXdXdXdXP.F .X<XXXXXXX_.Q.OXM.N.eX>XN.; > n.Z.B.U.v v d v T. XXXXXXXXXXX,X+XXXXXXXXXXXXX<XiX.Xm.2XdXdX",
"dXdXdXdXdXdXfXdXwX7X7X3X2X4X7XwXfXdXdXdXdXdXdXdXdXdXdXdXdXdXdXdXdXdX~.F :XyX,XXX|.M.].Z H <XeXtX!.v d > ; d z M._. XOXXXXXXXXXoX,X+XXXXXXXXXXXXXXXXXyXrXE.S.dXdX",
"dXdXdXdXdXdXdXdXdXdXdXdXdXdXdXdXdXdXdXdXdXdXdXdXdXdXdXdXdXdXdXdXdXdXdX).G N.>XtX+XT.b.Z H <X<XtX,XXX|.].].|.XXOXXXXXXXXXXXXXXX,X+XXXXXXXXXXXXXXXXXXX+XeX|.m.6XdX",
"dXdXdXdXdXdXdXdXdXdXdXdXdXdXdXdXdXdXdXdXdXdXdXdXdXdXdXdXdXdXdXdXdXdXdXdX7XJ.A N.[..Xb ; l <XeX,XXXXXXXXXXXXXXXXXXXXXXXXXXXoX,X+XXXXXXXXXXXXXXXXXXXXXXX+XOXZ.^.fX",
"dXdXdXdXdXdXdXdXdXdXdXdXdXdXdXdXdXdXdXdXdXdXdXdXdXdXdXdXdXdXdXdXdXdXdXdXdXdX4XF.A F M.o ;  XXXXXXXXXXXXXXXXXXXXXXXXXXXXXoX,X+XXXXXXXXXXXXXXXXXXXXXXXXXXXXX'.A.wX",
"dXdXdXdXdXdXdXdXdXdXdXdXdXdXdXdXdXdXdXdXdXdXdXdXdXdXdXdXdXdXdXdXdXdXdXdXdXdXdXfX0X(.J.h ; {.XXXXXXXXXXXXXXXXXXXXXXXXXXXXoX+XXXXXXXXXXXXXXXoXXXXXXXXXXXXXXXXXD.;X",
"dXdXdXdXdXdXdXdXdXdXdXdXdXdXdXdXdXdXdXdXdXdXdXdXdXdXdXdXdXdXdXdXdXdXdXdXdXdXdXdXdXfXgXP.* U.XXXXXXXXoXXXXXXXXXXXXXXXXXoXoXXXXXXXXXXXXXXX|.`.XXXXXXXXXXXXXXOX!.L.",
"dXdXdXdXdXdXdXdXdXdXdXdXdXdXdXdXdXdXdXdXdXdXdXdXdXdXdXdXdXdXdXdXdXdXdXdXdXdXdXdXdXdXfXP.o T.OXXXXXXXXXXXXXXXXXXXXXXXXXXXXXoXXXXXXXXXXXOX!.d _.OXXXXXXXXXXXOX{.A.",
"dXdXdXdXdXdXdXdXdXdXdXdXdXdXdXdXdXdXdXdXdXdXdXdXdXdXdXdXdXdXdXdXdXdXdXdXdXdXdXdXdXdXfXP.; {.<XoXXXXXXXXXXXXXXXXXXXXXXXXXXXXXXXXXXXXXXXOXY.. d '.OXXXXXXXXXXX XF ",
"dXdXdXdXdXdXdXdXdXdXdXdXdXdXdXdXdXdXdXdXdXdXdXdXdXdXdXdXdXdXdXdXdXdXdXdXdXdXdXdXdXdXfXL.k .XtXoXXXXXXXXXXXXXXXXXXXXXXXXXXXXXXXXXXXXXXXOXB.    ; U.|.XXOXXXXXXXD ",
"dXdXdXdXdXdXdXdXdXdXdXdXdXdXdXdXdXdXdXdXdXdXdXdXdXdXdXdXdXdXdXdXdXdXdXdXdXdXdXdXdXdXfXS.c ,XyXXXXXXXXXXXXXXXXXXXXXXXXXXXXXXXXXXXoXXXXXOXD       ; D B.R. XXXXXb ",
"dXdXdXdXdXdXdXdXdXdXdXdXdXdXdXdXdXdXdXdXdXdXdXdXdXdXdXdXdXdXdXdXdXdXdXdXdXdXdXdXdXdXfXS.b tXyXXXXXXXXXXXXXXXXXXXXXXXXXXXXXXXXXXXXXXXXXXXv     o T.|._.]. XXX Xv ",
"dXdXdXdXdXdXdXdXdXdXdXdXdXdXdXdXdXdXdXdXdXdXdXdXdXdXdXdXdXdXdXdXdXdXdXdXdXdXdXdXdXdXfXJ.b.yXyXXXXXXXXXXXXXXXXXXXXXXXXXXXXXXXoXXXXXXXXXXXc   o Z.XXXXXXXXXXXX].x ",
"dXdXdXdXdXdXdXdXdXdXdXdXdXdXdXdXdXdXdXdXdXdXdXdXdXdXdXdXdXdXdXdXdXdXdXdXdXdXdXdXdXdXfXL.D yXiXXXXXXXXXXXXXXXXXXXXXXXXXXXXXoXXXXXXXXXXX|.d * Y.XXXXXXXXXXXXOXU.G ",
"dXdXdXdXdXdXdXdXdXdXdXdXdXdXdXdXdXdXdXdXdXdXdXdXdXdXdXdXdXdXdXdXdXdXdXdXdXdXdXdXdXdXfXP.b yXpX+XXXXXoXXXXXXXXXXXXXXXXXXXoXXXXXXXXXXXXXb.k !.OXXXXXXXXXXXXX{.v (.",
"dXdXdXdXdXdXdXdXdXdXdXdXdXdXdXdXdXdXdXdXdXdXdXdXdXdXdXdXdXdXdXdXdXdXdXdXdXdXdXdXdXdXfX/.v tXaXeXXXXXoXoXXXXXXXXXXXXXXXoXoXXXXXXXXXOXQ.M.T.T.XXXXXXXXXXOX|.D J.dX",
"dXdXdXdXdXdXdXdXdXdXdXdXdXdXdXdXdXdXdXdXdXdXdXdXdXdXdXdXdXdXdXdXdXdXdXdXdXdXdXdXdXdXdX;Xx >XaXuX+X,XXXXXXXXXXXXXXXXXXXXXXXXXXXXXXX].k D.,XC.B._. X X{.E.F L.wXdX",
"dXdXdXdXdXdXdXdXdXdXdXdXdXdXdXdXdXdXdXdXdXdXdXdXdXdXdXdXdXdXdXdXdXdXdXdXdXdXdXdXdXdXdX9XA {.iXaXyXoXXXXXXXXXXXXXXXXXXXXXXXXXXX+X,XF 9 M |.OX_.n.c m.F.J.2XdXdXdX",
"dXdXdXdXdXdXdXdXdXdXdXdXdXdXdXdXdXdXdXdXdXdXdXdXdXdXdXdXdXdXdXdXdXdXdXdXdXdXdXdXdXdXdXdXW E.yXaXpX<XXXXXXXXXXXXXXXXXXXXXXXXX,XtX>XV @.P M H H G P.6XwXdXdXdXdXdX",
"dXdXdXdXdXdXdXdXdXdXdXdXdXdXdXdXdXdXdXdXdXdXdXdXdXdXdXdXdXdXdXdXdXdXdXdXdXdXdXdXdXdXdXfXP.D.<XuXaXpXeXXXXXXXXXXXXXXXXXXXXXXXeXeX[.0.p.` ) ! K K.fXdXdXdXdXdXdXdX",
"dXdXdXdXdXdXdXdXdXdXdXdXdXdXdXdXdXdXdXdXdXdXdXdXdXdXdXdXdXdXdXdXdXdXdXdXdXdXdXdXdXdXdXfX~.f Q.+XuXaXaXyX+XXXXXXXXXXXXXXXXXXXeXeX[.u.e._ _ ` ! K.fXdXdXdXdXdXdXdX",
"dXdXdXdXdXdXdXdXdXdXdXdXdXdXdXdXdXdXdXdXdXdXdXdXdXdXdXdXdXdXdXdXdXdXdXdXdXdXdXdXdXdXdXfXL.d d Z..XyXpXaXpXyX<XoXXXXXXXXXXXXXoXeX<XJ o.! ! ~ ! I.fXdXdXdXdXdXdXdX",
"dXdXdXdXdXdXdXdXdXdXdXdXdXdXdXdXdXdXdXdXdXdXdXdXdXdXdXdXdXdXdXdXdXdXdXdXdXdXdXdXsXsXdXfXS.n.!.z v R..XyXuXpXpXiXyXtXeX,X+XoXXXXXXX!.i L K L ^ Q qXdXdXdXdXdXdXdX",
"dXdXdXdXdXdXdXdXdXdXdXdXdXdXdXdXdXdXdXdXdXdXdXdXdXdXdXdXdXdXdXdXdXdXdXdXdXdXdXdXsXsXdXfXA.D OXQ.U.v v V.!. X<XtXyXyXyXtXrX<X+XOXOXXXT.y 0 e P r H.dXdXdXdXdXdXdX",
"dXdXdXdXdXdXdXdXdXdXdXdXdXdXdXdXdXdXdXdXdXdXdXdXdXdXdXdXdXdXdXdXdXdXdXdXdXdXdXdXsXsXdXfXJ.> U.E.'.'.D.M.z c v b.V.U.T.R.R.T.U.B.D c d G ).I.Q Q /.dXdXdXdXdXdXdX",
"dXdXdXdXdXdXdXdXdXdXdXdXdXdXdXdXdXdXdXdXdXdXdXdXdXdXdXdXdXdXdXdXdXdXdXdXdXdXdXdXdXdXdXfXP.# 6 > n.Q.Q. XQ.'.M.M.v z z k k z z v b B.g 2XfXfXdXsXdXdXdXdXdXdXdXdX",
"dXdXdXdXdXdXdXdXdXdXdXdXdXdXdXdXdXdXdXdXdXdXdXdXdXdXdXdXdXdXdXdXdXdXdXdXdXdXdXdXdXdXdXfX~.& +.U < > c R.T.XX_.XX].{.'.]._.|.`.{.{.B.H.dXdXdXdXdXdXdXdXdXdXdXdXdX",
"dXdXdXdXdXdXdXdXdXdXdXdXdXdXdXdXdXdXdXdXdXdXdXdXdXdXdXdXdXdXdXdXdXdXdXdXdXdXdXdXdXdXdXfX).6 p.l.%.^ 5 & > D b.T.Y._.R._.R.E.U.V.D A 7XdXdXdXdXdXdXdXdXdXdXdXdXdX",
"dXdXdXdXdXdXdXdXdXdXdXdXdXdXdXdXdXdXdXdXdXdXdXdXdXdXdXdXdXdXdXdXdXdXdXdXdXdXdXdXdXdXdXdX3Xy p.z.f. .` _ ! w q 0 7 u y y y 7 & . O /.fXdXdXdXdXdXdXdXdXdXdXdXdXdX",
"dXdXdXdXdXdXdXdXdXdXdXdXdXdXdXdXdXdXdXdXdXdXdXdXdXdXdXdXdXdXdXdXdXdXdXdXdXdXdXdXdXdXdXdXqXm #.l.+._ _ _ ` ' { ` _ _ _ ~ ~ L #   W dXdXdXdXdXdXdXdXdXdXdXdXdXdXdX",
"dXdXdXdXdXdXdXdXdXdXdXdXdXdXdXdXdXdXdXdXdXdXdXdXdXdXdXdXdXdXdXdXdXdXdXdXdXdXdXdXdXdXdXdXdXS Y f.{ _ _ _ ` ] _ _ _ ~ ! w 0 5 . g 7XdXdXdXdXdXdXdXdXdXdXdXdXdXdXdX",
"dXdXdXdXdXdXdXdXdXdXdXdXdXdXdXdXdXdXdXdXdXdXdXdXdX9XwXfXdXdXdXdXdXdXdXdXdXdXdXdXdXdXdXdXfXF.8 @.` ] ` ` ] _ _ _ _ ! ! ~ U # = ).fXdXdXdXdXdXdXdXdXdXdXdXdXdXdXdX",
"dXdXdXdXdXdXdXdXdXdXdXdXdXdXdXdXdXdXdXdXdXdXdXdXdXH.H ~.7XdXdXdXdXdXdXdXdXdXdXdXdXdXdXdXfX(.& } ` ` { { _ _ _ _ ` P ~ ~ 5 O P.fXdXdXdXdXdXdXdXdXdXdXdXdXdXdXdXdX",
"dXdXdXdXdXdXdXdXdXdXdXdXdXdXdXdXdXdXdXdXdXdXdXdXfX4XM 8.C L.7XdXdXdXdXdXdXdXdXdXdXdXdXdXfX~.& ) _ _ ] ] _ _ _ _ ! w 5 3 O A.dXdXdXdXdXdXdXdXdXdXdXdXdXdXdXdXdXdX",
"dXdXdXdXdXdXdXdXdXdXdXdXdXdXdXdXdXdXdXdXdXdXdXdXdXdXL.V y.q.Q /.wXdXdXdXdXdXdXdXdXdXdXdX7Xj w ` _ _ _ _ _ _ _ _ ) ~ e X G wXdXdXdXdXdXdXdXdXdXdXdXdXdXdXdXdXdXdX",
"dXdXdXdXdXdXdXdXdXdXdXdXdXdXdXdXdXdXdXdXdXdXdXdXdXdX0XN q.q.8.8.K.7XdXdXdXdXdXdXdXdXdXsXA.u #.| _ _ _ _ _ ) ! ) ~ t # S qXdXdXdXdXdXdXdXdXdXdXdXdXdXdXdXdXdXdXdX",
"dXdXdXdXdXdXdXdXdXdXdXdXdXdXdXdXdXdXdXdXdXdXdXdXdXdXfX~.M q.w.s 8.u.2XdXdXdXdXdXdXdXdXL.M O.$.$.| _ _ _ _ P 9 9 $ X G qXdXdXdXdXdXdXdXdXdXdXdXdXdXdXdXdXdXdXdXdX",
"dXdXdXdXdXdXdXdXdXdXdXdXdXdXdXdXdXdXdXdXdXdXdXdXdXdXdX0Xh y T r.9.w.u.).dXdXdXdXfX0XA.y O.$.#.$.+._ _ _ ` ` L $ @ S.wXdXdXdXdXdXdXdXdXdXdXdXdXdXdXdXdXdXdXdXdXdX",
"dXdXdXdXdXdXdXdXdXdXdXdXdXdXdXdXdXdXdXdXdXdXdXdXdXdXdXfXS.V k.r.y.q.a > /.qX0X3XP.j 6 / $.$.$.$.| ) L ~ ~ q # > /.dXdXdXdXdXdXdXdXdXdXdXdXdXdXdXdXdXdXdXdXdXdXdX",
"dXdXdXdXdXdXdXdXdXdXdXdXdXdXdXdXdXdXdXdXdXdXdXdXdXdXdXfX(.: w.y.s X + 4 u M M u 5 K _ _ { +.+.+. .` q $ # = G 4XfXdXdXdXdXdXdXdXdXdXdXdXdXdXdXdXdXdXdXdXdXdXdXdX",
"dXdXdXdXdXdXdXdXdXdXdXdXdXdXdXdXdXdXdXdXdXdXdXdXdXdXdX).E u a u .   3 ` _ ~ ~ ) ` ' { | +.@.%.o.L 4 + O A (.dXdXdXdXdXdXdXdXdXdXdXdXdXdXdXdXdXdXdXdXdXdXdXdXdXdX",
"dXdXdXdXdXdXdXdXdXdXdXdXdXdXdXdXdXdXdXdXdXdXdXdXdXdX/.B y.l.z.r.: s 7 P ' {  .+.@.%.%.#...r 3 # O > G ).wXfXdXdXdXdXdXdXdXdXdXdXdXdXdXdXdXdXdXdXdXdXdXdXdXdXdXdX",
"dXdXdXdXdXdXdXdXdXdXdXdXdXdXdXdXdXdXdXdXdXdXdXdXfX(.R k.z.k.9.a r.9.X # L ! L t e 8 6 % @ > x A./.7XdXfXdXdXdXdXdXdXdXdXdXdXdXdXdXdXdXdXdXdXdXdXdXdXdXdXdXdXdXdX",
"dXdXdXdXdXdXdXdXdXdXdXdXdXdXdXdXdXdXdXdXdXdXdXdX;X0.k.l.r.8.9.y.T y i   O j S W J.P./.).3X0XdXfXfXdXdXdXdXdXdXdXdXdXdXdXdXdXdXdXdXdXdXdXdXdXdXdXdXdXdXdXdXdXdXdX",
"dXdXdXdXdXdXdXdXdXdXdXdXdXdXdXdXdXdXdXdXdXdXfX;XR k.z.s.y.k.r.s T y.a 2 ~.0XdXfXfXfXfXfXdXdXdXdXdXdXdXdXdXdXdXdXdXdXdXdXdXdXdXdXdXdXdXdXdXdXdXdXdXdXdXdXdXdXdXdX",
"dXdXdXdXdXdXdXdXdXdXdXdXdXdXdXdXdXdXdXdXdXdX(.C s.z.l.z.l.y.r.s.r.M W 6XfXdXdXdXdXdXdXdXdXdXdXdXdXdXdXdXdXdXdXdXdXdXdXdXdXdXdXdXdXdXdXdXdXdXdXdXdXdXdXdXdXdXdXdX",
"dXdXdXdXdXdXdXdXdXdXdXdXdXdXdXdXdXdXdXdX0XL.M y.z.z.z.z.l.s.w.B E ).dXdXdXdXdXdXdXdXdXdXdXdXdXdXdXdXdXdXdXdXdXdXdXdXdXdXdXdXdXdXdXdXdXdXdXdXdXdXdXdXdXdXdXdXdXdX",
"dXdXdXdXdXdXdXdXdXdXdXdXdXdXdXdXdXdXdX9XS : 8.r.r.r.9.V M C H.;XwXdXdXdXdXdXdXdXdXdXdXdXdXdXdXdXdXdXdXdXdXdXdXdXdXdXdXdXdXdXdXdXdXdXdXdXdXdXdXdXdXdXdXdXdXdXdXdX",
"dXdXdXdXdXdXdXdXdXdXdXdXdXdXdXdXdXdXdXwX;XP.W S N S W P.).0XfXfXdXdXdXdXdXdXdXdXdXdXdXdXdXdXdXdXdXdXdXdXdXdXdXdXdXdXdXdXdXdXdXdXdXdXdXdXdXdXdXdXdXdXdXdXdXdXdXdX",
"dXdXdXdXdXdXdXdXdXdXdXdXdXdXdXdXdXdXdXdXdXfXfXsXsXdXfXfXfXdXdXdXdXdXdXdXdXdXdXdXdXdXdXdXdXdXdXdXdXdXdXdXdXdXdXdXdXdXdXdXdXdXdXdXdXdXdXdXdXdXdXdXdXdXdXdXdXdXdXdX",
"dXdXdXdXdXdXdXdXdXdXdXdXdXdXdXdXdXdXdXdXdXdXdXdXdXdXdXdXdXdXdXdXdXdXdXdXdXdXdXdXdXdXdXdXdXdXdXdXdXdXdXdXdXdXdXdXdXdXdXdXdXdXdXdXdXdXdXdXdXdXdXdXdXdXdXdXdXdXdXdX",
"dXdXdXdXdXdXdXdXdXdXdXdXdXdXdXdXdXdXdXdXdXdXdXdXdXdXdXdXdXsXdXdXdXdXdXdXdXdXdXdXdXdXdXdXdXdXdXdXdXdXdXdXdXdXdXdXdXdXdXdXdXdXdXdXdXdXdXdXdXdXdXdXdXdXdXdXdXdXdXdX",
"dXdXdXdXdXdXdXdXdXdXdXdXdXdXdXdXdXdXdXdXdXdXdXdXdXdXdXdXdXdXdXdXdXdXdXdXdXdXdXdXdXdXdXdXdXdXdXdXdXdXdXdXdXdXdXdXdXdXdXdXdXdXdXdXdXdXdXdXdXdXdXdXdXdXdXdXdXdXdXdX",
"dXdXdXdXdXdXdXdXdXdXdXdXdXdXdXdXdXdXdXdXdXdXdXdXdXdXdXdXdXdXdXdXdXdXdXdXdXdXdXdXdXdXdXdXdXdXdXdXdXdXdXdXdXdXdXdXdXdXdXdXdXdXdXdXdXdXdXdXdXdXdXdXdXdXdXdXdXdXdXdX"
};
