/* XPM */
static char *as1pl_o08ld[] = {
/* columns rows colors chars-per-pixel */
"80 80 229 2 ",
"   c #14825C",
".  c #1B8863",
"X  c #1F946D",
"o  c #2D8C6E",
"O  c #248B69",
"+  c #25926D",
"@  c #29936F",
"#  c #318E71",
"$  c #2C9572",
"%  c #259B75",
"&  c #2A9D77",
"*  c #339E7B",
"=  c #369677",
"-  c #2AA179",
";  c #27A07A",
":  c #36A27E",
">  c #38A37F",
",  c #45947E",
"<  c #3E9C81",
"1  c #3BA582",
"2  c #38AB86",
"3  c #3DB28C",
"4  c #3FB891",
"5  c #4A9784",
"6  c #59998A",
"7  c #6C9C94",
"8  c #649B91",
"9  c #779C99",
"0  c #619A8F",
"q  c #43AC8A",
"w  c #49AF8F",
"e  c #48A489",
"r  c #54A28D",
"t  c #41B28E",
"y  c #4AB08F",
"u  c #43B591",
"i  c #4BB090",
"p  c #44B994",
"a  c #49BD99",
"s  c #53B395",
"d  c #5BB699",
"f  c #5EB99C",
"g  c #56B698",
"h  c #50AF92",
"j  c #74A29B",
"k  c #63BA9D",
"l  c #68BC9F",
"z  c #62B79B",
"x  c #7E9FA0",
"c  c #65BAA0",
"v  c #6CBDA2",
"b  c #6AB5A3",
"n  c #71BFA5",
"m  c #7CB6A9",
"M  c #7CA1A2",
"N  c #4DC39E",
"B  c #46C49B",
"V  c #4FC7A1",
"C  c #4CC8A0",
"Z  c #51C7A1",
"A  c #52C9A3",
"S  c #5BCEAA",
"D  c #59C9A6",
"F  c #5DD0AC",
"G  c #74C0A6",
"H  c #75C2AA",
"J  c #7BC3AC",
"K  c #62D2AE",
"L  c #76CFB2",
"P  c #65D4B2",
"I  c #6AD6B4",
"U  c #6BD8B7",
"Y  c #6DDAB9",
"T  c #75DDBE",
"R  c #7BDEBF",
"E  c #76D7B8",
"W  c #69C5A8",
"Q  c #6EE0BD",
"!  c #77DEC0",
"~  c #78DFC1",
"^  c #7CE2C3",
"/  c #76E0C1",
"(  c #82989E",
")  c #83A19F",
"_  c #8B9BA6",
"`  c #879BA6",
"'  c #929FAB",
"]  c #8AA9A8",
"[  c #94A2AD",
"{  c #98A1AB",
"}  c #9CA5B2",
"|  c #9CAAB5",
" . c #9BABB9",
".. c #96A1B0",
"X. c #99B3B9",
"o. c #8AB2AD",
"O. c #A3AAB6",
"+. c #A3ADBA",
"@. c #A8ACB7",
"#. c #AAB2BD",
"$. c #A3B1BB",
"%. c #87C9B6",
"&. c #84D9BE",
"*. c #92C1B8",
"=. c #ADBAC5",
"-. c #AAB9C5",
";. c #B3BCC5",
":. c #B4BCC9",
">. c #B6BCC8",
",. c #85DCC1",
"<. c #9AD2C6",
"1. c #97C7C3",
"2. c #B4C3CD",
"3. c #BBC4CB",
"4. c #B8C1C7",
"5. c #ADC5DB",
"6. c #AAC7D5",
"7. c #B3C4D3",
"8. c #B9C7D2",
"9. c #B6C8D5",
"0. c #BCCAD5",
"q. c #B4C8DA",
"w. c #BBCCDA",
"e. c #AAD7D1",
"r. c #BCD7DD",
"t. c #A1D3CC",
"y. c #81E4C6",
"u. c #85E5C9",
"i. c #89E7CB",
"p. c #8DE9CD",
"a. c #91EACE",
"s. c #94E1C9",
"d. c #95ECD1",
"f. c #9BEED4",
"g. c #9EF0D6",
"h. c #9FF2D8",
"j. c #8EEBD0",
"k. c #A0EFD7",
"l. c #ADEFDB",
"z. c #BCEADA",
"x. c #B0E1D1",
"c. c #A0F0D7",
"v. c #A4F2DA",
"b. c #AAF4DD",
"n. c #B6F1DF",
"m. c #AFCBE4",
"M. c #B2CEE6",
"N. c #B9CFE3",
"B. c #B5D1E7",
"V. c #BDD3E6",
"C. c #B6D1E8",
"Z. c #BDD5EA",
"A. c #BFD8EB",
"S. c #AEF7E0",
"D. c #AEF8E1",
"F. c #B2F6E1",
"G. c #B4F9E4",
"H. c #BAFAE6",
"J. c #BDFCE8",
"K. c #BBF3E2",
"L. c #BFEDEA",
"P. c #C2CFDA",
"I. c #C3CCD5",
"U. c #C3D1DC",
"Y. c #C9D5DE",
"T. c #C3D0D7",
"R. c #C0C4CF",
"E. c #C2EDDE",
"W. c #C4D5E3",
"Q. c #CAD6E1",
"!. c #C6DAE5",
"~. c #CCDAE4",
"^. c #C1D7EB",
"/. c #C5DAEC",
"(. c #CADEEE",
"). c #D1DDE5",
"_. c #D0DFEB",
"`. c #CDDFF0",
"'. c #CCDFF0",
"]. c #C7DCF0",
"[. c #D0DFF2",
"{. c #C5EEE1",
"}. c #CDE0EF",
"|. c #CEE1EF",
" X c #CEE0EF",
".X c #CAE9EA",
"XX c #D0E1EF",
"oX c #D2E2EE",
"OX c #D8E5EE",
"+X c #D2EBEE",
"@X c #CCF1E6",
"#X c #CEF3E9",
"$X c #C3FBEB",
"%X c #CBFBED",
"&X c #C3F7EB",
"*X c #D4F4EB",
"=X c #D9F6EE",
"-X c #DBF8EF",
";X c #CFE1F0",
":X c #CDE1F0",
">X c #CEE1F0",
",X c #CEEFF0",
"<X c #D0E1F0",
"1X c #D1E2F0",
"2X c #D2E3F1",
"3X c #D2E3F2",
"4X c #D3E4F2",
"5X c #D5E5F2",
"6X c #D6E6F3",
"7X c #D5E5F2",
"8X c #D3E4F1",
"9X c #D8E7F2",
"0X c #D9E7F2",
"qX c #D6EAF2",
"wX c #D9E8F3",
"eX c #DAE9F4",
"rX c #DBE9F4",
"tX c #D4FDF1",
"yX c #DCFBF1",
"uX c #DBF3F3",
"iX c #CAF8F0",
"pX c #E2EDF6",
"aX c #E2EEF9",
"sX c #E4F2F6",
"dX c #E2FDF5",
"fX c #E6F1F9",
"gX c #EBF4FA",
"hX c #E9F8F8",
"jX c #F0F6FA",
/* pixels */
"XX'.;X(.}.OX7XrX/.C.(.wX3X;X3X3X3X;X'.(.'.(.(.9XwX7X7XwX9X3X}.3X(.}.(.^.^.A.3X/.^.3X7X3X(.XX(.3XrXwX3X3X6X3X/.(./.Z.^.;X/./.(.(./.^.7X(.(.(.^.}.}.3X(.(.(.7X^./.",
"7X}.(.(.(.}.(.7X(.4X(.A.3X3X(.7X7X6X7X7X7X7X4X'.(.3X7XpXpXrX9X7X3X}.3X3X/.Z.^./.(.(.(.(./.(.'.3XwX4X}.3X4X4X;X^.;X(.}.}.'.3X7X^./././.(.^.;X^.(./.(./.A./.'.(.^.",
"rX4X(.!.(.(.7X3X}.pX}.}.(./.(.7X7X7X7X7X7X7X}.4X8XXX(./.(./.^.;X4X}.'.;X;X;X'.(.4X/.(.(.(.(.7X3X4X3X7X7X3X7X3X^.^.'.(.3X4X7X;X(.Z.^./.(.^.(.4X(.(.}.}.A.!.;X3X(.",
"(.}.!./.(.'.XX7X;X(./.3X/.;X3X;X7X7X7X9X7X(.^.(.4XwX9X0X3X'.(.Z.(.3X3X'.(.(.(.3X;X/.XXXX3X(.XXwX4X}.9X7X7X0X7X(./.(.3X3X3X3X}.'.(.}.3XZ.A.(.(.3X}.}.3X(.^.3X7X;X",
"^.!.!./.(.;X/.3X3X3X(.(.(.;X3X3X}.7X7X7X3X(.3X3X/.;X4XrXwX9X7X;X(.7X7X;X7X7X3X7XrX(.XX4X7X3X(.7X}.(.4X3X3X0XwXA./.3XXX7X3XXX6X(.}.3XwX7X(.9X7X3X}.4X7X7X3X;X4XXX",
"9XOX7X/.^.(.}.4X(.(.;X7X7X7X7X7X(.^.4X4X;X3X7X4X;XwXrX}.;X9XpXrXrX7XwXwX9X7X7XXXXX!./.3X4X7X}.(.(.3X3X3X3X3X9X3X'.;X}.3X(.}.3X/.7X(.(.7X(.pXaXwX7X'.A.3X}.4X3XrX",
"(.3X;X3XA.(.XX;X(.(.3X7X7X(.}.7X3X/.(././.4X4X;X4XwX3X3XpXwX9XrXrXwXrXpXrX3X7X3X(.;X(.(.(.3XwX:X^.(.^././.(.wXwX7X'.(.4X}.4X7X;X7X/.A.(.^.7XrXrXfXwXA.^.(.^./.(.",
"/.^.^./.(.3X(./.(.8XXX7X7X4X/.A.;X3X(.(./.;X}.;X;XrX/.(.9XfX(.3XwX7X4XwX7X9X9X7X7XwX4X;X(.(.;X3X;X3XXX3X3X7XpX7X7X7X3X;X/./.7X}.^./././.^.}.wX}.wXjXfX(.7XXX(./.",
"/./.^./.A.(.3X(.(.wXwX;X3X7X7X/.A.^.3X(.(.(.;X7XwXfXrX(.;X7XrX3X7XwXwX7X7X3X7X6X7XwX7X4X3X3X3X3X7X3X4X3X4XfXpX0X}.XX7X;X/.^.}.^.Z.'.7X3XZ.(.rX!./.(.7X^.!.3X(.;X",
"(.}./.^.^./.XX7X/.(.7X;X6X4X3X7X}.A.;X(.(.rX4X7X7X(.fX9X'.3X7X(.wX7XrXwX7X7X3X7X9XwX7X3X3X9X3X7X(.4X3X3XrXrX3XwX3X/.;X!./.;X}.3X/.7X;X'./.3X4X4X9X7X(.(.(.3X3X(.",
"^./.;X}.^./.sX7X3X(./.3X;X(.(.7X3X}.(.^./.7X;X6X8X7X3XrX3XpX7X!.4XwXXX7X7X7X7X7XwX3X4X7X3X3X}.7X4XwX}.7XpXXXoXwX4XA.^.(.}.;X(.'./.(././.^.3XrX9X7X9X9X!.;X3X(./.",
"(.'.].4XA.A.pX;X}.}./.(.3X7X7XwX7X4X'.^.(.3X7X7X3X7XwX7X7XwX(.(./.(.7X3X3X7X7XwX3X4X7XwX3X(.(./.(.9X9X9X7XrXpXA.Z.7X/.(.'.^./.(.^././.A.Z.(.3X/.(.}.7X(.8X^.A./.",
"4X7X8X7X}./.wX'./.7X(.!.!.7X7XXX}.3X;X(.(.7XrXrX7XwX7XwX7X7XwX4X/.(.7X7X3XXX4X7XwXrX9XwXXX3XwX6X^./.wXXX6XfX;XZ.Z.3X(.;X(.(.;X7X(./.(.(.C.3X}.(.}.!./.(.(.wX3X/.",
"wX;X7X4X(./.wX(.;XwX(././.^.;X}././.wXwX;X3XrXrX8X7XpXrX0X6XwXrX}.(.7X7X}.(.3X3X}.9X6X;X;X;XwXgXfX/.(.7X3X3X'./.(.(./.^.7X3X3X(.;X'.(.7X'.;X^.4X4X(./.}.7X}.7X7X",
"rXwX/.4XA.Z.rX/.(.7X}./.}.}.^.(.(.^.XXwXrX7X}.rX9X9XpX9XrX9XwXrX(.(.;X4X3X3X8X}.;X4X3X}.wX3X9XfXgX7X(.(.7XZ.A./.^.(.Z.C.6X(.^./.(./.^.^.!.(.7X}.(./.}.(.3X/.(.rX",
"9X(.(.;X^./.pX/.^.7X7X/.(.3X;X(.;X4X3X7X3X7X7X(.wX9XpX9XoXwXwX;X3X3X/.(.4X3X3X3XXX/.4XwX;X3X7X3X7X7X4X(.(.(.^.3X(.}.^.B.^.6XZ.A.(.^.M.m.M.A.7X(.(.}./.!.(./.^.XX",
"/.^./.(.(./.wX7X/.(.3X(.(.7X7X6X3X7X3X(.(.(.wX(.7XfX7XOX9X7XwX7X7X4X;X/.(.3X3X(.}.(.^.(.(.3X3X7X8X7X;XwX;X}.7X:X(.7X;XZ.Z.(.;X^.^.}._.(.(.^.(.3X(./.(.(.'.(.^./.",
"/././.XX(.(.XX7X7X(.7X;X7X6X7XwX3X3XwXrX3X(./.;X(.XX}.(.wXwX(.;X7X7X4X}.;X/.;X3X/.8X/.(.3X(.3XrXpX'.4X4X4X(.;X/.(.3X3X^.Z./.(.^.!.rX3X/.6X3X(.(.;X^.^./.;X(.}.}.",
"wXwX/.(.XXrX9X}.9X7X9X}.4X3X3XwX7X/./.3X(.(.;X(.}.XX!.(.(.3X6X7X7X7X7X3X3X.X.X+X+X+X+X+X+X+XwXpX(.'.(.7X;X}.(.(.(./.3X3X^.(.rX(.}.3X3X'.(.7X3XA.}.+XwX3X7XwXwX0X",
"7X7X4X(.3XpXsX3X7X7X7X7X4X3X3X7X;X(.(.^.(./.(./.!.(.4X/.(.(.4X7X6X3X6X9X*X@X@X@X#X@X@X@X@X*X*X+X(.}./.;X9X}.(.3X^.Z.^.A.^.'.(.XX7X4X3X7X7X9X4X(./.^.(.3X7X4XrXfX",
"4X/.^.XX(.rXgXfXwX(./.6X7X4XwX7X3X4X4X}.(.(.(.(.(.^.(.rXrX;X;X'.3X4X+X@X@X@X@X@X@X@X=XyXyX*X{.{.@X.X4X'.rX}.(.^.(.^.M.^.wXpXrX3X}.}.3X7X;X}.7X!./.(.(.}.7X(.wXpX",
"}./.A.A.0X7XpXpXfXwX/.;X3X4X3X3X3X;X3X7XXX(.(.(.(.A.}.0XwX9X4X8X}.@X*X=X=X=X=X=XyXdXyX*X{.z.z.z.z.E.{..X(.'.}.A./.3X/.^.^.XXpXaXwX(.3X/.^.(.(././.XX(././.wX7X7X",
"(.(.(.^.(.rX6X3X7XrXwX(./.3X4X}.}.}.XX}.(.(.(.}./.0XpX7X7X7XpXsXyXdXyXtXtXtXtXdXhXyXE.z.z.z.E.E.{.{.{.@X*XwX0X;X3X3XXX9X!.^.7X3XrXpX;X^.^.(.(.}.(.;X(.(.^./.(.(.",
"(.(./.(.^.rXwX7X7X4X3X7XwXwX}.(.3X}.3X(.(.;X3X3X(.wXfXpX;XrXhXdXyX$XH.H.H.H.H.H.%XdXdX-X*X@X@X@X@X@X*X@X@X@XqXwX4X4X}.XX}.'.7X'.3XwXwX^.^.}./.XX;X;X(./.(.(././.",
"(.(.rX7X4XrX7XpXpXrX7X9XrXwXwXwX7X(.7X7X9X}.;XwXrX4X;X7XwXhXyX$XH.H.H.H.H.H.H.G.G.J.tXdXdXdXdXyX=X@X@X@X@X@X@X*X+X3X8X;X}.(.3X7X}.3X}.(.^.(./.(./.'.wX7X3X(./.(.",
"(.^.(.XXrXwX7X3XpXpXpX9X7X(.3X7X3XXX4X;X4XwX}.;XrX7XrXsXyX$XG.G.G.G.G.G.G.G.D.G.F.S.D.G.H.J.J.$X%XyXdXyX*XE.E.E.@X+XwX3X}.}.4X9X7X3X3X4X;X(./.^.(.wXrXXX;X7X/./.",
"(.(.(.(.7X7X;XA./.wXrX7X3X/.(.(.}.(.4XwX7X3X3X3XrXrXdX%XG.D.G.F.F.S.S.S.b.b.S.S.S.S.S.S.S.S.S.S.D.H.%XdXdX{.z.z.z.E.*XqX}.7X4X7X3X4XrX3X;X(.^.Z.(.7X3XwX^.^./.^.",
"3X(.;X/.}.(./.(.3X6X9XrX7X3X7X3X3X;X;XpXaX7X3X0XsXtXH.D.S.S.S.b.b.b.b.b.b.b.b.b.b.b.b.b.b.b.b.b.S.S.S.G.%XyX=X=X#X@X@X@X.X+XrX6X3XrXrXwXrX3X^.^.7XXX(.7X7X/././.",
"(.(.3X(.}.4X9XwX7XwXwX7XwX3XrX(./.(.;X7XwX3XwXyXJ.S.S.S.S.b.b.b.b.b.b.b.v.v.v.b.b.b.b.b.b.b.b.b.b.b.S.S.b.G.n.x.@XyXyXyX=X*X*XXX7X7XwXwXfX3X}.(.(.rX7X3X3X4X;X(.",
"(.}.4X7X(.3XpXrX7XwXwX7X3X7XrXrXrX7X4X}.3XuX%XG.S.S.S.b.b.b.b.b.v.v.v.v.v.v.v.v.v.v.v.v.v.v.v.b.b.b.b.b.b.G.&.z n %.<.x.E.@X*X=XuXaX6X7XpX7X/.wX8X(.(.;X(.!././.",
"(.}.wXwX(.4XpXrX4X7X6X7XrXuX=X=X=X*X*XsXtXJ.S.S.S.b.b.b.b.v.v.v.v.v.v.v.v.v.c.c.c.c.c.v.v.v.v.v.v.v.b.b.b.b.H v v v l l v G J %.<.e..X6XpXfX;X}.wX;X}.(.}./.(.(.",
"(./.}.7X(.'.7X7X7X7X9XrXtXyX=X*X@X#X$XJ.D.b.S.b.b.b.b.v.v.v.v.v.c.f.f.g.g.f.f.f.f.f.g.f.f.f.c.v.v.v.v.v.b.s.k v v v n G n n n n n v %.3X9XpXaX/.wX9X3X/.;X^./.}.",
"/.^.(.(.3X^.3X7X7XwX9XiX$X$X$X$XJ.H.G.S.S.b.b.b.b.v.v.v.v.k.g.f.f.f.f.f.f.f.f.f.f.f.f.f.f.f.f.f.f.k.c.v.b.L k v v v v v v n n G H H H !.8XwXfX7X/.wXwX(.}./.^.^.",
"/.(./.(.3X/.;XOX7XwX:X$X$XJ.H.H.G.G.F.S.b.b.b.v.h.v.K.b.f.f.f.f.f.f.f.f.d.d.d.d.d.d.d.f.f.f.f.f.f.f.f.c.g.W k l v v v v v v v n G H v t.6X(.}.3X(.(.(.;XwX;X}.(.",
"(.'.3X}.^.!.}.7X4X8X,XJ.J.H.H.H.G.S.S.b.b.v.v.b.K.#X=X=Xb.f.f.f.d.d.d.d.d.d.d.d.d.d.d.d.d.d.d.f.f.f.f.v.,.z c k k l v v v v v v n G G %.}.(.(.3X;X/.^.M./.3XXX3X",
"/.;X;X/./.(.(.(.4X0X#XJ.J.H.H.f.b.S.b.b.v.F.#X=X=X=X=XK.R u.f.d.d.d.a.a.a.a.a.a.a.a.a.a.d.d.d.d.d.f.f.,.d z k k k k l v v v v v n n H n r.0X}.}.7X'.}.;X/.^.(.;X",
"Z.^.7XXXOX}./.A.4X7X&XH.H.H.a.^ G.b.b.v.F.K.F.n.n.K.l.d.D I f.a.d.a.a.a.a.p.p.p.p.p.p.p.p.a.a.a.d.d.R d f f f k k k k l v v v v v n G v <.rXwX7X;X'./.(.(.(.;X^.",
";X(.!.XX3X/././.6X7X$XH.H.f.Y p.S.b.v.v.v.f.f.f.d.d.a.Y N P d.p.p.p.p.p.p.p.p.p.p.p.p.p.y.i.a.a.a.d.&.d k g y d k k k k l v v v v n n n J }.3X4X'.7X;X(.;X}.7X;X",
"7X9XoX3XrX3X;XwXwX4XJ.H.b.T T d.b.v.v.v.f.f.f.f.f.y.D N S i.a.p.p.p.p.p.i.i.i.i.i.i.i.p.E p.p.p.p.d.,.d f g w s k z k k k l v v v v n n v r.rX;X;X}.pX7X(.(.}.3X",
"XX(.9XwX7X3X;X3X(..XH.H.y.T T f.b.v.v.f.f.f.f.f.R V A A u.d.p.p.i.i.i.i.i.u.u.u.u.u.p.E E p.i.p.i.a.R g f g w i d z z k k k l v v v v n v %././.Z.M.^.3X;X(.(.(.",
"rX7XXX7X(./.}.;X9X&XH.g.T ! T g.b.v.f.f.f.f.g.~ Z A A F p.i.i.i.i.u.u.u.u.u.u.u.u.u.T S ^ i.u.i.i.j.E s d g y w g k f k k k k v v v v n v H B.Z.B.C.Z.(.3X(./.3X",
"wXrXrX7X7X'.(.rX#XH.H.p.T T T ^ p.g.c.f.d.p.R V V A N P p.i.i.u.u.u.u.u.u.u.u.y.u.T F S R i.u.u.u.p.E s d s y i i f f f k k c v v v v v G l <.5X/.^.;X/.(.;X7X4X",
"6X6X9X3X3X;X9X+XH.H.H.y.T T T T T ~ d.f.d.y.T E U I K ~ p.u.u.u.u.u.u.y.y.y.y.u.^ F F S U u.u.u.u.p.L s d s y i y g f f z k d g k v v n v y c Z.3XpX7XXX3X;X;X3X",
"wX(.(.wX7X'.4XJ.H.H.b.~ T T T T ~ T ^ f.d.d.d.d.d.j.p.i.u.u.u.u.y.y.y.y.y.^ u.^ K S S F F ^ u.u.u.p.W s g i i i i i d f z g w w w i f k i w w 6.[.7X3X(.wX3X/.3X",
"7XwX;X3X3X[.L.H.H.H.a.T ! T ! T T T T i.d.a.p.p.i.i.u.u.u.u.u.y.y.y.y.y.y.u.^ K S I U P K T u.y.^ u.W s g i i i i y s f s w i i i w w y w i q H pXXXrXrX9X7X7X^.",
"(.wX(.(.(.(.$XH.G.p.T T ! F I ~ T T T T ^ i.p.p.p.u.u.u.u.y.y.y.y.^ ^ ^ ^ U S S U y.y.^ ^ y.y.^ T ! f s s y i i i i i s y i i i i i i i i i w : r.gXpX7X7X7X7X;X",
"(.}.(.(.3X:XH.J.p.Y T ! T A A U ~ T T T T T ~ ^ ^ u.u.u.y.y.y.y.^ ^ ^ ^ I K P T ^ ^ ^ ^ ^ ^ ^ ~ T ! g w i i i i i i i i i i i i i i i i i i 1 & c fXwX}.rXrXwX(.",
"rXwXwX4X/..XH.S.T T ! T S A N A Y ~ T T T T T T T ^ y.u.y.y.^ ^ ^ ^ ^ ^ ^ ^ ^ ^ ^ ^ ^ ^ ^ ^ ^ T T T g w i i i i i w i i i i i i w q 1 q y q : 1 - e.0X(.rXpX7X7X",
"rXpXpXwX(..XH.u.T ~ Y D A A u N D U ! ~ T T T T T T T ! ~ ! T T ^ ^ ^ ^ ^ ^ ^ ^ ^ ^ ^ ^ ^ ^ ^ T T T i w i i i i i 2 q i i i i q : : : * 1 1 : 1 : h OXpXOX9XOXXX",
"XX7XrXwX7.e.^ T ! P A A A A t u A A S U ~ ! T ~ T T T T T T T T T T ! ! ! ! T T T ! ! ~ ^ ^ ~ T T ^ D w i i i i i 1 : 1 w i q : : 1 * $ & * : * * & m T.0.).oXoX",
"3X6X(.0.:.<.Q E S A A A A N 3 3 a A Z A K T T U T ~ ! ! T T T T T T T T T T T T T T T T T ! T T T U U i i i i i i 1 : : : 1 1 : 1 : $ $ $ $ $ $ $ $ + o.;.T.pXrX",
"wXW.8.3.:.1.K C B a p u t 3 3 t t Z A A A A A A A P E T ! / ~ ! T T T T T T T T T T T T T T T ~ P V D i i i i i w 1 : > : : : 1 * $ $ $ $ $ $ $ + + , o.4.3.Y.).",
"wXW.P.T.2.=.-.*.b g u 3 3 3 2 ; 2 p A A A A A A A Z A A S P U T T ! ! ! ! ! ! ! ~ ~ ~ ! ! ! ^ Y A A A 2 1 1 1 1 > : : : : : : * $ $ @ O O . . o 6 o.=.=.-.:.4.T.",
"}.'.7X(.W.W.w.3.-.#.X.X.o.o.] j r 2 3 Z A A A A A A A A A V A A D F P U U U Y E Y P P I U Y I A A A N t : : : : : 1 1 1 * $ $ $ $ o .     = j | #.#.+. .$.2.).~.",
"wX7X(.(.(.~.W.Q.T.2.0.I.:.;.;.O.[ ] e ; 2 a A D A A A A A A A A Z N N Z A A A A A A A A A A A A A N 3 : * : : : : : : * $ $ $ @ .   . 5 M | O.| +.-.7.8.0.w.W.W.",
"wX7X(.(.(.~.~.Q.w.q.w.P.Y.P.0.2. .O.O.j = X % 2 3 3 3 3 4 p p p u t 3 t p N A A A N N N N N Z Z A p : $ $ @ + + + @ @ + + + . . o 6 ` ' [ }  .=.8.U.Q.Q.Q.Q.~.W.",
"XXrXXX^.!.(.XXW.5.5.q.U.w.7.7.w.0.:.$.#.[ j 6 6 5 6 r e e e e & % 2 3 3 t t p a u t t t t 3 3 3 2 % + + o o o o o # # = , 6 7 x ' } |  .X.2.I.Y.Y.U.W.oXQ.~._.!.",
"/.7XwX(.(.4X(.M.m.5.5.Q.~.Q.Y.P.Y.Y.P.I.=.@.@.O.} O.O.O.{ ' _ ] 6 < * % % % % - - - - & & * < 5 6 7 9 ( ( ` _ _ _ _ _ [ } @.O. .-.3.0.0.Y.P.Y.).Y.W.~.oX~.~.XX(.",
";X;X4X3XwXpX9XB.M.m.5./.~._.).~.Q.Y.).~.Y.0.8.0.7.2.8.0.=. .[ [ O.[ [ ] 9 7 0 0 0 8 7 7 9 ] ' } +.#.#.+.+.+. . . .|  .-.:.3.2.7.9.U.w.q.Q.W.~.).N.W.(.(.XX3X7X8X",
"rX3X/.;X9X3X/.Z.M.B.Z.(.(./.~.oXoX).oX).).~.Y.Y.T.0.P.U.0.7.7.=.$.#.:.:.:.R.:.:.>.:.:.:.:.=.:.7.:.:.7.7.0.T.0.7.7.7.7.w.Y.Y.U.w.w.W.W.W.~.~.oXoX(.!.}.3X9X7X(.7X",
"8XwX/./.9X(.C.M.M.m.B.Z.;XXX!.V.!.OXoXOX_.W.).~.).).).Q.w.w.w.w.w.P.U.w.T.T.T.T.w.9.T.Y.Y.P.w.w.0.9.7.7.5.5.w.U.w.w.w.U.W.Q.W.W.W././.(.XX9X9X3XXX/.(.pXgX7X7XrX",
"3X7XpXpXwXrX(.A.A.C.C.C.B.}.3X3X3XpX4X(.(.XX9XOXoXoX_.oX~.!.!.).~.W.Q.~.Q.W.~.Y.w.~.).~.).W.w.w.w.W.w.w.w.q.q.N.~._._.V.XX(.W.!.XX7X(.3XXX}.7X;X(.(.(.9XrX9X9X7X",
"9X7X7XwX(.rXrXpX4X/.Z.M.M.Z.^.3X9XrXwX3X3X7XwXwX7X;X7X}.XX9XXXXXoXOXXXXXXXXXXX!.OX9XpXpXXXW.(.W.V.^./.!.V.!./.!.!.3X7X/.rX7X(.}.7XrXwXrX/.A.7XXX}.(.3X9X3X7XwX7X",
";XwX(.4X3X^.4XrX;X'.^.m.B.B.^.}.^.(.;X/.;X7XwXrX7XwXwX3X3X4X3X3XrXwX7XwX9X3X'.(.7XrXfXfXrX4X7X^./.;X'.7X;X/.(.(.^././.(.}.4X7X;X3X4X7XpX4X^.(.3X3X3XrXpX7X7XpXrX",
"7X;XXX(.7XA.A.^./.'.^.M.M.^.;X(.3X(.3X(.7XrX7X7XrX7X^.(.3X3X3X}.wXpXfXpX3X8X(.}.;X(.wXpXrX7X(.7XwX'.'.(.7X;X3X/././.A./.^.^.7X}.3X3XpXpX7X;X(.3X4X7XwXwXfXrX7XwX",
"}.9X(./.(./.^.A.}.(.7XwX'.(.3X(.pXrX/.7XrX7X(.3X3X'.;X7X7X4X;X7XrXrX9X4X(.3X9X}.;X6X9X(.;X/.(.}.pX7X3X/././.(.3X(.'./././.^.3X7X;X;XrXpXXX'.(.}.3X6XrXrXrXgX8X(.",
"4X4X4X;X7X}./.(.XX/.(./.(.;X3X3X}.3X3X^./.rXwX7X7X3X9X3X/.(./.^.4X3X(.;X(.'.;X3X4XwXwX4X/.(.(.!.XX4X3X3X(./.(.(.(././.A.A./.7XrX}.wX9XwX7X(.(.}.;X4XwXfXrX7XrX3X",
"/.7XwXwX7X}.XX/.A.7X(.Z.(.'.3X7X4X3X(.;X^.;X4XC.^.7XXX^.A.(.7X;X^.(.7X(.(.(././.3X}./.(./.!.(.(.^.(.7X3X(./.'./.C.^./.(.;X/.(.wXpX7X7XrX4X(.;X^.;X9X3XwXwX4X/.wX",
"(./.7X4X3XoX(.^.M.^.^./.(.3X;X4X4X7X;X(.(.^.(././.7X(./.^.^.(.7X'./.A.Z.Z.^.A.A.}.}./.(.(.XXXX3X^.^.7X}.4X4X}.3XA.B./.^.^.(./.;X3XB.^.'.3X7XpXrXA.Z.^.7XrX7X(.7X",
"^./.wXXXOXrX3X(.^.^.^./.(.7X3X4X(.A.3X3X;X(./.(.XXwX3X3X/.Z.'.;X(./.Z.Z.A././.^.^.;X'.(.(./.(./.^.'.;X3XrXwX7XwX4X(.B.A.(.'.'.Z./.A.Z.A.^./.7X0X;X^.Z.XXrX/.^.}.",
"3X3X(.XX9X!.7X9XA.(.7X(.(.rXpX;X;X'.rX3X4X;X!.(.^.(.wX'.(./.A.;X^.A.Z.^.Z.^.]./.A./.(.!.^.(.(.(.3X}.A.Z.4X9X0X;X;XwXpX(./.rX/.A.(.(././.;X3X3X3X(.(.3X(././.A./.",
"rX(.XX/.3X9XrX(.M.C.(.wX3XwXaX3X9X3X9X3X;X(.(./.^.A./.(.(.(.Z./.Z.A.(./././.^.^./.!.!.(./.(.(.(.(.(.C.A.7X(.;X'.(./.3XwX(./.7XA././.8X(.}.(.;X7X3X(.A.;X3XXX(.}.",
"(.(.7X;XwX(.(.(.A.A.A.7X9X3X7X3X(.'.7X;X/.'.(./.^.A.A.^./.(./././.(.7X(.(.(././._.!.A.;X}./.}./.M.;X^.}.3X'.(.;X'.(.(.;X(.Z.A.^.A.^.}./.(./.'.(.(.;X(.^.(.3X4X/.",
"(.(.3X3X3X4X/.^.^.(.Z.(.7X3X}.(./.(.}.7X'././.Z.Z.Z.Z./.^.(.(.(.(.3X(.}.(.7X3X(.(./.A./.(.(.'.3X^.Z.3X7X(.^.(././.(.(.!.(.'.^.^.C.^.3X4XrX}.;X(.C.M.M./.(.}.XX/.",
"/.3XwX;X4X7X7X;X(.4X(.(.(.3X3X}.(.(.(.3X3X(.A.Z.Z.^./.3X;X/././.'.7X7X;X}.(.(.A.3X7X(.3X(./.^.(.rX3X7XwX4X(.3X^.^.A.!.;X(.(.;X/./.3X3X3XpX7X(.9XXXA.M.M.(.XXrX4X",
"^.wX(.(.}.3X7X}.}.}.4X7X^.^.3X7X3X!.7X;X}.(.^.Z.^.^.;XwX7X3X(.(.(.3XpXrX(.(.3X;X}.(.(.3X7X3X(./.(.rXrX7XwXwXrX'.(.3X'.4X7X;X/.;X(.3X3X(.rX(.A.C.^.wX4X^./.;X(.(.",
"^.3X(.^./.;X/.7X3X/.(.wX3XM.^.3X(.(.7X}.(.'./.^.^.Z.B.3X4X}.3X;X(.'.;XwXXX(.(.'.^.Z./.}.3X;X(.(./.(.4XwX3X3XrXwXwX7X5X(./.'./.(.]./.(.;X7XA.(.(.B.^.XX_.(.}.(./.",
"XX(.3X3X^.^.A.}.;X(.7XXX7X3XW.(.3X4X7X;X(.^.^.^.Z./.^.^.^.(.;X;X(.^.(.(.3X;X(.(.;X7X'.(.4X}./.(./.;X3X7X/.^.(.(.'.3X(.^./././.A.^.3XC.(.}.;X7X7X}.(.(.;X'./.}.(.",
"(.}.;X(.3X'./.(.(.7X9X3X/.^.wXpXrXsXpXwX6X'.Z.Z.^.^.A.7X/.(.3X/.;X/.^.(.;X3X4X;X^.7X;X;X}.;X(./././.(.(./.!.Z./.;X(.^.^.^.Z./.Z.M.Z.m.A.(.(.(.(.oXXX(.(.3XZ.Z.3X",
"}.3X3X/.3X(.A.wX9X/./.(.(.^.}.3XXX(.;X(.(.7X7X3XZ.^./.7X3X/.}.3X7X'./.^.A.'.3X4XA.}.7X3X;X(.3XZ././././.(.(.(.(.(.A.Z.^.A.^./.XX(./.^.Z.(.^.}.XX(.(./.7X3X(.B./."
};